<?xml version="1.0" encoding="UTF-8"?>
<svg xmlns="http://www.w3.org/2000/svg" xmlns:xlink="http://www.w3.org/1999/xlink" width="24px" height="24px" viewBox="0 0 24 24" version="1.1">
<g id="surface1">
<path style=" stroke:none;fill-rule:nonzero;fill:rgb(15.686275%,15.686275%,15.686275%);fill-opacity:1;" d="M 3.640625 11.503906 L 3.144531 11.007812 C 2.09375 9.957031 1.519531 8.570312 1.519531 7.085938 C 1.519531 5.605469 2.09375 4.214844 3.144531 3.167969 C 4.191406 2.121094 5.582031 1.542969 7.0625 1.542969 C 8.542969 1.542969 9.933594 2.121094 10.980469 3.167969 L 11.476562 3.664062 Z M 7.0625 2.953125 C 6.003906 2.953125 4.941406 3.355469 4.136719 4.164062 C 3.355469 4.941406 2.925781 5.980469 2.925781 7.085938 C 2.925781 7.953125 3.191406 8.78125 3.683594 9.472656 L 9.449219 3.707031 C 8.734375 3.203125 7.898438 2.953125 7.0625 2.953125 Z M 7.0625 2.953125 "/>
<path style=" stroke:none;fill-rule:nonzero;fill:rgb(15.686275%,15.686275%,15.686275%);fill-opacity:1;" d="M 5.199219 14.703125 L 2.765625 10.386719 L 7.105469 6.046875 L 10.476562 9.425781 Z M 4.515625 10.625 L 5.511719 12.398438 L 8.488281 9.425781 L 7.105469 8.035156 Z M 4.515625 10.625 "/>
<path style=" stroke:none;fill-rule:nonzero;fill:rgb(15.686275%,15.686275%,15.686275%);fill-opacity:1;" d="M 9.480469 10.421875 L 6.113281 7.039062 L 10.363281 2.789062 L 14.679688 5.21875 Z M 8.101562 7.042969 L 9.484375 8.429688 L 12.378906 5.535156 L 10.601562 4.539062 Z M 8.101562 7.042969 "/>
<path style=" stroke:none;fill-rule:nonzero;fill:rgb(15.686275%,15.686275%,15.686275%);fill-opacity:1;" d="M 6.730469 17.417969 L 4.480469 13.433594 L 9.484375 8.429688 L 12.59375 11.550781 Z M 6.230469 13.671875 L 7.046875 15.113281 L 10.609375 11.550781 L 9.484375 10.421875 Z M 6.230469 13.671875 "/>
<path style=" stroke:none;fill-rule:nonzero;fill:rgb(15.686275%,15.686275%,15.686275%);fill-opacity:1;" d="M 11.597656 12.546875 L 8.488281 9.425781 L 13.410156 4.507812 L 17.394531 6.75 Z M 10.476562 9.425781 L 11.601562 10.554688 L 15.089844 7.066406 L 13.648438 6.253906 Z M 10.476562 9.425781 "/>
<path style=" stroke:none;fill-rule:nonzero;fill:rgb(15.686275%,15.686275%,15.686275%);fill-opacity:1;" d="M 10.191406 22.464844 C 9.8125 22.464844 9.460938 22.261719 9.273438 21.925781 L 6.011719 16.144531 L 16.121094 6.035156 L 21.921875 9.300781 C 22.292969 9.507812 22.5 9.917969 22.457031 10.335938 C 22.410156 10.753906 22.117188 11.105469 21.714844 11.230469 L 18.097656 12.335938 L 18.121094 16.890625 C 18.125 17.210938 18 17.515625 17.773438 17.742188 C 17.546875 17.96875 17.246094 18.089844 16.929688 18.089844 L 16.925781 18.089844 L 12.308594 18.078125 L 11.203125 21.714844 C 11.078125 22.121094 10.726562 22.410156 10.308594 22.457031 C 10.269531 22.460938 10.230469 22.464844 10.191406 22.464844 Z M 7.761719 16.386719 L 10.097656 20.527344 L 11.269531 16.667969 L 16.714844 16.6875 L 16.683594 11.296875 L 20.519531 10.125 L 16.363281 7.785156 Z M 21.511719 10.558594 Z M 21.304688 9.886719 Z M 21.304688 9.886719 "/>
<path style=" stroke:none;fill-rule:nonzero;fill:rgb(15.686275%,15.686275%,15.686275%);fill-opacity:1;" d="M 16.894531 17.570312 C 16.714844 17.570312 16.535156 17.5 16.398438 17.363281 L 11.101562 12.050781 C 10.828125 11.773438 10.828125 11.328125 11.105469 11.054688 C 11.378906 10.78125 11.824219 10.78125 12.097656 11.058594 L 17.394531 16.371094 C 17.667969 16.644531 17.667969 17.089844 17.394531 17.363281 C 17.253906 17.5 17.078125 17.570312 16.894531 17.570312 Z M 16.894531 17.570312 "/>
</g>
</svg>
