<?xml version="1.0" encoding="UTF-8"?>
<svg xmlns="http://www.w3.org/2000/svg" xmlns:xlink="http://www.w3.org/1999/xlink" width="24px" height="24px" viewBox="0 0 24 23" version="1.1">
<g id="surface1">
<path style=" stroke:none;fill-rule:nonzero;fill:currentColor;fill-opacity:1;" d="M 8.324219 3.644531 L 6.105469 1.53125 C 6.105469 1.53125 5.757812 1.113281 6.34375 0.636719 C 6.933594 0.167969 6.964844 0.375 7.164062 0.507812 C 7.359375 0.636719 10.460938 3.644531 10.460938 3.644531 Z M 15.691406 3.722656 L 17.910156 1.609375 C 17.910156 1.609375 18.257812 1.191406 17.671875 0.714844 C 17.085938 0.246094 17.050781 0.453125 16.855469 0.585938 C 16.65625 0.714844 13.554688 3.722656 13.554688 3.722656 Z M 15.691406 3.722656 "/>
<path style=" stroke:none;fill-rule:nonzero;fill:currentColor;fill-opacity:1;" d="M 24.019531 7.636719 C 23.9375 4.324219 21.011719 3.699219 21.011719 3.699219 C 21.011719 3.699219 6.019531 3.578125 2.890625 3.699219 C -0.234375 4.566406 0.00390625 7.636719 0.00390625 7.636719 C 0.00390625 7.636719 0.046875 14.214844 0 17.546875 C 0.339844 20.875 2.953125 21.40625 2.953125 21.40625 C 2.953125 21.40625 3.992188 21.425781 4.753906 21.425781 C 4.835938 21.640625 4.894531 22.6875 6.078125 22.6875 C 7.261719 22.6875 7.402344 21.425781 7.402344 21.425781 C 7.402344 21.425781 16.0625 21.386719 16.78125 21.386719 C 16.824219 21.738281 17 22.703125 18.1875 22.6875 C 19.367188 22.664062 19.449219 21.304688 19.449219 21.304688 C 19.449219 21.304688 19.847656 21.265625 21.050781 21.304688 C 23.855469 20.792969 24.019531 17.5625 24.019531 17.5625 C 24.019531 17.5625 23.980469 10.945312 24.019531 7.636719 Z M 21.605469 18.171875 C 21.605469 18.691406 21.183594 19.117188 20.664062 19.117188 L 3.597656 19.117188 C 3.078125 19.117188 2.65625 18.695312 2.65625 18.171875 L 2.65625 7.058594 C 2.65625 6.539062 3.078125 6.113281 3.597656 6.113281 L 20.664062 6.113281 C 21.183594 6.113281 21.605469 6.535156 21.605469 7.058594 Z M 21.605469 18.171875 "/>
<path style=" stroke:none;fill-rule:nonzero;fill:currentColor;fill-opacity:1;" d="M 4.457031 10.199219 L 9.46875 9.25 L 9.847656 11.101562 L 4.875 12.050781 Z M 20.050781 10.199219 L 15.039062 9.25 L 14.65625 11.101562 L 19.628906 12.050781 Z M 9.847656 14.789062 C 9.847656 14.789062 10.949219 16.738281 12.171875 14.15625 C 13.351562 16.679688 14.65625 14.828125 14.65625 14.828125 L 15.398438 15.300781 C 15.398438 15.300781 14.011719 17.488281 12.1875 15.832031 C 10.644531 17.488281 9.023438 15.308594 9.023438 15.308594 Z M 9.847656 14.789062 "/>
</g>
</svg>
