<?xml version="1.0" encoding="UTF-8"?>
<svg xmlns="http://www.w3.org/2000/svg" xmlns:xlink="http://www.w3.org/1999/xlink" width="24px" height="24px" viewBox="0 0 24 24" version="1.1">
<g id="surface1">
<path style=" stroke:none;fill-rule:nonzero;fill:currentColor;fill-opacity:1;" d="M 7.238281 12.957031 L 6.375 12.957031 C 6.375 10.296875 8.90625 8.171875 12 8.171875 C 15.09375 8.171875 17.625 10.296875 17.625 12.957031 L 16.761719 12.957031 C 16.761719 10.808594 14.644531 9.035156 12 9.035156 C 9.355469 9.035156 7.238281 10.808594 7.238281 12.957031 Z M 5.203125 16.605469 L 4.3125 13.652344 L 19.6875 13.652344 L 18.796875 16.605469 C 17.960938 19.378906 15.179688 21.304688 12 21.304688 C 8.820312 21.304688 6.039062 19.378906 5.203125 16.605469 Z M 6.027344 16.355469 C 6.75 18.753906 9.191406 20.441406 12 20.441406 C 14.808594 20.441406 17.25 18.753906 17.972656 16.355469 L 18.527344 14.515625 L 5.472656 14.515625 Z M 7.6875 8.066406 C 7.492188 8.203125 7.222656 8.15625 7.085938 7.960938 C 6.949219 7.761719 7 7.496094 7.195312 7.359375 L 7.511719 7.140625 C 7.742188 6.976562 7.800781 6.65625 7.640625 6.425781 C 7.59375 6.359375 7.53125 6.304688 7.460938 6.265625 C 6.734375 5.878906 6.460938 4.980469 6.847656 4.253906 C 6.9375 4.089844 7.054688 3.945312 7.195312 3.824219 L 7.382812 3.664062 C 7.5625 3.507812 7.835938 3.53125 7.992188 3.710938 C 8.144531 3.894531 8.125 4.164062 7.941406 4.320312 L 7.753906 4.480469 C 7.695312 4.53125 7.648438 4.59375 7.609375 4.660156 C 7.449219 4.964844 7.5625 5.339844 7.867188 5.503906 C 8.058594 5.605469 8.222656 5.753906 8.347656 5.933594 C 8.78125 6.554688 8.628906 7.414062 8.003906 7.847656 Z M 12.007812 7.203125 C 11.808594 7.339844 11.542969 7.292969 11.40625 7.097656 C 11.269531 6.898438 11.316406 6.632812 11.511719 6.496094 L 11.828125 6.277344 C 12.0625 6.113281 12.121094 5.792969 11.957031 5.5625 C 11.910156 5.496094 11.847656 5.441406 11.777344 5.402344 C 11.054688 5.015625 10.78125 4.113281 11.167969 3.390625 C 11.253906 3.226562 11.371094 3.082031 11.511719 2.960938 L 11.699219 2.800781 C 11.882812 2.644531 12.15625 2.667969 12.308594 2.847656 C 12.464844 3.027344 12.441406 3.300781 12.261719 3.457031 L 12.074219 3.617188 C 12.015625 3.667969 11.964844 3.730469 11.929688 3.796875 C 11.765625 4.101562 11.878906 4.476562 12.183594 4.640625 C 12.375 4.742188 12.542969 4.890625 12.667969 5.066406 C 13.101562 5.691406 12.945312 6.550781 12.320312 6.984375 Z M 16.324219 8.066406 C 16.128906 8.203125 15.859375 8.15625 15.722656 7.960938 C 15.585938 7.765625 15.636719 7.496094 15.832031 7.359375 L 16.148438 7.140625 C 16.378906 6.976562 16.4375 6.65625 16.277344 6.425781 C 16.230469 6.359375 16.167969 6.304688 16.09375 6.265625 C 15.371094 5.878906 15.097656 4.980469 15.484375 4.253906 C 15.570312 4.089844 15.6875 3.945312 15.832031 3.824219 L 16.019531 3.664062 C 16.199219 3.507812 16.472656 3.53125 16.628906 3.710938 C 16.78125 3.894531 16.761719 4.164062 16.578125 4.320312 L 16.390625 4.480469 C 16.332031 4.53125 16.28125 4.59375 16.246094 4.660156 C 16.085938 4.964844 16.199219 5.339844 16.5 5.503906 C 16.695312 5.605469 16.859375 5.753906 16.984375 5.933594 C 17.417969 6.554688 17.265625 7.414062 16.640625 7.847656 Z M 14.296875 12.542969 L 14.296875 11.851562 L 15.003906 11.851562 L 15.003906 12.542969 Z M 12.570312 10.816406 L 12.570312 10.125 L 13.273438 10.125 L 13.273438 10.816406 Z M 10.839844 12.542969 L 10.839844 11.851562 L 11.546875 11.851562 L 11.546875 12.542969 Z M 9.113281 11.679688 L 9.113281 10.988281 L 9.820312 10.988281 L 9.820312 11.679688 Z M 9.113281 11.679688 "/>
</g>
</svg>
