<?xml version="1.0" encoding="UTF-8"?>
<svg xmlns="http://www.w3.org/2000/svg" xmlns:xlink="http://www.w3.org/1999/xlink" width="24px" height="24px" viewBox="0 0 24 24" version="1.1">
<g id="surface1">
<path style=" stroke:none;fill-rule:nonzero;fill:currentColor;fill-opacity:1;" d="M 23.800781 14.613281 C 23.429688 14.613281 23.167969 14.578125 23.011719 14.507812 C 22.859375 14.433594 22.703125 14.296875 22.546875 14.09375 L 19.625 9.90625 L 21.492188 7.199219 C 21.652344 6.988281 21.867188 6.792969 22.136719 6.621094 C 22.410156 6.449219 22.855469 6.359375 23.480469 6.359375 L 23.480469 5.945312 L 20.253906 5.945312 L 20.253906 6.359375 C 20.511719 6.359375 20.714844 6.425781 20.859375 6.554688 C 21.007812 6.6875 21.078125 6.828125 21.078125 6.988281 C 21.078125 7.042969 21.074219 7.09375 21.066406 7.148438 C 21.058594 7.199219 21.027344 7.25 20.972656 7.304688 L 19.414062 9.601562 L 17.640625 6.988281 L 17.585938 6.921875 C 17.585938 6.921875 17.570312 6.875 17.53125 6.785156 C 17.53125 6.675781 17.609375 6.578125 17.757812 6.492188 C 17.90625 6.402344 18.113281 6.359375 18.371094 6.359375 L 18.371094 5.945312 L 14.613281 5.945312 L 14.613281 6.359375 L 14.824219 6.359375 C 15.1875 6.359375 15.460938 6.390625 15.640625 6.457031 C 15.824219 6.519531 15.964844 6.628906 16.066406 6.785156 L 18.574219 10.535156 L 16.386719 13.773438 C 16.285156 13.929688 16.097656 14.109375 15.824219 14.3125 C 15.550781 14.511719 15.078125 14.613281 14.398438 14.613281 L 14.398438 15.027344 L 15.167969 15.027344 C 15.015625 15.859375 14.796875 16.484375 14.519531 16.90625 C 14.195312 17.394531 13.460938 17.640625 12.320312 17.640625 L 10.546875 17.640625 C 10.230469 17.640625 10.046875 17.605469 9.996094 17.53125 C 9.945312 17.460938 9.917969 17.324219 9.917969 17.121094 L 9.917969 13.5625 L 11.066406 13.5625 C 11.6875 13.5625 12.085938 13.679688 12.261719 13.914062 C 12.433594 14.152344 12.519531 14.558594 12.519531 15.132812 L 12.839844 15.132812 L 12.839844 11.585938 L 12.519531 11.585938 C 12.519531 12.160156 12.445312 12.566406 12.300781 12.796875 C 12.15625 13.03125 11.742188 13.148438 11.066406 13.148438 L 9.917969 13.148438 L 9.917969 9.90625 C 9.917969 9.703125 9.945312 9.566406 9.996094 9.492188 C 10.046875 9.421875 10.230469 9.386719 10.546875 9.386719 L 12.210938 9.386719 C 13.253906 9.386719 13.921875 9.589844 14.214844 9.992188 C 14.511719 10.390625 14.714844 11.0625 14.824219 12 L 15.132812 12 L 14.71875 8.972656 L 8.660156 8.972656 L 8.453125 6.054688 L 0.210938 6.054688 L 0 9.078125 L 0.308594 9.078125 C 0.417969 7.984375 0.597656 7.273438 0.851562 6.953125 C 1.101562 6.628906 1.726562 6.46875 2.71875 6.46875 L 3.441406 6.46875 C 3.597656 6.46875 3.691406 6.515625 3.71875 6.609375 C 3.746094 6.703125 3.757812 6.828125 3.757812 6.988281 L 3.757812 13.988281 C 3.757812 14.191406 3.703125 14.347656 3.589844 14.453125 C 3.472656 14.558594 3.078125 14.613281 2.398438 14.613281 L 1.773438 14.613281 L 1.773438 15.027344 L 6.785156 15.027344 L 6.785156 14.613281 L 6.359375 14.613281 C 5.683594 14.613281 5.289062 14.558594 5.179688 14.453125 C 5.066406 14.347656 5.011719 14.191406 5.011719 13.988281 L 5.011719 6.988281 C 5.011719 6.828125 5.019531 6.71875 5.035156 6.648438 C 5.050781 6.582031 5.109375 6.523438 5.214844 6.46875 L 5.945312 6.46875 C 6.941406 6.46875 7.5625 6.628906 7.816406 6.953125 C 8.058594 7.265625 8.230469 7.9375 8.335938 8.972656 L 7.304688 8.972656 L 7.304688 9.386719 L 7.613281 9.386719 C 8.140625 9.386719 8.449219 9.425781 8.535156 9.503906 C 8.621094 9.585938 8.667969 9.753906 8.667969 10.015625 L 8.667969 17.011719 C 8.667969 17.273438 8.621094 17.441406 8.535156 17.519531 C 8.449219 17.601562 8.140625 17.640625 7.613281 17.640625 L 7.304688 17.640625 L 7.304688 18.054688 L 15.027344 18.054688 L 15.484375 15.027344 L 17.746094 15.027344 L 17.746094 14.613281 C 17.429688 14.613281 17.210938 14.535156 17.089844 14.375 C 16.96875 14.21875 16.90625 14.089844 16.90625 13.984375 C 16.90625 13.929688 16.910156 13.878906 16.917969 13.828125 C 16.925781 13.777344 16.957031 13.722656 17.011719 13.667969 L 18.894531 10.851562 L 20.972656 14.09375 C 20.972656 14.140625 20.992188 14.167969 21.027344 14.175781 L 21.078125 14.1875 C 21.078125 14.296875 21.007812 14.394531 20.859375 14.484375 C 20.714844 14.570312 20.511719 14.613281 20.253906 14.613281 L 20.253906 15.027344 L 24 15.027344 L 24 14.613281 Z M 23.800781 14.613281 "/>
</g>
</svg>
