<?xml version="1.0" encoding="UTF-8" ?>
<!DOCTYPE svg PUBLIC "-//W3C//DTD SVG 1.1//EN" "http://www.w3.org/Graphics/SVG/1.1/DTD/svg11.dtd">
<svg width="337pt" height="167pt" viewBox="0 0 688 340" version="1.1" xmlns="http://www.w3.org/2000/svg">
<g id="#a78b42ff">
<path fill="#a78b42" opacity="1.00" d=" M 297.84 35.64 C 321.94 27.38 349.14 28.22 372.54 38.39 C 398.14 49.27 418.66 70.43 430.73 95.29 C 435.02 104.71 439.08 114.30 441.79 124.31 C 442.22 125.70 441.96 126.99 441.02 128.19 C 438.79 124.73 437.66 120.74 435.91 117.05 C 420.13 85.71 389.36 62.85 355.08 55.83 C 351.03 55.12 346.98 54.40 342.88 54.10 C 329.83 52.56 316.58 53.91 303.80 56.80 C 281.54 62.43 260.83 74.33 245.38 91.38 C 235.78 101.79 227.79 113.86 223.13 127.30 C 222.66 127.35 221.72 127.45 221.26 127.50 C 221.17 123.72 222.69 120.21 223.81 116.68 C 228.54 103.04 234.40 89.64 242.85 77.85 C 256.25 58.58 275.54 43.25 297.84 35.64 M 311.92 38.47 C 290.52 42.67 270.86 54.10 255.77 69.74 C 250.63 75.03 245.67 80.58 241.91 86.95 C 262.26 61.27 294.31 45.71 326.96 44.51 C 356.52 43.26 386.48 53.67 408.57 73.41 C 413.27 77.55 417.28 82.38 421.82 86.68 C 417.80 81.86 414.23 76.66 409.88 72.12 C 398.33 59.79 384.30 49.56 368.46 43.51 C 350.61 36.49 330.74 34.66 311.92 38.47 Z" />
</g>
<g id="#000000ff">
<path fill="#000000" opacity="1.00" d=" M 368.04 83.12 C 371.96 80.83 376.71 81.00 381.09 81.33 C 388.25 82.05 393.70 88.90 393.70 95.93 C 393.79 110.69 393.68 125.45 393.74 140.21 C 389.97 140.21 386.20 140.21 382.43 140.25 C 382.31 133.72 382.42 127.20 382.36 120.67 C 378.97 120.69 375.58 120.69 372.19 120.69 C 372.16 127.20 372.18 133.70 372.18 140.20 C 368.32 140.22 364.47 140.22 360.61 140.21 C 360.62 125.79 360.61 111.37 360.61 96.96 C 360.56 91.52 363.18 85.83 368.04 83.12 M 372.33 96.10 C 371.94 100.64 372.28 105.20 372.14 109.75 C 375.55 109.77 378.95 109.77 382.37 109.81 C 382.32 105.52 382.54 101.22 382.30 96.94 C 382.31 94.10 379.87 91.34 376.93 91.58 C 374.51 91.48 372.57 93.84 372.33 96.10 Z" />
<path fill="#000000" opacity="1.00" d=" M 271.41 82.43 C 280.83 82.34 290.24 82.42 299.65 82.38 C 299.64 86.14 299.64 89.90 299.65 93.66 C 293.40 93.67 287.15 93.65 280.90 93.68 C 280.90 97.65 280.90 101.61 280.89 105.58 C 286.15 105.62 291.41 105.62 296.66 105.58 C 296.68 109.23 296.69 112.88 296.72 116.53 C 291.45 116.54 286.17 116.52 280.90 116.56 C 280.90 124.44 280.88 132.33 280.91 140.21 C 277.12 140.22 273.33 140.22 269.55 140.22 C 269.61 121.49 269.42 102.75 269.65 84.02 C 270.09 83.62 270.97 82.83 271.41 82.43 Z" />
<path fill="#000000" opacity="1.00" d=" M 305.73 82.63 C 308.95 82.13 312.24 82.44 315.49 82.39 C 315.47 101.66 315.48 120.93 315.48 140.20 C 312.27 140.20 309.06 140.30 305.86 140.21 C 303.77 140.81 303.88 138.29 303.96 137.04 C 304.38 120.35 303.97 103.66 304.18 86.97 C 304.30 85.43 304.15 83.50 305.73 82.63 Z" />
<path fill="#000000" opacity="1.00" d=" M 321.38 86.96 C 321.18 85.16 321.87 82.58 324.05 82.48 C 328.67 82.22 333.31 82.45 337.95 82.37 C 341.26 82.29 344.68 82.71 347.60 84.42 C 357.14 89.30 357.98 104.98 349.08 110.89 C 357.00 116.00 357.54 127.97 351.91 134.97 C 348.81 138.71 343.80 140.25 339.07 140.22 C 333.19 140.26 327.30 140.17 321.42 140.23 C 321.36 122.48 321.42 104.72 321.38 86.96 M 332.54 92.39 C 332.55 97.02 332.52 101.65 332.62 106.29 C 335.44 106.09 338.50 106.58 341.09 105.20 C 344.50 102.99 344.75 97.63 342.52 94.51 C 340.16 91.41 335.87 92.66 332.54 92.39 M 332.61 115.65 C 332.52 120.57 332.53 125.49 332.59 130.41 C 335.45 130.22 338.56 130.59 341.19 129.19 C 345.32 126.43 345.20 118.83 340.54 116.65 C 338.03 115.60 335.26 115.77 332.61 115.65 Z" />
<path fill="#000000" opacity="1.00" d=" M 39.59 176.36 C 44.76 174.09 50.54 174.14 56.06 174.50 C 60.91 174.81 65.99 178.72 65.55 183.97 C 65.56 186.83 63.26 188.79 61.25 190.46 C 63.37 192.16 65.77 194.03 66.23 196.90 C 66.42 201.08 63.92 205.33 59.92 206.80 C 55.81 208.28 51.29 207.88 47.01 207.61 C 43.17 207.33 39.87 204.02 39.82 200.13 C 39.46 192.21 39.93 184.28 39.59 176.36 M 48.76 181.64 C 48.74 183.63 48.74 185.62 48.73 187.61 C 51.50 187.33 55.98 188.57 56.78 184.83 C 56.68 180.74 51.50 181.78 48.76 181.64 M 48.78 193.77 C 48.74 195.72 48.71 197.68 48.66 199.64 C 51.59 200.31 56.81 201.23 57.31 197.04 C 56.98 192.77 51.70 194.08 48.78 193.77 Z" />
<path fill="#000000" opacity="1.00" d=" M 110.33 175.13 C 113.78 174.00 118.57 175.06 120.30 178.60 C 125.13 187.58 127.73 197.57 129.54 207.54 C 126.68 207.23 123.16 208.36 120.86 206.14 C 119.82 204.32 119.56 202.18 119.02 200.18 C 115.31 199.91 111.58 199.87 107.88 200.20 C 107.49 202.67 107.03 205.13 106.50 207.58 C 103.70 207.44 99.29 208.33 98.67 204.49 C 98.66 199.26 100.84 194.30 102.48 189.42 C 104.60 184.44 106.55 179.10 110.33 175.13 M 112.97 184.36 C 111.98 187.14 110.97 189.92 110.10 192.75 C 112.47 192.74 114.85 192.72 117.22 192.68 C 116.27 189.82 115.26 186.98 114.24 184.14 C 113.93 184.19 113.29 184.30 112.97 184.36 Z" />
<path fill="#000000" opacity="1.00" d=" M 163.20 188.89 C 160.17 182.30 166.31 174.96 172.94 174.34 C 177.04 173.98 181.86 173.87 185.06 176.92 C 187.21 178.92 186.76 182.14 187.25 184.76 C 182.75 182.03 176.66 179.91 171.81 182.99 C 170.19 185.63 173.30 186.90 175.38 187.36 C 179.53 188.44 184.64 189.01 186.93 193.17 C 188.86 197.61 187.45 203.60 183.16 206.16 C 179.26 208.49 174.45 208.91 170.06 208.01 C 167.46 207.46 164.81 206.00 163.72 203.45 C 163.28 201.53 163.33 199.54 163.19 197.58 C 167.35 200.17 172.53 201.88 177.37 200.25 C 179.29 199.57 179.36 196.42 177.36 195.77 C 172.58 193.75 165.87 194.20 163.20 188.89 Z" />
<path fill="#000000" opacity="1.00" d=" M 240.67 175.70 C 243.99 174.19 247.78 174.91 251.32 174.80 C 247.10 179.92 242.53 184.74 238.53 190.04 C 242.23 194.80 245.13 200.79 251.01 203.23 C 250.39 204.53 249.76 205.83 249.13 207.13 C 248.03 207.52 246.94 207.93 245.85 208.34 C 243.67 207.64 241.21 207.16 239.65 205.33 C 236.14 201.50 233.26 197.15 230.54 192.73 C 230.17 197.72 230.35 202.73 230.35 207.73 C 227.82 207.41 224.72 208.22 222.69 206.27 C 220.89 204.70 221.31 202.12 221.18 200.00 C 221.24 191.54 221.15 183.09 221.25 174.64 C 224.31 174.84 228.41 174.68 229.79 178.08 C 230.85 181.27 230.14 184.78 230.44 188.10 C 233.63 183.82 236.41 179.04 240.67 175.70 Z" />
<path fill="#000000" opacity="1.00" d=" M 476.80 174.70 C 480.40 174.56 484.78 174.83 486.62 178.50 C 491.59 187.42 494.25 197.48 495.97 207.50 C 493.57 207.47 491.14 207.71 488.79 207.24 C 486.06 205.88 486.16 202.39 485.26 199.87 C 481.64 199.87 478.03 199.90 474.43 200.09 C 473.89 202.59 473.38 205.09 472.92 207.60 C 470.55 207.28 467.51 208.24 465.79 206.12 C 464.51 203.60 465.56 200.67 466.10 198.07 C 468.49 189.84 471.46 181.52 476.80 174.70 M 479.86 183.53 C 478.56 186.53 477.44 189.60 476.35 192.68 C 478.78 192.71 481.22 192.72 483.67 192.71 C 482.65 189.55 481.60 186.37 479.86 183.53 Z" />
<path fill="#000000" opacity="1.00" d=" M 530.40 174.67 C 533.42 174.90 538.07 174.26 539.03 178.11 C 539.80 184.34 538.88 190.65 539.43 196.90 C 539.45 198.39 540.41 199.87 541.95 200.15 C 545.54 200.97 549.22 200.14 552.77 199.49 C 552.46 201.96 553.46 205.33 550.85 206.83 C 546.47 209.04 541.16 208.47 536.58 207.19 C 532.19 205.92 530.42 201.08 530.40 196.92 C 530.28 189.50 530.35 182.08 530.40 174.67 Z" />
<path fill="#000000" opacity="1.00" d=" M 591.57 174.66 C 594.55 174.90 599.07 174.32 600.08 178.05 C 600.93 184.29 599.99 190.64 600.51 196.91 C 600.55 198.41 601.49 199.88 603.06 200.15 C 606.61 200.97 610.26 200.17 613.77 199.47 C 613.71 201.51 613.66 203.56 613.61 205.61 C 609.35 209.16 603.34 208.63 598.31 207.40 C 594.07 206.45 591.63 202.12 591.58 198.01 C 591.44 190.23 591.54 182.44 591.57 174.66 Z" />
<path fill="#000000" opacity="1.00" d=" M 285.56 180.93 C 285.72 177.98 287.76 174.99 290.97 174.98 C 297.16 174.48 303.38 174.92 309.58 174.79 C 309.55 177.57 309.41 181.26 306.21 182.25 C 302.29 182.73 298.32 182.41 294.38 182.44 C 294.32 184.20 294.26 185.97 294.21 187.74 C 298.32 187.76 302.44 187.75 306.56 187.77 C 306.23 190.01 307.13 193.19 304.55 194.35 C 301.22 195.28 297.68 194.73 294.26 194.84 C 294.31 196.36 294.36 197.89 294.42 199.42 C 299.21 201.55 304.58 200.55 309.58 199.81 C 309.27 202.34 310.07 206.07 307.04 207.22 C 303.09 208.78 298.64 208.40 294.53 207.78 C 289.74 207.07 285.66 202.98 285.39 198.08 C 285.09 192.37 285.05 186.63 285.56 180.93 Z" />
<path fill="#000000" opacity="1.00" d=" M 344.46 182.55 C 344.47 179.78 344.54 175.70 348.06 175.16 C 355.91 174.22 363.88 175.13 371.78 174.69 C 371.99 176.60 372.68 178.78 371.32 180.44 C 369.37 183.29 365.58 182.41 362.63 182.66 C 362.68 190.95 362.58 199.24 362.71 207.52 C 359.60 207.45 354.96 208.34 353.80 204.46 C 353.37 197.19 353.77 189.87 353.65 182.58 C 350.58 182.58 347.52 182.58 344.46 182.55 Z" />
<path fill="#000000" opacity="1.00" d=" M 406.42 175.79 C 412.14 174.51 418.10 173.77 423.93 174.73 C 427.89 175.53 431.94 178.63 431.89 183.01 C 432.46 186.27 429.77 188.49 427.82 190.64 C 430.24 192.36 432.90 194.69 432.61 197.99 C 432.60 203.26 427.68 207.40 422.64 207.68 C 419.06 207.89 415.41 208.05 411.89 207.30 C 408.61 206.54 406.22 203.40 406.35 200.05 C 406.29 191.96 406.26 183.87 406.42 175.79 M 415.38 181.59 C 415.32 183.60 415.28 185.60 415.26 187.62 C 418.41 187.69 421.87 187.92 423.88 185.00 C 422.43 181.44 418.65 181.40 415.38 181.59 M 415.26 193.73 C 415.30 195.91 415.36 198.08 415.46 200.26 C 418.16 200.29 420.86 200.06 423.46 199.26 C 423.45 197.74 423.44 196.22 423.43 194.71 C 420.77 193.97 418.01 193.74 415.26 193.73 Z" />
<path fill="#000000" opacity="1.00" d=" M 165.22 234.31 C 174.09 232.46 183.77 233.71 191.46 238.66 C 198.43 243.04 203.40 250.25 205.59 258.13 C 207.04 262.95 206.87 268.04 206.82 273.02 C 206.73 282.38 203.50 292.02 196.79 298.71 C 190.31 305.11 181.00 308.05 172.02 307.76 C 164.72 308.13 157.36 305.94 151.49 301.59 C 144.50 296.56 140.25 288.40 138.69 280.06 C 137.43 269.45 137.92 257.96 143.81 248.70 C 148.35 241.00 156.51 235.89 165.22 234.31 M 168.17 249.97 C 161.54 251.78 158.13 258.71 157.54 265.09 C 156.91 271.89 157.14 279.26 160.68 285.30 C 165.00 292.74 176.96 294.31 182.69 287.70 C 186.53 283.45 187.65 277.49 187.70 271.94 C 187.70 266.39 187.28 260.51 184.33 255.66 C 181.03 250.36 173.98 248.54 168.17 249.97 Z" />
<path fill="#000000" opacity="1.00" d=" M 217.19 237.27 C 223.54 235.12 230.35 234.49 237.02 234.23 C 243.73 234.31 250.71 233.56 257.11 236.02 C 263.76 238.32 269.53 243.94 270.88 251.00 C 272.93 260.31 268.21 270.89 259.24 274.67 C 261.49 276.22 263.42 278.23 264.58 280.74 C 268.71 288.82 271.96 297.33 276.67 305.11 C 269.81 307.07 260.81 308.44 255.47 302.55 C 251.25 296.66 249.94 289.16 245.76 283.23 C 243.66 280.24 239.68 280.19 236.46 279.43 C 236.31 288.40 236.46 297.37 236.38 306.34 C 231.25 306.23 225.48 307.20 221.05 303.95 C 217.59 301.52 216.83 297.01 216.88 293.07 C 216.87 277.36 216.90 261.65 216.87 245.94 C 216.90 243.05 216.64 240.12 217.19 237.27 M 236.40 265.70 C 239.89 265.75 243.46 266.18 246.91 265.41 C 252.63 263.40 253.80 254.35 248.85 250.94 C 245.10 248.87 240.63 249.86 236.56 249.75 C 236.28 255.06 236.42 260.38 236.40 265.70 Z" />
<path fill="#000000" opacity="1.00" d=" M 337.70 237.50 C 346.14 234.66 355.11 233.92 363.97 234.20 C 373.95 233.93 384.30 237.47 391.16 244.93 C 397.20 250.93 400.05 259.52 400.33 267.91 C 400.67 277.53 398.19 287.54 392.12 295.16 C 388.08 300.40 382.25 304.16 375.91 305.98 C 370.06 307.59 363.95 307.38 357.95 307.25 C 352.39 306.87 346.43 305.73 342.22 301.79 C 338.97 298.80 337.62 294.28 337.71 289.96 C 337.73 272.48 337.75 254.99 337.70 237.50 M 356.74 250.61 C 356.80 261.40 356.77 272.19 356.74 282.98 C 356.73 285.43 357.21 287.84 357.67 290.24 C 364.50 292.98 373.54 290.92 377.54 284.44 C 380.86 279.38 381.23 273.02 380.68 267.16 C 380.14 261.41 377.55 255.40 372.40 252.36 C 367.70 249.59 361.94 249.61 356.74 250.61 Z" />
<path fill="#000000" opacity="1.00" d=" M 437.98 248.96 C 446.59 235.86 464.39 230.49 479.11 235.10 C 484.61 236.94 489.41 241.54 490.37 247.41 C 490.80 251.00 490.55 254.63 490.59 258.24 C 485.01 252.57 476.79 250.34 469.01 250.58 C 461.42 250.80 453.83 255.65 451.64 263.13 C 448.50 272.80 452.21 285.65 462.34 289.48 C 471.76 292.67 482.62 290.22 490.34 284.12 C 490.26 289.13 491.16 294.69 488.13 299.09 C 483.74 305.50 475.46 308.01 467.99 307.76 C 457.58 308.26 447.15 303.70 440.21 295.98 C 428.94 283.24 428.65 262.85 437.98 248.96 Z" />
<path fill="#000000" opacity="1.00" d=" M 574.63 237.41 C 585.10 234.11 596.21 233.86 607.09 234.35 C 614.49 234.95 622.01 238.57 625.93 245.09 C 629.74 251.47 629.92 259.54 627.60 266.47 C 625.29 273.28 619.61 278.69 612.89 281.12 C 606.94 283.44 600.39 282.74 594.19 282.16 C 594.29 290.21 594.21 298.27 594.24 306.32 C 589.73 306.12 584.91 307.16 580.68 305.18 C 576.55 303.13 574.65 298.41 574.70 294.00 C 574.63 275.13 574.79 256.27 574.63 237.41 M 594.43 249.78 C 594.08 255.24 594.27 260.72 594.25 266.19 C 599.18 266.72 606.18 268.34 609.06 262.96 C 610.08 259.07 610.37 253.77 606.84 251.01 C 603.09 248.82 598.54 249.86 594.43 249.78 Z" />
<path fill="#000000" opacity="1.00" d=" M 33.11 235.27 C 37.75 235.30 42.41 234.99 47.05 235.41 C 51.45 235.96 54.86 239.86 55.57 244.13 C 57.57 255.09 60.10 266.09 64.73 276.27 C 69.41 263.71 73.44 250.87 75.86 237.68 C 80.75 237.76 86.11 236.87 90.50 239.58 C 94.14 241.83 95.73 246.03 96.49 250.04 C 98.36 259.11 101.39 267.91 105.04 276.42 C 110.31 263.20 113.89 249.31 115.88 235.23 C 121.21 235.84 127.99 233.39 132.08 237.93 C 135.46 241.41 134.30 246.59 133.13 250.76 C 127.85 270.46 120.53 289.77 110.04 307.31 C 105.37 307.59 99.85 307.30 96.96 303.01 C 90.82 293.56 87.71 282.57 84.28 271.94 C 81.12 284.39 76.31 296.60 69.30 307.40 C 64.44 307.53 58.54 307.04 55.82 302.35 C 47.54 288.57 41.52 273.45 37.67 257.85 C 35.80 250.39 34.54 242.81 33.11 235.27 Z" />
<path fill="#000000" opacity="1.00" d=" M 282.75 235.28 C 287.63 235.52 293.00 234.24 297.51 236.67 C 301.43 238.97 302.18 243.87 302.27 248.02 C 302.36 259.01 302.23 270.00 302.31 280.99 C 302.32 284.02 302.94 287.56 305.74 289.29 C 308.83 291.03 312.54 290.60 315.95 290.68 C 321.23 290.77 326.48 289.95 331.56 288.51 C 331.35 293.36 332.46 299.07 328.92 303.03 C 325.08 306.95 319.11 307.11 313.97 307.31 C 305.87 307.32 296.76 307.29 290.24 301.75 C 284.29 296.68 282.95 288.39 282.76 280.99 C 282.74 265.75 282.77 250.51 282.75 235.28 Z" />
<path fill="#000000" opacity="1.00" d=" M 499.68 235.24 C 503.85 235.40 508.16 234.71 512.24 235.83 C 516.34 237.34 518.82 241.76 518.76 246.02 C 518.97 255.67 518.63 265.34 518.89 274.99 C 519.34 279.40 519.13 284.31 522.03 287.98 C 525.19 291.96 530.95 292.16 535.56 291.31 C 541.37 289.88 543.09 283.18 543.30 277.96 C 543.41 263.72 543.31 249.48 543.34 235.23 C 547.61 235.38 552.02 234.72 556.20 235.86 C 560.39 237.29 562.43 241.87 562.48 246.05 C 562.62 256.03 562.46 266.02 562.55 276.01 C 562.61 284.10 560.23 292.56 554.59 298.55 C 548.39 305.31 538.94 308.18 529.95 307.76 C 521.37 308.10 512.61 304.59 507.00 298.02 C 501.70 292.02 499.71 283.81 499.68 275.96 C 499.65 262.39 499.68 248.81 499.68 235.24 Z" />
</g>
</svg>
