<?xml version="1.0" encoding="UTF-8"?>
<svg xmlns="http://www.w3.org/2000/svg" xmlns:xlink="http://www.w3.org/1999/xlink" width="120px" height="120px" viewBox="0 0 120 127" version="1.1">
<g id="surface1">
<path style=" stroke:none;fill-rule:evenodd;fill:rgb(98.431373%,79.607844%,1.568628%);fill-opacity:1;" d="M 17.308594 25.789062 L 17.339844 34.363281 L 20.550781 34.398438 L 23.761719 34.429688 L 23.761719 60.835938 L 17.339844 60.898438 L 17.308594 69.476562 L 17.277344 78.050781 L 49.441406 78.050781 L 49.410156 69.476562 L 49.378906 60.898438 L 42.480469 60.835938 L 42.480469 52.410156 C 42.480469 47.777344 42.523438 43.988281 42.578125 43.988281 C 42.675781 43.988281 42.90625 44.289062 44.980469 47.15625 C 45.601562 48.007812 46.289062 48.949219 46.507812 49.246094 C 46.730469 49.542969 49.804688 53.738281 53.339844 58.570312 C 56.871094 63.402344 59.804688 67.367188 59.851562 67.378906 C 59.902344 67.394531 60.425781 66.75 61.015625 65.945312 C 61.605469 65.144531 62.691406 63.679688 63.425781 62.691406 C 64.160156 61.707031 66.800781 58.128906 69.296875 54.746094 C 71.792969 51.359375 73.949219 48.445312 74.085938 48.269531 C 74.226562 48.09375 74.71875 47.433594 75.179688 46.800781 C 75.640625 46.167969 76.332031 45.246094 76.710938 44.746094 L 77.398438 43.839844 L 77.398438 60.839844 L 74.054688 60.839844 C 71.378906 60.839844 70.683594 60.871094 70.574219 61.003906 C 70.476562 61.121094 70.445312 63.464844 70.46875 69.578125 L 70.5 77.992188 L 86.609375 78.023438 L 102.722656 78.054688 L 102.660156 60.898438 L 96.238281 60.835938 L 96.238281 34.429688 L 99.449219 34.398438 L 102.660156 34.363281 L 102.691406 25.789062 L 102.722656 17.210938 L 90.03125 17.21875 L 77.339844 17.222656 L 76.140625 18.910156 C 75.480469 19.839844 74.71875 20.898438 74.449219 21.265625 C 73.863281 22.070312 67.71875 30.5 67.027344 31.453125 C 66.761719 31.824219 66.292969 32.46875 65.992188 32.886719 C 63.132812 36.851562 60.085938 41.003906 60 41.058594 C 59.917969 41.109375 57.296875 37.597656 54.25 33.347656 C 53.988281 32.988281 52.605469 31.078125 51.171875 29.105469 C 49.734375 27.132812 47.6875 24.308594 46.621094 22.832031 C 45.554688 21.351562 44.203125 19.480469 43.617188 18.675781 L 42.550781 17.210938 L 17.277344 17.210938 L 17.308594 25.789062 "/>
<path style=" stroke:none;fill-rule:evenodd;fill:rgb(94.901961%,95.294118%,96.078432%);fill-opacity:1;" d="M 62.257812 86.722656 C 59.742188 87.515625 60.101562 90.148438 62.875 91.207031 C 64.375 91.78125 64.824219 92.367188 64.382812 93.183594 C 63.78125 94.300781 61.550781 93.796875 61.054688 92.4375 C 60.746094 91.578125 60.300781 91.835938 60.425781 92.804688 C 60.722656 95.175781 65.121094 95.121094 65.765625 92.738281 C 66.140625 91.351562 65.394531 90.363281 63.472656 89.695312 C 62.433594 89.335938 61.921875 88.90625 61.921875 88.394531 C 61.921875 86.859375 64.257812 87.097656 64.984375 88.703125 C 65.28125 89.355469 65.460938 89.230469 65.449219 88.378906 C 65.433594 87.214844 65.300781 86.707031 65.078125 86.929688 C 64.914062 87.09375 64.84375 87.089844 64.398438 86.894531 C 63.671875 86.578125 62.910156 86.519531 62.257812 86.722656 M 91.667969 86.761719 C 88.210938 87.496094 87.796875 92.707031 91.070312 94.273438 C 93.746094 95.550781 96.542969 93.703125 96.53125 90.664062 C 96.523438 87.882812 94.402344 86.183594 91.667969 86.761719 M 17.160156 87.015625 C 17.160156 87.171875 17.238281 87.257812 17.390625 87.257812 C 17.933594 87.257812 18 87.507812 18.003906 89.625 C 18.007812 93.40625 18.609375 94.40625 20.960938 94.527344 C 23.484375 94.660156 24.277344 93.625 24.46875 89.945312 C 24.59375 87.503906 24.621094 87.390625 25.09375 87.296875 C 25.328125 87.25 25.441406 87.152344 25.441406 87.003906 C 25.441406 86.796875 25.328125 86.777344 24 86.777344 C 22.640625 86.777344 22.558594 86.792969 22.558594 87.015625 C 22.558594 87.148438 22.636719 87.257812 22.734375 87.257812 C 22.832031 87.257812 23.050781 87.320312 23.226562 87.398438 L 23.539062 87.542969 L 23.5 89.878906 C 23.445312 93.070312 23.121094 93.652344 21.410156 93.648438 C 19.988281 93.644531 19.636719 92.957031 19.582031 90.066406 C 19.535156 87.742188 19.601562 87.433594 20.183594 87.285156 C 20.402344 87.226562 20.597656 87.09375 20.617188 86.980469 C 20.652344 86.796875 20.484375 86.777344 18.910156 86.777344 C 17.238281 86.777344 17.160156 86.789062 17.160156 87.015625 M 25.996094 86.875 C 25.902344 87.023438 26.066406 87.179688 26.550781 87.402344 L 27 87.609375 L 27 90.34375 C 27 93.386719 26.9375 93.746094 26.382812 93.90625 C 25.648438 94.117188 26.046875 94.25 27.539062 94.28125 C 29.15625 94.320312 29.5625 94.144531 28.554688 93.84375 C 28.222656 93.742188 28.03125 93.605469 27.953125 93.398438 C 27.8125 93.027344 27.800781 89.085938 27.941406 89 C 27.996094 88.96875 28.421875 89.40625 28.886719 89.980469 C 29.347656 90.554688 30.335938 91.773438 31.082031 92.695312 C 32.726562 94.726562 32.996094 94.867188 33.011719 93.6875 C 33.085938 88.171875 33.183594 87.316406 33.757812 87.234375 C 33.902344 87.214844 34.035156 87.101562 34.058594 86.988281 C 34.09375 86.796875 33.957031 86.777344 32.519531 86.777344 C 31.085938 86.777344 30.945312 86.796875 30.984375 86.984375 C 31.007812 87.121094 31.179688 87.21875 31.492188 87.269531 C 32.230469 87.390625 32.28125 87.535156 32.28125 89.667969 C 32.28125 90.839844 32.234375 91.558594 32.160156 91.558594 C 32.03125 91.558594 30.925781 90.222656 29.320312 88.125 L 28.289062 86.777344 L 27.171875 86.777344 C 26.558594 86.777344 26.027344 86.820312 25.996094 86.875 M 34.800781 86.96875 C 34.800781 87.074219 34.964844 87.21875 35.164062 87.292969 C 35.652344 87.476562 35.652344 87.488281 35.613281 90.78125 L 35.578125 93.652344 L 35.191406 93.820312 C 34.371094 94.179688 34.695312 94.308594 36.421875 94.308594 C 38.140625 94.308594 38.433594 94.195312 37.648438 93.832031 C 37.132812 93.589844 37.105469 93.4375 37.09375 90.648438 C 37.078125 87.703125 37.105469 87.523438 37.636719 87.300781 C 38.519531 86.933594 38.160156 86.777344 36.421875 86.777344 C 35.019531 86.777344 34.800781 86.804688 34.800781 86.96875 M 38.703125 86.890625 C 38.667969 86.953125 38.703125 87.058594 38.789062 87.125 C 39.539062 87.734375 39.609375 87.851562 40.207031 89.46875 C 40.546875 90.386719 40.867188 91.25 40.917969 91.378906 C 41.289062 92.328125 41.425781 92.683594 41.722656 93.515625 C 42.300781 95.132812 42.328125 95.105469 43.917969 91.320312 C 45.472656 87.617188 45.53125 87.507812 45.96875 87.355469 C 46.863281 87.042969 46.417969 86.777344 45 86.777344 C 43.582031 86.777344 43.128906 87.039062 44.058594 87.320312 C 44.777344 87.539062 44.570312 88.566406 43.183594 91.648438 C 42.855469 92.371094 42.851562 92.363281 42.089844 90.15625 C 41.292969 87.84375 41.238281 87.417969 41.730469 87.308594 C 42.296875 87.183594 42.359375 87.148438 42.359375 86.960938 C 42.359375 86.75 38.835938 86.679688 38.703125 86.890625 M 46.558594 86.964844 C 46.558594 87.066406 46.722656 87.207031 46.921875 87.273438 C 47.488281 87.472656 47.519531 87.644531 47.519531 90.601562 L 47.519531 93.363281 L 47.226562 93.65625 C 47.0625 93.816406 46.847656 93.949219 46.746094 93.949219 C 46.644531 93.949219 46.558594 94.03125 46.558594 94.128906 C 46.558594 94.285156 46.964844 94.308594 49.484375 94.308594 L 52.40625 94.308594 L 52.484375 93.574219 C 52.523438 93.167969 52.558594 92.738281 52.558594 92.617188 C 52.558594 92.25 52.214844 92.367188 52.035156 92.800781 C 51.761719 93.449219 51.449219 93.589844 50.277344 93.589844 C 48.957031 93.589844 48.960938 93.59375 48.960938 92.074219 L 48.960938 90.84375 L 49.628906 90.84375 C 50.441406 90.84375 50.695312 90.964844 50.859375 91.4375 C 51.113281 92.152344 51.238281 91.828125 51.238281 90.484375 C 51.238281 89.109375 51.144531 88.898438 50.816406 89.53125 C 50.59375 89.960938 50.226562 90.125 49.492188 90.125 L 48.960938 90.125 L 48.960938 87.496094 L 49.78125 87.496094 C 50.894531 87.496094 51.34375 87.667969 51.554688 88.167969 C 51.859375 88.894531 52.078125 88.6875 52.078125 87.675781 L 52.078125 86.777344 L 49.320312 86.777344 C 46.90625 86.777344 46.558594 86.800781 46.558594 86.964844 M 53.28125 86.945312 C 53.28125 87.046875 53.46875 87.210938 53.703125 87.308594 L 54.125 87.484375 L 54.09375 90.566406 L 54.058594 93.652344 L 53.671875 93.820312 C 52.851562 94.179688 53.175781 94.308594 54.898438 94.308594 C 56.613281 94.308594 56.988281 94.167969 56.109375 93.851562 C 55.726562 93.710938 55.691406 93.652344 55.621094 93.078125 C 55.3125 90.578125 56.042969 90.265625 57.09375 92.453125 C 57.859375 94.042969 58.484375 94.539062 59.730469 94.546875 C 60.464844 94.546875 60.566406 94.347656 59.96875 94.070312 C 59.675781 93.933594 59.375 93.546875 58.71875 92.457031 C 57.707031 90.773438 57.726562 90.867188 58.304688 90.46875 C 59.433594 89.695312 59.484375 87.863281 58.394531 87.160156 C 57.769531 86.757812 53.28125 86.566406 53.28125 86.945312 M 66.238281 86.964844 C 66.238281 87.066406 66.421875 87.226562 66.644531 87.316406 C 67.183594 87.542969 67.195312 87.613281 67.199219 90.683594 C 67.199219 93.679688 67.207031 93.652344 66.648438 93.835938 C 65.71875 94.140625 66.148438 94.308594 67.859375 94.308594 C 69.582031 94.308594 69.875 94.195312 69.085938 93.832031 L 68.699219 93.652344 L 68.667969 90.78125 C 68.628906 87.492188 68.632812 87.441406 69.121094 87.273438 C 70.019531 86.960938 69.554688 86.777344 67.859375 86.777344 C 66.476562 86.777344 66.238281 86.804688 66.238281 86.964844 M 70.199219 87.863281 C 70.199219 89.03125 70.5 89.398438 70.691406 88.46875 C 70.824219 87.816406 71.042969 87.691406 72.027344 87.683594 L 72.898438 87.675781 L 72.933594 90.578125 C 72.964844 93.609375 72.925781 93.902344 72.460938 93.972656 C 72.316406 93.992188 72.175781 94.078125 72.148438 94.160156 C 72.113281 94.273438 72.46875 94.308594 73.671875 94.308594 C 74.984375 94.308594 75.238281 94.28125 75.238281 94.128906 C 75.238281 94.03125 75.140625 93.949219 75.019531 93.949219 C 74.433594 93.949219 74.394531 93.714844 74.429688 90.589844 L 74.460938 87.675781 L 75.324219 87.683594 C 76.269531 87.691406 76.679688 87.902344 76.683594 88.378906 C 76.683594 88.757812 76.867188 88.976562 77.101562 88.886719 C 77.246094 88.832031 77.285156 88.726562 77.234375 88.539062 C 77.195312 88.394531 77.164062 87.9375 77.160156 87.527344 L 77.160156 86.777344 L 70.199219 86.777344 L 70.199219 87.863281 M 77.761719 86.957031 C 77.761719 87.054688 77.933594 87.207031 78.148438 87.296875 C 78.652344 87.511719 78.730469 87.605469 79.96875 89.546875 L 81.007812 91.183594 L 80.972656 92.417969 L 80.941406 93.652344 L 80.429688 93.828125 C 79.386719 94.1875 79.777344 94.316406 81.78125 94.28125 C 83.6875 94.246094 84.027344 94.148438 83.203125 93.863281 C 82.585938 93.648438 82.5625 93.589844 82.5625 92.128906 L 82.558594 90.847656 L 83.371094 89.523438 C 84.394531 87.847656 84.753906 87.414062 85.203125 87.316406 C 85.449219 87.261719 85.558594 87.164062 85.558594 87.007812 C 85.558594 86.792969 85.460938 86.777344 84.050781 86.777344 C 82.476562 86.777344 81.984375 87.015625 83.011719 87.28125 C 83.496094 87.40625 83.511719 87.648438 83.078125 88.417969 C 82.898438 88.730469 82.609375 89.246094 82.433594 89.5625 L 82.117188 90.136719 L 81.796875 89.71875 C 81.625 89.492188 81.480469 89.28125 81.480469 89.25 C 81.480469 89.222656 81.289062 88.886719 81.058594 88.503906 C 80.445312 87.488281 80.480469 87.371094 81.417969 87.230469 C 81.550781 87.210938 81.675781 87.101562 81.699219 86.984375 C 81.734375 86.796875 81.574219 86.777344 79.75 86.777344 C 78.070312 86.777344 77.761719 86.804688 77.761719 86.957031 M 96.839844 87.074219 C 96.839844 87.171875 96.988281 87.289062 97.171875 87.332031 C 97.808594 87.484375 97.800781 87.433594 97.800781 90.597656 C 97.800781 93.816406 97.773438 93.949219 97.089844 93.949219 C 96.898438 93.949219 96.835938 94.011719 96.863281 94.160156 C 96.929688 94.507812 100.078125 94.539062 100.078125 94.191406 C 100.078125 94.035156 100 93.949219 99.859375 93.949219 C 99.351562 93.949219 99.230469 93.589844 99.265625 92.203125 L 99.300781 90.902344 L 99.742188 90.867188 C 100.507812 90.800781 101.121094 91.035156 101.261719 91.441406 C 101.546875 92.257812 101.761719 91.875 101.761719 90.542969 C 101.761719 89.304688 101.5625 88.828125 101.339844 89.527344 C 101.1875 90.007812 100.9375 90.125 100.070312 90.125 L 99.238281 90.125 L 99.238281 87.613281 L 100.328125 87.613281 C 101.574219 87.613281 101.832031 87.714844 102.070312 88.28125 C 102.382812 89.023438 102.617188 88.8125 102.574219 87.824219 L 102.539062 86.957031 L 99.691406 86.925781 C 97.222656 86.898438 96.839844 86.917969 96.839844 87.074219 M 93.601562 87.699219 C 95.273438 88.65625 95.25 92.574219 93.566406 93.59375 C 92.132812 94.464844 90.601562 92.890625 90.601562 90.542969 C 90.601562 88.25 92.089844 86.835938 93.601562 87.699219 M 56.914062 87.6875 C 58.421875 88.441406 57.671875 90.539062 55.964844 90.34375 L 55.621094 90.304688 L 55.585938 89.058594 C 55.539062 87.386719 55.792969 87.125 56.914062 87.6875 M 85.621094 97.65625 C 85.550781 97.769531 85.003906 98.035156 84.160156 98.363281 C 83.871094 98.476562 83.769531 98.601562 83.730469 98.890625 C 83.683594 99.214844 82.03125 103.839844 81.71875 104.527344 C 81.65625 104.660156 81.476562 105.144531 81.316406 105.605469 C 80.433594 108.128906 80.246094 108.457031 79.601562 108.597656 C 78.910156 108.742188 78.703125 108.882812 78.742188 109.160156 C 78.78125 109.429688 82.378906 109.644531 83.257812 109.429688 C 83.78125 109.300781 83.550781 108.851562 82.894531 108.710938 C 81.902344 108.5 81.730469 108.082031 82.164062 106.917969 L 82.386719 106.320312 L 86.378906 106.257812 L 86.5625 106.828125 C 87.019531 108.234375 86.957031 108.472656 86.089844 108.6875 C 85.628906 108.800781 85.492188 108.886719 85.460938 109.097656 C 85.40625 109.492188 85.527344 109.5 90.601562 109.460938 L 95.21875 109.429688 L 95.257812 109.117188 C 95.292969 108.789062 95.070312 108.65625 94.476562 108.652344 C 93.96875 108.652344 93.605469 108.390625 93.480469 107.945312 C 93.335938 107.421875 93.316406 101.121094 93.464844 101.121094 C 93.554688 101.121094 96.023438 104.101562 99.230469 108.085938 C 100.296875 109.410156 100.503906 109.609375 100.808594 109.609375 L 101.160156 109.609375 L 101.160156 108.742188 C 101.164062 108.265625 101.214844 105.945312 101.28125 103.582031 C 101.414062 98.761719 101.40625 98.789062 102.242188 98.65625 C 102.671875 98.589844 102.71875 98.546875 102.71875 98.234375 L 102.71875 97.890625 L 98.21875 97.953125 L 98.183594 98.28125 C 98.148438 98.582031 98.179688 98.613281 98.542969 98.617188 C 99.296875 98.632812 99.765625 98.875 99.921875 99.328125 C 100.09375 99.828125 100.140625 105.425781 99.972656 105.425781 C 99.914062 105.425781 99.382812 104.820312 98.789062 104.082031 C 98.199219 103.339844 97.207031 102.109375 96.585938 101.347656 C 95.96875 100.582031 95.121094 99.492188 94.707031 98.925781 L 93.957031 97.894531 L 92.292969 97.894531 C 90.921875 97.894531 90.613281 97.925781 90.554688 98.074219 C 90.4375 98.378906 90.59375 98.570312 91.070312 98.714844 C 91.320312 98.789062 91.667969 98.960938 91.84375 99.097656 L 92.160156 99.347656 L 92.152344 101.398438 C 92.136719 105.390625 91.984375 108.28125 91.777344 108.488281 C 91.125 109.136719 89.621094 108.570312 89.242188 107.535156 C 89.023438 106.941406 86.496094 99.207031 86.199219 98.222656 C 86.003906 97.582031 85.792969 97.375 85.621094 97.65625 M 42.71875 97.824219 C 36.859375 99.109375 36.746094 108.359375 42.574219 109.59375 C 44.945312 110.09375 47.113281 109.351562 48.410156 107.589844 C 48.921875 106.898438 48.929688 106.824219 48.539062 106.570312 C 48.246094 106.378906 48.234375 106.386719 47.488281 107.144531 C 44.558594 110.117188 40.316406 107.195312 40.921875 102.617188 C 41.488281 98.34375 46.136719 97.492188 47.882812 101.34375 C 48.160156 101.957031 48.28125 102.042969 48.574219 101.859375 C 48.738281 101.753906 48.648438 98.492188 48.480469 98.492188 C 48.433594 98.492188 48.300781 98.601562 48.179688 98.730469 C 47.921875 99.015625 47.785156 99.027344 47.53125 98.800781 C 46.539062 97.914062 44.347656 97.46875 42.71875 97.824219 M 72.160156 97.824219 C 66.328125 99.234375 66.527344 108.53125 72.410156 109.597656 C 74.007812 109.886719 75.5625 109.6875 77.03125 109 C 78.289062 108.414062 78.234375 108.507812 78.238281 106.914062 C 78.242188 105.488281 78.367188 105.117188 78.871094 105.042969 C 79.0625 105.015625 79.152344 104.914062 79.179688 104.679688 L 79.214844 104.347656 L 74.640625 104.347656 L 74.640625 104.707031 C 74.640625 105.03125 74.675781 105.066406 75.03125 105.070312 C 76.53125 105.078125 76.472656 107.589844 74.953125 108.378906 C 72.230469 109.796875 69.503906 105.570312 70.671875 101.746094 C 71.792969 98.070312 75.644531 97.777344 77.398438 101.238281 C 78.015625 102.460938 78.179688 102.253906 78.179688 100.261719 C 78.179688 98.511719 78.132812 98.335938 77.761719 98.671875 C 77.527344 98.882812 77.496094 98.875 76.589844 98.429688 C 75.09375 97.691406 73.570312 97.484375 72.160156 97.824219 M 17.582031 98.132812 C 17.472656 98.472656 17.570312 98.570312 18.113281 98.65625 C 18.933594 98.789062 18.933594 98.769531 18.710938 104.46875 C 18.558594 108.386719 18.539062 108.484375 17.804688 108.667969 C 17.335938 108.785156 17.28125 108.835938 17.28125 109.144531 L 17.28125 109.488281 L 21.238281 109.488281 L 21.238281 109.132812 C 21.238281 108.808594 21.195312 108.769531 20.753906 108.699219 C 19.933594 108.566406 19.917969 108.511719 19.925781 105.128906 C 19.933594 101.933594 20.023438 100.941406 20.246094 101.480469 C 20.316406 101.644531 20.652344 102.453125 20.996094 103.273438 C 21.339844 104.09375 21.691406 104.929688 21.777344 105.125 C 21.863281 105.324219 22.152344 106.023438 22.417969 106.679688 C 23.667969 109.769531 23.539062 109.542969 24.078125 109.585938 C 24.6875 109.628906 24.628906 109.710938 25.738281 107.277344 C 26.25 106.160156 26.800781 104.949219 26.96875 104.589844 C 27.132812 104.226562 27.417969 103.609375 27.597656 103.214844 C 28.746094 100.695312 28.679688 100.613281 28.679688 104.492188 C 28.679688 108.328125 28.636719 108.515625 27.742188 108.6875 C 27.273438 108.78125 27.230469 108.816406 27.261719 109.109375 L 27.300781 109.429688 L 32.21875 109.429688 L 32.21875 109.144531 C 32.21875 108.839844 32.054688 108.707031 31.550781 108.601562 C 30.988281 108.484375 30.960938 108.242188 30.960938 103.519531 C 30.960938 98.667969 30.917969 98.929688 31.75 98.757812 C 32.167969 98.671875 32.21875 98.621094 32.21875 98.308594 L 32.21875 97.953125 L 30.527344 97.921875 C 28.570312 97.882812 28.765625 97.773438 28.105469 99.269531 C 27.84375 99.859375 27.492188 100.640625 27.324219 101.003906 C 27.160156 101.363281 26.78125 102.199219 26.484375 102.855469 C 25.214844 105.671875 24.816406 106.519531 24.78125 106.476562 C 24.765625 106.457031 24.308594 105.363281 23.765625 104.050781 C 23.222656 102.734375 22.710938 101.5 22.625 101.300781 C 22.542969 101.105469 22.1875 100.257812 21.839844 99.417969 L 21.207031 97.894531 L 19.429688 97.894531 C 17.765625 97.894531 17.652344 97.910156 17.582031 98.132812 M 33.441406 97.972656 C 33.183594 98.230469 33.375 98.605469 33.824219 98.726562 C 34.644531 98.945312 34.617188 98.789062 34.652344 103.5625 C 34.6875 108.554688 34.699219 108.496094 33.683594 108.710938 C 33.398438 108.769531 33.351562 108.832031 33.382812 109.105469 L 33.421875 109.429688 L 38.101562 109.429688 L 38.101562 109.132812 C 38.101562 108.886719 38.011719 108.804688 37.621094 108.679688 C 36.8125 108.417969 36.839844 108.589844 36.839844 103.667969 C 36.839844 98.660156 36.808594 98.835938 37.738281 98.664062 C 38.121094 98.59375 38.167969 98.542969 38.136719 98.269531 L 38.101562 97.953125 L 35.8125 97.921875 C 34.554688 97.902344 33.488281 97.925781 33.441406 97.972656 M 49.761719 97.972656 C 49.492188 98.238281 49.699219 98.566406 50.222656 98.707031 C 51 98.914062 51 98.90625 51 103.730469 C 50.996094 108.4375 50.984375 108.523438 50.296875 108.664062 C 49.808594 108.765625 49.644531 108.914062 49.699219 109.207031 C 49.742188 109.414062 49.902344 109.429688 52.140625 109.429688 L 54.539062 109.429688 L 54.578125 109.105469 C 54.617188 108.765625 54.644531 108.785156 53.71875 108.59375 C 53.257812 108.5 53.160156 108.070312 53.160156 106.089844 C 53.160156 104.289062 53.164062 104.257812 53.429688 104.183594 C 53.792969 104.089844 57.589844 104.089844 58.074219 104.1875 L 58.460938 104.261719 L 58.417969 106.230469 C 58.375 108.386719 58.277344 108.652344 57.519531 108.652344 C 56.890625 108.652344 56.460938 109.230469 56.949219 109.417969 C 57.199219 109.511719 61.484375 109.511719 61.730469 109.417969 C 62.191406 109.238281 61.796875 108.652344 61.214844 108.652344 C 60.625 108.652344 60.601562 108.445312 60.601562 103.71875 C 60.601562 98.828125 60.585938 98.917969 61.390625 98.714844 C 61.878906 98.59375 61.929688 98.546875 61.894531 98.265625 L 61.859375 97.953125 L 56.820312 97.953125 L 56.820312 98.246094 C 56.820312 98.492188 56.90625 98.558594 57.40625 98.6875 C 58.355469 98.925781 58.371094 98.96875 58.421875 100.992188 L 58.464844 102.769531 L 57.132812 102.8125 C 56.398438 102.839844 55.207031 102.839844 54.480469 102.8125 L 53.160156 102.769531 L 53.160156 101.042969 C 53.160156 99.085938 53.269531 98.835938 54.171875 98.664062 C 54.5625 98.59375 54.609375 98.546875 54.578125 98.269531 L 54.539062 97.953125 L 52.191406 97.921875 C 50.902344 97.902344 49.808594 97.925781 49.761719 97.972656 M 62.839844 97.972656 C 62.566406 98.25 62.777344 98.613281 63.285156 98.742188 C 64.128906 98.953125 64.128906 98.953125 64.175781 103.511719 C 64.21875 108.019531 64.175781 108.386719 63.539062 108.574219 C 62.9375 108.75 62.820312 108.84375 62.820312 109.144531 L 62.820312 109.429688 L 65.191406 109.460938 L 67.558594 109.492188 L 67.558594 109.136719 C 67.558594 108.828125 67.507812 108.773438 67.148438 108.707031 C 66.289062 108.542969 66.304688 108.636719 66.261719 103.949219 C 66.21875 99.015625 66.234375 98.914062 67.027344 98.703125 C 67.496094 98.578125 67.558594 98.523438 67.558594 98.226562 L 67.558594 97.894531 L 65.238281 97.894531 C 63.964844 97.894531 62.882812 97.929688 62.839844 97.972656 M 85.3125 102.761719 C 85.695312 103.890625 85.980469 104.847656 85.945312 104.882812 C 85.839844 104.984375 83.058594 104.957031 82.996094 104.851562 C 82.945312 104.769531 83.304688 103.664062 84.203125 101.144531 C 84.472656 100.394531 84.546875 100.503906 85.3125 102.761719 "/>
<path style=" stroke:none;fill-rule:evenodd;fill:rgb(1.568628%,14.117648%,29.803923%);fill-opacity:1;" d="M 0 63.410156 L 0 126.820312 L 120 126.820312 L 120 0 L 0 0 L 0 63.410156 M 43.617188 18.675781 C 44.203125 19.480469 45.554688 21.351562 46.621094 22.832031 C 47.6875 24.308594 49.734375 27.132812 51.171875 29.105469 C 52.605469 31.078125 53.988281 32.988281 54.25 33.347656 C 57.296875 37.597656 59.917969 41.109375 60 41.058594 C 60.085938 41.003906 63.132812 36.851562 65.992188 32.886719 C 66.292969 32.46875 66.761719 31.824219 67.027344 31.453125 C 67.71875 30.5 73.863281 22.070312 74.449219 21.265625 C 74.71875 20.898438 75.480469 19.839844 76.140625 18.910156 L 77.339844 17.222656 L 90.03125 17.21875 L 102.722656 17.210938 L 102.691406 25.789062 L 102.660156 34.363281 L 99.449219 34.398438 L 96.238281 34.429688 L 96.238281 60.835938 L 102.660156 60.898438 L 102.722656 78.054688 L 86.609375 78.023438 L 70.5 77.992188 L 70.46875 69.578125 C 70.445312 63.464844 70.476562 61.121094 70.574219 61.003906 C 70.683594 60.871094 71.378906 60.839844 74.054688 60.839844 L 77.398438 60.839844 L 77.398438 43.839844 L 76.710938 44.746094 C 76.332031 45.246094 75.640625 46.167969 75.179688 46.800781 C 74.71875 47.433594 74.226562 48.09375 74.085938 48.269531 C 73.949219 48.445312 71.792969 51.359375 69.296875 54.746094 C 66.800781 58.128906 64.160156 61.707031 63.425781 62.691406 C 62.691406 63.679688 61.605469 65.144531 61.015625 65.945312 C 60.425781 66.75 59.902344 67.394531 59.851562 67.378906 C 59.804688 67.367188 56.871094 63.402344 53.339844 58.570312 C 49.804688 53.738281 46.730469 49.542969 46.507812 49.246094 C 46.289062 48.949219 45.601562 48.007812 44.980469 47.15625 C 42.90625 44.289062 42.675781 43.988281 42.578125 43.988281 C 42.523438 43.988281 42.480469 47.777344 42.480469 52.410156 L 42.480469 60.835938 L 49.378906 60.898438 L 49.410156 69.476562 L 49.441406 78.050781 L 17.277344 78.050781 L 17.308594 69.476562 L 17.339844 60.898438 L 23.761719 60.835938 L 23.761719 34.429688 L 20.550781 34.398438 L 17.339844 34.363281 L 17.308594 25.789062 L 17.277344 17.210938 L 42.550781 17.210938 L 43.617188 18.675781 M 64.398438 86.894531 C 64.84375 87.089844 64.914062 87.09375 65.078125 86.929688 C 65.300781 86.707031 65.433594 87.214844 65.449219 88.378906 C 65.460938 89.230469 65.28125 89.355469 64.984375 88.703125 C 64.257812 87.097656 61.921875 86.859375 61.921875 88.394531 C 61.921875 88.90625 62.433594 89.335938 63.472656 89.695312 C 65.394531 90.363281 66.140625 91.351562 65.765625 92.738281 C 65.121094 95.121094 60.722656 95.175781 60.425781 92.804688 C 60.300781 91.835938 60.746094 91.578125 61.054688 92.4375 C 61.550781 93.796875 63.78125 94.300781 64.382812 93.183594 C 64.824219 92.367188 64.375 91.78125 62.875 91.207031 C 61.632812 90.734375 61.121094 90.363281 60.828125 89.71875 C 59.898438 87.679688 62.136719 85.910156 64.398438 86.894531 M 94.355469 86.992188 C 96.289062 87.847656 97.1875 90.53125 96.203125 92.535156 C 94.519531 95.972656 89.269531 94.976562 88.855469 91.140625 C 88.511719 87.957031 91.476562 85.726562 94.355469 86.992188 M 20.617188 86.980469 C 20.597656 87.09375 20.402344 87.226562 20.183594 87.285156 C 19.601562 87.433594 19.535156 87.742188 19.582031 90.066406 C 19.636719 92.957031 19.988281 93.644531 21.410156 93.648438 C 23.121094 93.652344 23.445312 93.070312 23.5 89.878906 L 23.539062 87.542969 L 23.226562 87.398438 C 23.050781 87.320312 22.832031 87.257812 22.734375 87.257812 C 22.636719 87.257812 22.558594 87.148438 22.558594 87.015625 C 22.558594 86.792969 22.640625 86.777344 24 86.777344 C 25.328125 86.777344 25.441406 86.796875 25.441406 87.003906 C 25.441406 87.152344 25.328125 87.25 25.09375 87.296875 C 24.621094 87.390625 24.59375 87.503906 24.46875 89.945312 C 24.277344 93.625 23.484375 94.660156 20.960938 94.527344 C 18.609375 94.40625 18.007812 93.40625 18.003906 89.625 C 18 87.507812 17.933594 87.257812 17.390625 87.257812 C 17.238281 87.257812 17.160156 87.171875 17.160156 87.015625 C 17.160156 86.789062 17.238281 86.777344 18.910156 86.777344 C 20.484375 86.777344 20.652344 86.796875 20.617188 86.980469 M 29.320312 88.125 C 30.925781 90.222656 32.03125 91.558594 32.160156 91.558594 C 32.234375 91.558594 32.28125 90.839844 32.28125 89.667969 C 32.28125 87.535156 32.230469 87.390625 31.492188 87.269531 C 31.179688 87.21875 31.007812 87.121094 30.984375 86.984375 C 30.945312 86.796875 31.085938 86.777344 32.519531 86.777344 C 33.957031 86.777344 34.09375 86.796875 34.058594 86.988281 C 34.035156 87.101562 33.902344 87.214844 33.757812 87.234375 C 33.183594 87.316406 33.085938 88.171875 33.011719 93.6875 C 32.996094 94.867188 32.726562 94.726562 31.082031 92.695312 C 30.335938 91.773438 29.347656 90.554688 28.886719 89.980469 C 28.421875 89.40625 27.996094 88.96875 27.941406 89 C 27.800781 89.085938 27.8125 93.027344 27.953125 93.398438 C 28.03125 93.605469 28.222656 93.742188 28.554688 93.84375 C 29.5625 94.144531 29.15625 94.320312 27.539062 94.28125 C 26.046875 94.25 25.648438 94.117188 26.382812 93.90625 C 26.9375 93.746094 27 93.386719 27 90.34375 L 27 87.609375 L 26.550781 87.402344 C 25.582031 86.957031 25.761719 86.777344 27.171875 86.777344 L 28.289062 86.777344 L 29.320312 88.125 M 38.039062 86.957031 C 38.039062 87.054688 37.859375 87.207031 37.636719 87.300781 C 37.105469 87.523438 37.078125 87.703125 37.09375 90.648438 C 37.105469 93.4375 37.132812 93.589844 37.648438 93.832031 C 38.433594 94.195312 38.140625 94.308594 36.421875 94.308594 C 34.695312 94.308594 34.371094 94.179688 35.191406 93.820312 L 35.578125 93.652344 L 35.613281 90.78125 C 35.652344 87.488281 35.652344 87.476562 35.164062 87.292969 C 34.269531 86.957031 34.710938 86.777344 36.421875 86.777344 C 37.773438 86.777344 38.039062 86.808594 38.039062 86.957031 M 42.359375 86.960938 C 42.359375 87.148438 42.296875 87.183594 41.730469 87.308594 C 41.238281 87.417969 41.292969 87.84375 42.089844 90.15625 C 42.851562 92.363281 42.855469 92.371094 43.183594 91.648438 C 44.570312 88.566406 44.777344 87.539062 44.058594 87.320312 C 43.128906 87.039062 43.582031 86.777344 45 86.777344 C 46.417969 86.777344 46.863281 87.042969 45.96875 87.355469 C 45.53125 87.507812 45.472656 87.617188 43.917969 91.320312 C 42.328125 95.105469 42.300781 95.132812 41.722656 93.515625 C 41.425781 92.683594 41.289062 92.328125 40.917969 91.378906 C 40.867188 91.25 40.546875 90.386719 40.207031 89.46875 C 39.609375 87.851562 39.539062 87.734375 38.789062 87.125 C 38.453125 86.855469 38.847656 86.777344 40.566406 86.777344 C 42.097656 86.777344 42.359375 86.804688 42.359375 86.960938 M 52.078125 87.675781 C 52.078125 88.6875 51.859375 88.894531 51.554688 88.167969 C 51.34375 87.667969 50.894531 87.496094 49.78125 87.496094 L 48.960938 87.496094 L 48.960938 90.125 L 49.492188 90.125 C 50.226562 90.125 50.59375 89.960938 50.816406 89.53125 C 51.144531 88.898438 51.238281 89.109375 51.238281 90.484375 C 51.238281 91.828125 51.113281 92.152344 50.859375 91.4375 C 50.695312 90.964844 50.441406 90.84375 49.628906 90.84375 L 48.960938 90.84375 L 48.960938 92.074219 C 48.960938 93.59375 48.957031 93.589844 50.277344 93.589844 C 51.449219 93.589844 51.761719 93.449219 52.035156 92.800781 C 52.214844 92.367188 52.558594 92.25 52.558594 92.617188 C 52.558594 92.738281 52.523438 93.167969 52.484375 93.574219 L 52.40625 94.308594 L 49.484375 94.308594 C 46.964844 94.308594 46.558594 94.285156 46.558594 94.128906 C 46.558594 94.03125 46.644531 93.949219 46.746094 93.949219 C 46.847656 93.949219 47.0625 93.816406 47.226562 93.65625 L 47.519531 93.363281 L 47.519531 90.601562 C 47.519531 87.644531 47.488281 87.472656 46.921875 87.273438 C 46.722656 87.207031 46.558594 87.066406 46.558594 86.964844 C 46.558594 86.800781 46.90625 86.777344 49.320312 86.777344 L 52.078125 86.777344 L 52.078125 87.675781 M 58.394531 87.160156 C 59.484375 87.863281 59.433594 89.695312 58.304688 90.46875 C 57.726562 90.867188 57.707031 90.773438 58.71875 92.457031 C 59.375 93.546875 59.675781 93.933594 59.96875 94.070312 C 60.566406 94.347656 60.464844 94.546875 59.730469 94.546875 C 58.484375 94.539062 57.859375 94.042969 57.09375 92.453125 C 56.042969 90.265625 55.3125 90.578125 55.621094 93.078125 C 55.691406 93.652344 55.726562 93.710938 56.109375 93.851562 C 56.988281 94.167969 56.613281 94.308594 54.898438 94.308594 C 53.175781 94.308594 52.851562 94.179688 53.671875 93.820312 L 54.058594 93.652344 L 54.09375 90.566406 L 54.125 87.484375 L 53.703125 87.308594 C 53.46875 87.210938 53.28125 87.046875 53.28125 86.945312 C 53.28125 86.566406 57.769531 86.757812 58.394531 87.160156 M 69.480469 86.964844 C 69.480469 87.066406 69.316406 87.207031 69.121094 87.273438 C 68.632812 87.441406 68.628906 87.492188 68.667969 90.78125 L 68.699219 93.652344 L 69.085938 93.832031 C 69.875 94.195312 69.582031 94.308594 67.859375 94.308594 C 66.148438 94.308594 65.71875 94.140625 66.648438 93.835938 C 67.207031 93.652344 67.199219 93.679688 67.199219 90.683594 C 67.195312 87.613281 67.183594 87.542969 66.644531 87.316406 C 65.742188 86.941406 66.113281 86.777344 67.859375 86.777344 C 69.246094 86.777344 69.480469 86.804688 69.480469 86.964844 M 77.160156 87.527344 C 77.164062 87.9375 77.195312 88.394531 77.234375 88.539062 C 77.285156 88.726562 77.246094 88.832031 77.101562 88.886719 C 76.867188 88.976562 76.683594 88.757812 76.683594 88.378906 C 76.679688 87.902344 76.269531 87.691406 75.324219 87.683594 L 74.460938 87.675781 L 74.429688 90.589844 C 74.394531 93.714844 74.433594 93.949219 75.019531 93.949219 C 75.140625 93.949219 75.238281 94.03125 75.238281 94.128906 C 75.238281 94.28125 74.984375 94.308594 73.671875 94.308594 C 72.46875 94.308594 72.113281 94.273438 72.148438 94.160156 C 72.175781 94.078125 72.316406 93.992188 72.460938 93.972656 C 72.925781 93.902344 72.964844 93.609375 72.933594 90.578125 L 72.898438 87.675781 L 72.027344 87.683594 C 71.042969 87.691406 70.824219 87.816406 70.691406 88.46875 C 70.5 89.398438 70.199219 89.03125 70.199219 87.863281 L 70.199219 86.777344 L 77.160156 86.777344 L 77.160156 87.527344 M 81.699219 86.984375 C 81.675781 87.101562 81.550781 87.210938 81.417969 87.230469 C 80.480469 87.371094 80.445312 87.488281 81.058594 88.503906 C 81.289062 88.886719 81.480469 89.222656 81.480469 89.25 C 81.480469 89.28125 81.625 89.492188 81.796875 89.71875 L 82.117188 90.136719 L 82.433594 89.5625 C 82.609375 89.246094 82.898438 88.730469 83.078125 88.417969 C 83.511719 87.648438 83.496094 87.40625 83.011719 87.28125 C 81.984375 87.015625 82.476562 86.777344 84.050781 86.777344 C 85.460938 86.777344 85.558594 86.792969 85.558594 87.007812 C 85.558594 87.164062 85.449219 87.261719 85.203125 87.316406 C 84.753906 87.414062 84.394531 87.847656 83.371094 89.523438 L 82.558594 90.847656 L 82.5625 92.128906 C 82.5625 93.589844 82.585938 93.648438 83.203125 93.863281 C 84.027344 94.148438 83.6875 94.246094 81.78125 94.28125 C 79.777344 94.316406 79.386719 94.1875 80.429688 93.828125 L 80.941406 93.652344 L 80.972656 92.417969 L 81.007812 91.183594 L 79.96875 89.546875 C 78.730469 87.605469 78.652344 87.511719 78.148438 87.296875 C 77.230469 86.910156 77.636719 86.777344 79.75 86.777344 C 81.574219 86.777344 81.734375 86.796875 81.699219 86.984375 M 102.574219 87.824219 C 102.617188 88.8125 102.382812 89.023438 102.070312 88.28125 C 101.832031 87.714844 101.574219 87.613281 100.328125 87.613281 L 99.238281 87.613281 L 99.238281 90.125 L 100.070312 90.125 C 100.9375 90.125 101.1875 90.007812 101.339844 89.527344 C 101.5625 88.828125 101.761719 89.304688 101.761719 90.542969 C 101.761719 91.875 101.546875 92.257812 101.261719 91.441406 C 101.121094 91.035156 100.507812 90.800781 99.742188 90.867188 L 99.300781 90.902344 L 99.265625 92.203125 C 99.230469 93.589844 99.351562 93.949219 99.859375 93.949219 C 100 93.949219 100.078125 94.035156 100.078125 94.191406 C 100.078125 94.539062 96.929688 94.507812 96.863281 94.160156 C 96.835938 94.011719 96.898438 93.949219 97.089844 93.949219 C 97.773438 93.949219 97.800781 93.816406 97.800781 90.597656 C 97.800781 87.433594 97.808594 87.484375 97.171875 87.332031 C 96.988281 87.289062 96.839844 87.171875 96.839844 87.074219 C 96.839844 86.917969 97.222656 86.898438 99.691406 86.925781 L 102.539062 86.957031 L 102.574219 87.824219 M 92.324219 87.464844 C 90.65625 87.757812 89.996094 91.265625 91.285156 92.972656 C 92.722656 94.871094 94.851562 93.445312 94.835938 90.59375 C 94.824219 88.542969 93.753906 87.210938 92.324219 87.464844 M 55.613281 87.652344 C 55.578125 87.738281 55.566406 88.371094 55.585938 89.058594 L 55.621094 90.304688 L 55.964844 90.34375 C 57.671875 90.539062 58.421875 88.441406 56.914062 87.6875 C 56.449219 87.453125 55.695312 87.433594 55.613281 87.652344 M 86.199219 98.222656 C 86.496094 99.207031 89.023438 106.941406 89.242188 107.535156 C 89.621094 108.570312 91.125 109.136719 91.777344 108.488281 C 91.984375 108.28125 92.136719 105.390625 92.152344 101.398438 L 92.160156 99.347656 L 91.84375 99.097656 C 91.667969 98.960938 91.320312 98.789062 91.070312 98.714844 C 90.59375 98.570312 90.4375 98.378906 90.554688 98.074219 C 90.613281 97.925781 90.921875 97.894531 92.292969 97.894531 L 93.957031 97.894531 L 94.707031 98.925781 C 95.121094 99.492188 95.96875 100.582031 96.585938 101.347656 C 97.207031 102.109375 98.199219 103.339844 98.789062 104.082031 C 99.382812 104.820312 99.914062 105.425781 99.972656 105.425781 C 100.140625 105.425781 100.09375 99.828125 99.921875 99.328125 C 99.765625 98.875 99.296875 98.632812 98.542969 98.617188 C 98.179688 98.613281 98.148438 98.582031 98.183594 98.28125 L 98.21875 97.953125 L 102.71875 97.890625 L 102.71875 98.234375 C 102.71875 98.546875 102.671875 98.589844 102.242188 98.65625 C 101.40625 98.789062 101.414062 98.761719 101.28125 103.582031 C 101.214844 105.945312 101.164062 108.265625 101.160156 108.742188 L 101.160156 109.609375 L 100.808594 109.609375 C 100.503906 109.609375 100.296875 109.410156 99.230469 108.085938 C 96.023438 104.101562 93.554688 101.121094 93.464844 101.121094 C 93.316406 101.121094 93.335938 107.421875 93.480469 107.945312 C 93.605469 108.390625 93.96875 108.652344 94.476562 108.652344 C 95.070312 108.65625 95.292969 108.789062 95.257812 109.117188 L 95.21875 109.429688 L 90.601562 109.460938 C 85.527344 109.5 85.40625 109.492188 85.460938 109.097656 C 85.492188 108.886719 85.628906 108.800781 86.089844 108.6875 C 86.957031 108.472656 87.019531 108.234375 86.5625 106.828125 L 86.378906 106.257812 L 82.386719 106.320312 L 82.164062 106.917969 C 81.730469 108.082031 81.902344 108.5 82.894531 108.710938 C 83.550781 108.851562 83.78125 109.300781 83.257812 109.429688 C 82.378906 109.644531 78.78125 109.429688 78.742188 109.160156 C 78.703125 108.882812 78.910156 108.742188 79.601562 108.597656 C 80.246094 108.457031 80.433594 108.128906 81.316406 105.605469 C 81.476562 105.144531 81.65625 104.660156 81.71875 104.527344 C 82.03125 103.839844 83.683594 99.214844 83.730469 98.890625 C 83.769531 98.601562 83.871094 98.476562 84.160156 98.363281 C 85.003906 98.035156 85.550781 97.769531 85.621094 97.65625 C 85.792969 97.375 86.003906 97.582031 86.199219 98.222656 M 45.300781 97.816406 C 46.019531 97.972656 47.171875 98.480469 47.53125 98.800781 C 47.785156 99.027344 47.921875 99.015625 48.179688 98.730469 C 48.300781 98.601562 48.433594 98.492188 48.480469 98.492188 C 48.648438 98.492188 48.738281 101.753906 48.574219 101.859375 C 48.28125 102.042969 48.160156 101.957031 47.882812 101.34375 C 46.136719 97.492188 41.488281 98.34375 40.921875 102.617188 C 40.316406 107.195312 44.558594 110.117188 47.488281 107.144531 C 48.234375 106.386719 48.246094 106.378906 48.539062 106.570312 C 48.929688 106.824219 48.921875 106.898438 48.410156 107.589844 C 45.617188 111.382812 39.398438 109.976562 38.414062 105.328125 C 37.433594 100.703125 40.9375 96.882812 45.300781 97.816406 M 74.941406 97.816406 C 75.335938 97.902344 76.078125 98.179688 76.589844 98.429688 C 77.496094 98.875 77.527344 98.882812 77.761719 98.671875 C 78.132812 98.335938 78.179688 98.511719 78.179688 100.261719 C 78.179688 102.253906 78.015625 102.460938 77.398438 101.238281 C 75.644531 97.777344 71.792969 98.070312 70.671875 101.746094 C 69.503906 105.570312 72.230469 109.796875 74.953125 108.378906 C 76.472656 107.589844 76.53125 105.078125 75.03125 105.070312 C 74.675781 105.066406 74.640625 105.03125 74.640625 104.707031 L 74.640625 104.347656 L 79.214844 104.347656 L 79.179688 104.679688 C 79.152344 104.914062 79.0625 105.015625 78.871094 105.042969 C 78.367188 105.117188 78.242188 105.488281 78.238281 106.914062 C 78.234375 108.507812 78.289062 108.414062 77.03125 109 C 73.722656 110.546875 69.949219 109.546875 68.578125 106.765625 C 66.199219 101.925781 69.886719 96.738281 74.941406 97.816406 M 21.839844 99.417969 C 22.1875 100.257812 22.542969 101.105469 22.625 101.300781 C 22.710938 101.5 23.222656 102.734375 23.765625 104.050781 C 24.308594 105.363281 24.765625 106.457031 24.78125 106.476562 C 24.816406 106.519531 25.214844 105.671875 26.484375 102.855469 C 26.78125 102.199219 27.160156 101.363281 27.324219 101.003906 C 27.492188 100.640625 27.84375 99.859375 28.105469 99.269531 C 28.765625 97.773438 28.570312 97.882812 30.527344 97.921875 L 32.21875 97.953125 L 32.21875 98.308594 C 32.21875 98.621094 32.167969 98.671875 31.75 98.757812 C 30.917969 98.929688 30.960938 98.667969 30.960938 103.519531 C 30.960938 108.242188 30.988281 108.484375 31.550781 108.601562 C 32.054688 108.707031 32.21875 108.839844 32.21875 109.144531 L 32.21875 109.429688 L 27.300781 109.429688 L 27.261719 109.109375 C 27.230469 108.816406 27.273438 108.78125 27.742188 108.6875 C 28.636719 108.515625 28.679688 108.328125 28.679688 104.492188 C 28.679688 101.058594 28.652344 100.914062 28.183594 101.9375 C 28.039062 102.246094 27.777344 102.820312 27.597656 103.214844 C 27.417969 103.609375 27.132812 104.226562 26.96875 104.589844 C 26.800781 104.949219 26.25 106.160156 25.738281 107.277344 C 24.628906 109.710938 24.6875 109.628906 24.078125 109.585938 C 23.539062 109.542969 23.667969 109.769531 22.417969 106.679688 C 22.152344 106.023438 21.863281 105.324219 21.777344 105.125 C 21.691406 104.929688 21.339844 104.09375 20.996094 103.273438 C 20.652344 102.453125 20.316406 101.644531 20.246094 101.480469 C 20.023438 100.941406 19.933594 101.933594 19.925781 105.128906 C 19.917969 108.511719 19.933594 108.566406 20.753906 108.699219 C 21.195312 108.769531 21.238281 108.808594 21.238281 109.132812 L 21.238281 109.488281 L 17.28125 109.488281 L 17.28125 109.144531 C 17.28125 108.835938 17.335938 108.785156 17.804688 108.667969 C 18.539062 108.484375 18.558594 108.386719 18.710938 104.46875 C 18.933594 98.769531 18.933594 98.789062 18.113281 98.65625 C 17.570312 98.570312 17.472656 98.472656 17.582031 98.132812 C 17.652344 97.910156 17.765625 97.894531 19.429688 97.894531 L 21.207031 97.894531 L 21.839844 99.417969 M 38.136719 98.269531 C 38.167969 98.542969 38.121094 98.59375 37.738281 98.664062 C 36.808594 98.835938 36.839844 98.660156 36.839844 103.667969 C 36.839844 108.589844 36.8125 108.417969 37.621094 108.679688 C 38.011719 108.804688 38.101562 108.886719 38.101562 109.132812 L 38.101562 109.429688 L 33.421875 109.429688 L 33.382812 109.105469 C 33.351562 108.832031 33.398438 108.769531 33.683594 108.710938 C 34.699219 108.496094 34.6875 108.554688 34.652344 103.5625 C 34.617188 98.789062 34.644531 98.945312 33.824219 98.726562 C 33.457031 98.628906 33.359375 98.546875 33.359375 98.328125 C 33.359375 97.894531 33.402344 97.886719 35.8125 97.921875 L 38.101562 97.953125 L 38.136719 98.269531 M 54.578125 98.269531 C 54.609375 98.546875 54.5625 98.59375 54.171875 98.664062 C 53.269531 98.835938 53.160156 99.085938 53.160156 101.042969 L 53.160156 102.769531 L 54.480469 102.8125 C 55.207031 102.839844 56.398438 102.839844 57.132812 102.8125 L 58.464844 102.769531 L 58.421875 100.992188 C 58.371094 98.96875 58.355469 98.925781 57.40625 98.6875 C 56.90625 98.558594 56.820312 98.492188 56.820312 98.246094 L 56.820312 97.953125 L 61.859375 97.953125 L 61.894531 98.265625 C 61.929688 98.546875 61.878906 98.59375 61.390625 98.714844 C 60.585938 98.917969 60.601562 98.828125 60.601562 103.71875 C 60.601562 108.445312 60.625 108.652344 61.214844 108.652344 C 61.796875 108.652344 62.191406 109.238281 61.730469 109.417969 C 61.484375 109.511719 57.199219 109.511719 56.949219 109.417969 C 56.460938 109.230469 56.890625 108.652344 57.519531 108.652344 C 58.277344 108.652344 58.375 108.386719 58.417969 106.230469 L 58.460938 104.261719 L 58.074219 104.1875 C 57.589844 104.089844 53.792969 104.089844 53.429688 104.183594 C 53.164062 104.257812 53.160156 104.289062 53.160156 106.089844 C 53.160156 108.070312 53.257812 108.5 53.71875 108.59375 C 54.644531 108.785156 54.617188 108.765625 54.578125 109.105469 L 54.539062 109.429688 L 52.140625 109.429688 C 49.902344 109.429688 49.742188 109.414062 49.699219 109.207031 C 49.644531 108.914062 49.808594 108.765625 50.296875 108.664062 C 50.984375 108.523438 50.996094 108.4375 51 103.730469 C 51 98.90625 51 98.914062 50.222656 98.707031 C 49.792969 98.59375 49.679688 98.507812 49.679688 98.308594 C 49.679688 97.898438 49.738281 97.886719 52.191406 97.921875 L 54.539062 97.953125 L 54.578125 98.269531 M 67.558594 98.226562 C 67.558594 98.523438 67.496094 98.578125 67.027344 98.703125 C 66.234375 98.914062 66.21875 99.015625 66.261719 103.949219 C 66.304688 108.636719 66.289062 108.542969 67.148438 108.707031 C 67.507812 108.773438 67.558594 108.828125 67.558594 109.136719 L 67.558594 109.492188 L 65.191406 109.460938 L 62.820312 109.429688 L 62.820312 109.144531 C 62.820312 108.84375 62.9375 108.75 63.539062 108.574219 C 64.175781 108.386719 64.21875 108.019531 64.175781 103.511719 C 64.128906 98.953125 64.128906 98.953125 63.285156 98.742188 C 62.855469 98.632812 62.761719 98.558594 62.761719 98.332031 C 62.761719 97.898438 62.785156 97.894531 65.238281 97.894531 L 67.558594 97.894531 L 67.558594 98.226562 M 84.203125 101.144531 C 83.304688 103.664062 82.945312 104.769531 82.996094 104.851562 C 83.058594 104.957031 85.839844 104.984375 85.945312 104.882812 C 86.035156 104.789062 84.640625 100.714844 84.5 100.671875 C 84.4375 100.648438 84.304688 100.863281 84.203125 101.144531 "/>
</g>
</svg>
