<svg xmlns="http://www.w3.org/2000/svg" width="400" height="424.684"><g fill-rule="evenodd"><path d="M57.697 86.3 57.8 115l10.7.107 10.7.106v88.374l-10.7.106-10.7.107-.103 28.7-.102 28.7h107.21l-.102-28.7-.103-28.7-11.5-.106-11.5-.106v-28.194c0-15.507.147-28.194.327-28.194.329 0 1.097 1.016 8.012 10.6a834.51 834.51 0 0 0 5.093 7c.738.99 10.981 15.03 22.761 31.2s21.551 29.438 21.713 29.484c.162.047 1.907-2.113 3.878-4.8 1.972-2.686 5.586-7.584 8.033-10.884 2.446-3.3 11.254-15.27 19.574-26.6 8.32-11.33 15.505-21.082 15.968-21.67.463-.589 2.101-2.8 3.641-4.914a567.7 567.7 0 0 1 5.1-6.878l2.3-3.035V203.6h-11.151c-8.916 0-11.242.109-11.603.544-.328.396-.423 8.234-.349 28.7L235 261l53.703.101 53.702.102-.102-28.702-.103-28.701-10.7-.107-10.7-.106v-88.374l10.7-.106 10.7-.107.103-28.7.102-28.7-42.302.016-42.303.016-4 5.65a977.712 977.712 0 0 1-5.63 7.884 38774.51 38774.51 0 0 0-24.742 34.087c-.895 1.239-2.452 3.399-3.458 4.8-9.532 13.267-19.684 27.171-19.968 27.346-.281.173-9.014-11.577-19.173-25.799-.864-1.21-5.482-7.6-10.262-14.2-4.781-6.6-11.603-16.05-15.162-21a6900.982 6900.982 0 0 0-10.018-13.9l-3.547-4.9H57.595l.102 28.7" fill="#fbcb04"/><path d="M207.523 290.218c-8.386 2.649-7.179 11.46 2.054 15.003 5.012 1.924 6.503 3.882 5.034 6.611-2.012 3.736-9.441 2.061-11.09-2.5-1.037-2.868-2.513-2.005-2.108 1.232.992 7.941 15.654 7.758 17.803-.222 1.249-4.641-1.233-7.944-7.645-10.177-3.458-1.204-5.171-2.649-5.171-4.363 0-5.13 7.794-4.338 10.218 1.039.985 2.183 1.589 1.761 1.547-1.081-.057-3.895-.492-5.604-1.238-4.859-.553.554-.781.543-2.271-.11-2.42-1.06-4.95-1.263-7.133-.573m98.036.13c-11.518 2.451-12.897 19.897-1.988 25.13 8.917 4.277 18.236-1.908 18.201-12.078-.032-9.3-7.101-14.991-16.213-13.052M57.2 291.2c0 .523.267.8.771.8 1.814 0 2.028.835 2.037 7.929.016 12.649 2.026 15.993 9.862 16.405 8.41.442 11.054-3.027 11.689-15.334.422-8.173.512-8.554 2.092-8.87.775-.155 1.149-.474 1.149-.98 0-.692-.373-.75-4.8-.75-4.533 0-4.8.044-4.8.8 0 .44.262.8.581.8.32 0 1.056.216 1.635.48l1.054.48-.135 7.82c-.184 10.672-1.265 12.629-6.964 12.613-4.743-.014-5.912-2.311-6.103-11.993-.154-7.775.069-8.805 2.016-9.31.73-.189 1.373-.641 1.445-1.015.117-.608-.446-.675-5.7-.675-5.562 0-5.829.037-5.829.8m29.45-.481c-.312.505.233 1.027 1.85 1.775l1.5.693v9.147c0 10.187-.205 11.377-2.051 11.914-2.456.715-1.123 1.153 3.85 1.264 5.392.121 6.739-.465 3.383-1.47-1.112-.333-1.738-.799-2-1.49-.471-1.239-.511-14.425-.044-14.714.186-.114 1.602 1.36 3.146 3.277l7.321 9.085c5.479 6.8 6.376 7.264 6.429 3.327.252-18.468.582-21.33 2.491-21.603.477-.068.927-.439 1-.824.122-.638-.333-.7-5.125-.7-4.775 0-5.246.064-5.125.694.088.459.662.78 1.697.948 2.469.401 2.628.888 2.628 8.034 0 3.919-.151 6.324-.397 6.324-.434 0-4.121-4.475-9.472-11.5l-3.429-4.5h-3.727c-2.05 0-3.817.144-3.925.319m29.35.316c0 .349.547.841 1.216 1.093 1.622.613 1.626.646 1.497 11.672l-.113 9.6-1.3.572c-2.727 1.2-1.65 1.628 4.1 1.628 5.738 0 6.71-.379 4.1-1.6-1.726-.807-1.814-1.312-1.86-10.65-.049-9.858.049-10.461 1.819-11.2 2.945-1.231 1.74-1.75-4.059-1.75-4.665 0-5.4.086-5.4.635m13.015-.259c-.128.207-.004.562.276.79 2.506 2.039 2.738 2.424 4.727 7.834 1.133 3.08 2.201 5.96 2.373 6.4 1.244 3.176 1.69 4.365 2.685 7.148 1.931 5.407 2.016 5.321 7.318-7.348 5.185-12.39 5.376-12.762 6.829-13.268 2.986-1.041 1.499-1.932-3.223-1.932-4.727 0-6.241.878-3.134 1.817 2.391.723 1.697 4.161-2.925 14.483-1.084 2.421-1.103 2.395-3.645-5-2.656-7.73-2.837-9.166-1.196-9.526 1.886-.413 2.1-.531 2.1-1.161 0-.71-11.752-.938-12.185-.237m26.185.245c0 .341.544.81 1.208 1.042 1.889.658 1.992 1.234 1.992 11.129v9.244l-.982.982c-.54.54-1.26.982-1.6.982a.61.61 0 0 0-.618.6c0 .517 1.349.6 9.743.6h9.743l.257-2.459c.141-1.352.257-2.792.257-3.2 0-1.231-1.151-.833-1.752.607-.911 2.179-1.955 2.652-5.857 2.652-4.395 0-4.391.005-4.391-5.08V304h2.226c2.707 0 3.561.414 4.111 1.992.835 2.393 1.263 1.31 1.263-3.192 0-4.599-.312-5.304-1.409-3.183-.739 1.43-1.971 1.983-4.417 1.983H163.2v-8.8h2.74c3.706 0 5.206.572 5.908 2.254 1.016 2.431 1.752 1.735 1.752-1.654v-3h-9.2c-8.048 0-9.2.078-9.2.621m22.4-.063c0 .347.633.896 1.407 1.219l1.407.588-.107 10.317-.107 10.318-1.3.572c-2.727 1.2-1.65 1.628 4.1 1.628 5.706 0 6.956-.477 4.027-1.536-1.268-.458-1.393-.657-1.628-2.58-1.025-8.374 1.414-9.413 4.917-2.094 2.545 5.316 4.638 6.984 8.784 7.001 2.448.01 2.785-.664.795-1.591-.979-.456-1.977-1.75-4.166-5.4-3.378-5.634-3.311-5.315-1.385-6.645 3.763-2.6 3.933-8.725.308-11.078-2.084-1.352-17.052-1.984-17.052-.719m43.2.062c0 .342.607.875 1.349 1.185 1.801.752 1.839.984 1.846 11.262.006 10.034.023 9.933-1.83 10.545-3.101 1.023-1.666 1.588 4.035 1.588 5.74 0 6.715-.381 4.091-1.6l-1.291-.6-.113-9.6c-.129-11.017-.109-11.175 1.511-11.739 3.005-1.048 1.456-1.661-4.198-1.661-4.612 0-5.4.091-5.4.62m13.2 3.009c0 3.906 1.005 5.144 1.643 2.024.444-2.173 1.163-2.598 4.445-2.627L243 293.4l.107 9.713c.112 10.145-.025 11.131-1.575 11.359-.478.07-.943.353-1.034.628-.126.383 1.061.5 5.069.5 4.385 0 5.233-.097 5.233-.6 0-.33-.332-.6-.738-.6-1.947 0-2.084-.785-1.969-11.24l.107-9.76 2.885.025c3.145.027 4.509.732 4.521 2.337.009 1.258.616 1.992 1.399 1.691.481-.184.614-.53.446-1.158-.132-.492-.243-2.02-.246-3.395l-.005-2.5H234v3.629m25.2-3.034c0 .327.585.842 1.3 1.144 1.677.71 1.934 1.029 6.059 7.529l3.47 5.468-.115 4.132-.114 4.132-1.7.588c-3.474 1.201-2.173 1.641 4.501 1.522 6.355-.113 7.496-.45 4.747-1.401-2.061-.714-2.135-.915-2.142-5.8l-.006-4.291 2.7-4.438c3.411-5.605 4.607-7.052 6.104-7.381.822-.18 1.196-.503 1.196-1.031 0-.717-.336-.768-5.029-.768-5.25 0-6.894.799-3.47 1.686 1.625.421 1.672 1.224.22 3.8a606.807 606.807 0 0 0-2.139 3.832l-1.059 1.918-1.062-1.391c-.583-.765-1.061-1.472-1.061-1.57 0-.098-.63-1.224-1.4-2.503-2.043-3.393-1.932-3.789 1.195-4.261.438-.066.856-.433.93-.816.123-.638-.414-.695-6.496-.695-5.599 0-6.629.092-6.629.595m63.6.39c0 .33.495.718 1.1.863 2.131.509 2.1.349 2.1 10.939 0 10.768-.094 11.213-2.361 11.213-.639 0-.859.201-.763.7.223 1.167 10.724 1.276 10.724.112 0-.523-.263-.812-.738-.812-1.69 0-2.098-1.206-1.976-5.847L331 304.2l1.473-.123c2.548-.211 4.594.567 5.069 1.928.952 2.733 1.658 1.454 1.658-3.005 0-4.151-.656-5.745-1.399-3.402-.511 1.61-1.339 2.002-4.23 2.002H330.8v-8.4h3.626c4.158 0 5.019.33 5.813 2.232 1.038 2.483 1.813 1.776 1.679-1.532l-.118-2.9-9.5-.107c-8.223-.093-9.5-.027-9.5.492m-10.8 2.1c5.572 3.197 5.496 16.308-.114 19.728-4.777 2.913-9.886-2.365-9.886-10.212 0-7.68 4.966-12.405 10-9.516m-122.28-.042c5.021 2.523 2.517 9.538-3.172 8.888l-1.148-.131-.115-4.173c-.154-5.59.692-6.464 4.435-4.584m95.679 33.358c-.234.379-2.047 1.263-4.859 2.368-.966.379-1.302.791-1.442 1.763-.156 1.087-5.658 16.566-6.707 18.868-.2.44-.802 2.06-1.338 3.6-2.937 8.444-3.568 9.549-5.719 10.012-2.295.493-2.994.955-2.861 1.892.128.904 12.122 1.618 15.053.896 1.74-.429.98-1.932-1.213-2.399-3.31-.704-3.877-2.104-2.43-6.002l.741-1.999 6.653-.11 6.652-.109.616 1.909c1.518 4.709 1.315 5.511-1.578 6.224-1.542.381-1.994.677-2.093 1.372-.188 1.319.215 1.348 17.126 1.225l15.4-.111.122-1.048c.126-1.093-.617-1.534-2.603-1.547-1.685-.01-2.902-.88-3.316-2.369-.486-1.75-.542-22.836-.06-22.836.311 0 8.535 9.967 19.225 23.3 3.561 4.441 4.241 5.1 5.261 5.1h1.171l.007-2.9c.003-1.595.182-9.364.396-17.265.438-16.132.42-16.037 3.204-16.482 1.432-.229 1.593-.372 1.593-1.413v-1.158l-7.5.109-7.5.109-.127 1.1c-.115 1.001-.006 1.102 1.2 1.123 2.516.042 4.084.852 4.604 2.377.568 1.665.722 20.4.168 20.4-.196 0-1.97-2.025-3.944-4.5a2181.868 2181.868 0 0 0-7.345-9.148c-2.066-2.556-4.883-6.201-6.261-8.1l-2.505-3.452h-5.552c-4.567 0-5.593.107-5.783.6-.391 1.021.125 1.667 1.712 2.143.838.251 1.999.83 2.579 1.286l1.054.829-.026 6.871c-.05 13.362-.561 23.03-1.254 23.723-2.167 2.166-7.181.274-8.447-3.188-.726-1.984-9.151-27.868-10.144-31.164-.648-2.149-1.349-2.839-1.93-1.899m-142.999.565c-19.53 4.293-19.908 35.259-.48 39.384 7.897 1.677 15.122-.813 19.444-6.701 1.706-2.324 1.736-2.56.439-3.41-.985-.646-1.024-.624-3.511 1.912-9.761 9.955-23.898.174-21.883-15.141 1.882-14.313 17.377-17.161 23.205-4.265.924 2.044 1.319 2.339 2.3 1.717.553-.351.25-11.262-.313-11.262-.152 0-.603.36-1.001.8-.858.948-1.318.997-2.169.232-3.297-2.968-10.61-4.458-16.031-3.266m98.134.003c-19.442 4.715-18.779 35.827.839 39.399 5.319.968 10.496.294 15.403-2.005 4.19-1.964 4.01-1.652 4.018-6.974.007-4.776.426-6.023 2.11-6.262.64-.091.932-.441 1.023-1.227l.126-1.1H248.8v1.2c0 1.085.124 1.201 1.3 1.209 4.999.034 4.803 8.436-.259 11.08-9.071 4.738-18.164-9.401-14.273-22.194 3.743-12.31 16.581-13.285 22.428-1.703 2.061 4.083 2.604 3.401 2.604-3.266 0-5.86-.155-6.453-1.397-5.329-.779.705-.887.683-3.899-.806-4.988-2.465-10.073-3.161-14.77-2.022m-181.933 1.027c-.361 1.138-.03 1.465 1.778 1.754 2.735.438 2.728.373 1.993 19.45-.505 13.107-.576 13.438-3.024 14.055-1.558.392-1.748.565-1.748 1.592v1.153h13.2v-1.195c0-1.087-.146-1.219-1.615-1.454-2.746-.439-2.788-.622-2.762-11.94.025-10.694.316-14.018 1.069-12.211l2.494 6c1.142 2.75 2.313 5.54 2.602 6.2.29.66 1.252 3 2.139 5.2 4.168 10.336 3.741 9.586 5.537 9.72 2.027.151 1.836.418 5.531-7.72 1.699-3.74 3.542-7.79 4.098-9 .555-1.21 1.5-3.28 2.099-4.6 3.831-8.432 3.608-8.697 3.607 4.276 0 12.842-.139 13.465-3.123 14.045-1.567.305-1.712.433-1.6 1.407L91 366.2h16.4v-.956c0-1.014-.553-1.462-2.231-1.811-1.875-.389-1.969-1.201-1.969-17.003 0-16.239-.145-15.363 2.631-15.94 1.398-.29 1.569-.455 1.569-1.508V327.8l-5.642-.111c-6.519-.127-5.869-.491-8.077 4.511-.874 1.98-2.042 4.59-2.596 5.8-.554 1.21-1.815 4-2.802 6.2-4.229 9.423-5.561 12.262-5.681 12.114-.051-.063-1.574-3.714-3.383-8.114s-3.518-8.54-3.798-9.2c-.28-.66-1.46-3.495-2.621-6.3l-2.112-5.1h-5.917c-5.557 0-5.932.048-6.17.796m52.874-.538c-.864.864-.227 2.124 1.278 2.529 2.726.734 2.636.205 2.751 16.174.121 16.715.159 16.513-3.229 17.229-.944.199-1.105.414-1 1.324l.125 1.086H127v-.998c0-.812-.299-1.095-1.6-1.514-2.689-.867-2.6-.294-2.6-16.764 0-16.761-.106-16.168 3-16.75 1.269-.238 1.429-.399 1.322-1.323L127 327.8l-7.625-.108c-4.194-.06-7.749.015-7.9.166m54.4 0c-.898.898-.215 1.992 1.535 2.46 2.594.694 2.591.671 2.584 16.808-.006 15.755-.048 16.048-2.335 16.515-1.625.333-2.179.838-1.991 1.817.134.693.667.742 8.137.742h7.995l.125-1.086c.131-1.131.225-1.074-2.856-1.704-1.546-.316-1.869-1.763-1.869-8.382 0-6.024.016-6.139.9-6.376 1.206-.323 13.863-.319 15.483.005l1.284.256-.134 6.58c-.146 7.218-.475 8.107-3.004 8.107-2.091 0-3.524 1.932-1.896 2.557.825.317 15.109.317 15.934 0 1.54-.591.219-2.557-1.718-2.557-1.963 0-2.049-.696-2.049-16.515 0-16.361-.047-16.06 2.634-16.735 1.623-.409 1.796-.564 1.687-1.503l-.121-1.047h-16.8v.974c0 .831.287 1.047 1.959 1.474 3.155.804 3.216.944 3.381 7.718l.145 5.943-4.443.152c-2.443.083-6.422.084-8.842.001l-4.4-.15v-5.774c0-6.548.359-7.394 3.377-7.96 1.293-.243 1.452-.4 1.345-1.327l-.122-1.051-7.825-.108c-4.304-.06-7.949.015-8.1.166m43.592.009c-.917.917-.211 2.136 1.485 2.563 2.815.708 2.815.711 2.966 15.97.149 15.081-.005 16.311-2.118 16.938-2.004.594-2.4.909-2.4 1.906v.956l7.9.108 7.9.109v-1.19c0-1.04-.174-1.223-1.374-1.448-2.868-.539-2.812-.235-2.95-15.92-.145-16.505-.096-16.843 2.542-17.548 1.57-.42 1.782-.61 1.782-1.594V327.6h-7.733c-4.254 0-7.854.12-8 .267m74.907 16.024c1.28 3.781 2.229 6.972 2.11 7.092-.349.349-9.617.249-9.836-.106-.17-.274 1.032-3.969 4.029-12.396.893-2.51 1.14-2.148 3.697 5.41" fill="#f2f3f5"/><path d="M0 212.2v212.2h400V0H0v212.2M145.387 62.5c1.951 2.695 6.459 8.95 10.018 13.9 3.559 4.95 10.381 14.4 15.162 21 4.78 6.6 9.398 12.99 10.262 14.2 10.159 14.222 18.892 25.972 19.173 25.799.284-.175 10.436-14.079 19.968-27.346 1.006-1.401 2.563-3.561 3.458-4.8a38774.51 38774.51 0 0 1 24.742-34.087c.897-1.229 3.43-4.777 5.63-7.884l4-5.65 42.303-.016 42.302-.016-.102 28.7-.103 28.7-10.7.107-10.7.106v88.374l10.7.106 10.7.107.103 28.701.102 28.702-53.702-.102L235 261l-.103-28.156c-.074-20.466.021-28.304.349-28.7.361-.435 2.687-.544 11.603-.544H258V146.703l-2.3 3.035a567.7 567.7 0 0 0-5.1 6.878c-1.54 2.114-3.178 4.325-3.641 4.914-.463.588-7.648 10.34-15.968 21.67-8.32 11.33-17.128 23.3-19.574 26.6-2.447 3.3-6.061 8.198-8.033 10.884-1.971 2.687-3.716 4.847-3.878 4.8-.162-.046-9.933-13.314-21.713-29.484-11.78-16.17-22.023-30.21-22.761-31.2-.738-.99-3.03-4.14-5.093-7-6.915-9.584-7.683-10.6-8.012-10.6-.18 0-.327 12.687-.327 28.194v28.194l11.5.106 11.5.106.103 28.7.102 28.7H57.595l.102-28.7.103-28.7 10.7-.107 10.7-.106v-88.374l-10.7-.106L57.8 115l-.103-28.7-.102-28.7h84.245l3.547 4.9m69.269 228.291c1.49.653 1.718.664 2.271.11.746-.745 1.181.964 1.238 4.859.042 2.842-.562 3.264-1.547 1.081-2.424-5.377-10.218-6.169-10.218-1.039 0 1.714 1.713 3.159 5.171 4.363 6.412 2.233 8.894 5.536 7.645 10.177-2.149 7.98-16.811 8.163-17.803.222-.405-3.237 1.071-4.1 2.108-1.232 1.649 4.561 9.078 6.236 11.09 2.5 1.469-2.729-.022-4.687-5.034-6.611-4.138-1.588-5.837-2.829-6.812-4.975-3.1-6.827 4.355-12.754 11.891-9.455m99.86.331c6.447 2.851 9.436 11.841 6.165 18.543-5.615 11.503-23.122 8.165-24.497-4.672-1.139-10.644 8.735-18.117 18.332-13.871m-245.787-.047c-.072.374-.715.826-1.445 1.015-1.947.505-2.17 1.535-2.016 9.31.191 9.682 1.36 11.979 6.103 11.993 5.699.016 6.78-1.941 6.964-12.613l.135-7.82-1.054-.48c-.579-.264-1.315-.48-1.635-.48-.319 0-.581-.36-.581-.8 0-.756.267-.8 4.8-.8 4.427 0 4.8.058 4.8.75 0 .506-.374.825-1.149.98-1.58.316-1.67.697-2.092 8.87-.635 12.307-3.279 15.776-11.689 15.334-7.836-.412-9.846-3.756-9.862-16.405-.009-7.094-.223-7.929-2.037-7.929-.504 0-.771-.277-.771-.8 0-.763.267-.8 5.829-.8 5.254 0 5.817.067 5.7.675m29.002 3.825c5.351 7.025 9.038 11.5 9.472 11.5.246 0 .397-2.405.397-6.324 0-7.146-.159-7.633-2.628-8.034-1.035-.168-1.609-.489-1.697-.948-.121-.63.35-.694 5.125-.694 4.792 0 5.247.062 5.125.7-.073.385-.523.756-1 .824-1.909.273-2.239 3.135-2.491 21.603-.053 3.937-.95 3.473-6.429-3.327l-7.321-9.085c-1.544-1.917-2.96-3.391-3.146-3.277-.467.289-.427 13.475.044 14.714.262.691.888 1.157 2 1.49 3.356 1.005 2.009 1.591-3.383 1.47-4.973-.111-6.306-.549-3.85-1.264 1.846-.537 2.051-1.727 2.051-11.914v-9.147l-1.5-.693c-3.221-1.49-2.622-2.094 2.075-2.094h3.727l3.429 4.5m29.069-3.905c0 .327-.603.846-1.341 1.155-1.77.739-1.868 1.342-1.819 11.2.046 9.338.134 9.843 1.86 10.65 2.61 1.221 1.638 1.6-4.1 1.6-5.75 0-6.827-.428-4.1-1.628l1.3-.572.113-9.6c.129-11.026.125-11.059-1.497-11.672-2.98-1.124-1.518-1.728 4.184-1.728 4.512 0 5.4.098 5.4.595m14.4.018c0 .63-.214.748-2.1 1.161-1.641.36-1.46 1.796 1.196 9.526 2.542 7.395 2.561 7.421 3.645 5 4.622-10.322 5.316-13.76 2.925-14.483-3.107-.939-1.593-1.817 3.134-1.817 4.722 0 6.209.891 3.223 1.932-1.453.506-1.644.878-6.829 13.268-5.302 12.669-5.387 12.755-7.318 7.348-.995-2.783-1.441-3.972-2.685-7.148-.172-.44-1.24-3.32-2.373-6.4-1.989-5.41-2.221-5.795-4.727-7.834-1.114-.907.206-1.166 5.933-1.166 5.1 0 5.976.09 5.976.613m32.4 2.387c0 3.389-.736 4.085-1.752 1.654-.702-1.682-2.202-2.254-5.908-2.254h-2.74v8.8h1.774c2.446 0 3.678-.553 4.417-1.983 1.097-2.121 1.409-1.416 1.409 3.183 0 4.502-.428 5.585-1.263 3.192-.55-1.578-1.404-1.992-4.111-1.992H163.2v4.12c0 5.085-.004 5.08 4.391 5.08 3.902 0 4.946-.473 5.857-2.652.601-1.44 1.752-1.838 1.752-.607 0 .408-.116 1.848-.257 3.2l-.257 2.459h-9.743c-8.394 0-9.743-.083-9.743-.6 0-.33.278-.6.618-.6.34 0 1.06-.442 1.6-.982l.982-.982v-9.244c0-9.895-.103-10.471-1.992-11.129-.664-.232-1.208-.701-1.208-1.042 0-.543 1.152-.621 9.2-.621h9.2v3m21.052-1.723c3.625 2.353 3.455 8.478-.308 11.078-1.926 1.33-1.993 1.011 1.385 6.645 2.189 3.65 3.187 4.944 4.166 5.4 1.99.927 1.653 1.601-.795 1.591-4.146-.017-6.239-1.685-8.784-7.001-3.503-7.319-5.942-6.28-4.917 2.094.235 1.923.36 2.122 1.628 2.58 2.929 1.059 1.679 1.536-4.027 1.536-5.75 0-6.827-.428-4.1-1.628l1.3-.572.107-10.318.107-10.317-1.407-.588c-.774-.323-1.407-.872-1.407-1.219 0-1.265 14.968-.633 17.052.719m36.948-.656c0 .341-.541.809-1.202 1.04-1.62.564-1.64.722-1.511 11.739l.113 9.6 1.291.6c2.624 1.219 1.649 1.6-4.091 1.6-5.701 0-7.136-.565-4.035-1.588 1.853-.612 1.836-.511 1.83-10.545-.007-10.278-.045-10.51-1.846-11.262-3.002-1.255-1.766-1.805 4.051-1.805 4.614 0 5.4.09 5.4.621m25.605 1.879c.003 1.375.114 2.903.246 3.395.168.628.035.974-.446 1.158-.783.301-1.39-.433-1.399-1.691-.012-1.605-1.376-2.31-4.521-2.337l-2.885-.025-.107 9.76c-.115 10.455.022 11.24 1.969 11.24.406 0 .738.27.738.6 0 .503-.848.6-5.233.6-4.008 0-5.195-.117-5.069-.5.091-.275.556-.558 1.034-.628 1.55-.228 1.687-1.214 1.575-11.359L243 293.4l-2.912.026c-3.282.029-4.001.454-4.445 2.627-.638 3.12-1.643 1.882-1.643-2.024V290.4h23.2l.005 2.5m15.12-1.805c-.074.383-.492.75-.93.816-3.127.472-3.238.868-1.195 4.261.77 1.279 1.4 2.405 1.4 2.503 0 .098.478.805 1.061 1.57l1.062 1.391 1.059-1.918a606.807 606.807 0 0 1 2.139-3.832c1.452-2.576 1.405-3.379-.22-3.8-3.424-.887-1.78-1.686 3.47-1.686 4.693 0 5.029.051 5.029.768 0 .528-.374.851-1.196 1.031-1.497.329-2.693 1.776-6.104 7.381l-2.7 4.438.006 4.291c.007 4.885.081 5.086 2.142 5.8 2.749.951 1.608 1.288-4.747 1.401-6.674.119-7.975-.321-4.501-1.522l1.7-.588.114-4.132.115-4.132-3.47-5.468c-4.125-6.5-4.382-6.819-6.059-7.529-3.065-1.297-1.71-1.739 5.329-1.739 6.082 0 6.619.057 6.496.695m69.593 2.805c.134 3.308-.641 4.015-1.679 1.532-.794-1.902-1.655-2.232-5.813-2.232H330.8v8.4h2.771c2.891 0 3.719-.392 4.23-2.002.743-2.343 1.399-.749 1.399 3.402 0 4.459-.706 5.738-1.658 3.005-.475-1.361-2.521-2.139-5.069-1.928L331 304.2l-.114 4.353c-.122 4.641.286 5.847 1.976 5.847.475 0 .738.289.738.812 0 1.164-10.501 1.055-10.724-.112-.096-.499.124-.7.763-.7 2.267 0 2.361-.445 2.361-11.213 0-10.59.031-10.43-2.1-10.939-.605-.145-1.1-.533-1.1-.863 0-.519 1.277-.585 9.5-.492l9.5.107.118 2.9m-34.171-1.208c-5.562.986-7.764 12.729-3.46 18.442 4.785 6.349 11.883 1.571 11.835-7.967-.035-6.857-3.604-11.321-8.375-10.475m-122.374.635c-.112.29-.151 2.405-.088 4.7l.115 4.173 1.148.131c5.689.65 8.193-6.365 3.172-8.888-1.553-.78-4.067-.847-4.347-.116M287.329 328.7c.993 3.296 9.418 29.18 10.144 31.164 1.266 3.462 6.28 5.354 8.447 3.188.693-.693 1.204-10.361 1.254-23.723l.026-6.871-1.054-.829c-.58-.456-1.741-1.035-2.579-1.286-1.587-.476-2.103-1.122-1.712-2.143.19-.493 1.216-.6 5.783-.6h5.552l2.505 3.452c1.378 1.899 4.195 5.544 6.261 8.1s5.371 6.673 7.345 9.148c1.974 2.475 3.748 4.5 3.944 4.5.554 0 .4-18.735-.168-20.4-.52-1.525-2.088-2.335-4.604-2.377-1.206-.021-1.315-.122-1.2-1.123l.127-1.1 7.5-.109 7.5-.109v1.158c0 1.041-.161 1.184-1.593 1.413-2.784.445-2.766.35-3.204 16.482-.214 7.901-.393 15.67-.396 17.265l-.007 2.9h-1.171c-1.02 0-1.7-.659-5.261-5.1-10.69-13.333-18.914-23.3-19.225-23.3-.482 0-.426 21.086.06 22.836.414 1.489 1.631 2.359 3.316 2.369 1.986.013 2.729.454 2.603 1.547l-.122 1.048-15.4.111c-16.911.123-17.314.094-17.126-1.225.099-.695.551-.991 2.093-1.372 2.893-.713 3.096-1.515 1.578-6.224l-.616-1.909-6.652.109-6.653.11-.741 1.999c-1.447 3.898-.88 5.298 2.43 6.002 2.193.467 2.953 1.97 1.213 2.399-2.931.722-14.925.008-15.053-.896-.133-.937.566-1.399 2.861-1.892 2.151-.463 2.782-1.568 5.719-10.012.536-1.54 1.138-3.16 1.338-3.6 1.049-2.302 6.551-17.781 6.707-18.868.14-.972.476-1.384 1.442-1.763 2.812-1.105 4.625-1.989 4.859-2.368.581-.94 1.282-.25 1.93 1.899m-136.326-1.356c2.399.516 6.234 2.213 7.428 3.288.851.765 1.311.716 2.169-.232.398-.44.849-.8 1.001-.8.563 0 .866 10.911.313 11.262-.981.622-1.376.327-2.3-1.717-5.828-12.896-21.323-10.048-23.205 4.265-2.015 15.315 12.122 25.096 21.883 15.141 2.487-2.536 2.526-2.558 3.511-1.912 1.297.85 1.267 1.086-.439 3.41-9.313 12.687-30.035 7.979-33.317-7.569-3.266-15.478 8.407-28.261 22.956-25.136m98.8 0c1.321.284 3.797 1.205 5.501 2.047 3.012 1.489 3.12 1.511 3.899.806 1.242-1.124 1.397-.531 1.397 5.329 0 6.667-.543 7.349-2.604 3.266-5.847-11.582-18.685-10.607-22.428 1.703-3.891 12.793 5.202 26.932 14.273 22.194 5.062-2.644 5.258-11.046.259-11.08-1.176-.008-1.3-.124-1.3-1.209v-1.2h15.253l-.126 1.1c-.091.786-.383 1.136-1.023 1.227-1.684.239-2.103 1.486-2.11 6.262-.008 5.322.172 5.01-4.018 6.974-11.035 5.171-23.618 1.835-28.177-7.472-7.941-16.206 4.351-33.566 21.204-29.947M72.8 332.7c1.161 2.805 2.341 5.64 2.621 6.3.28.66 1.989 4.8 3.798 9.2 1.809 4.4 3.332 8.051 3.383 8.114.12.148 1.452-2.691 5.681-12.114.987-2.2 2.248-4.99 2.802-6.2.554-1.21 1.722-3.82 2.596-5.8 2.208-5.002 1.558-4.638 8.077-4.511l5.642.111v1.182c0 1.053-.171 1.218-1.569 1.508-2.776.577-2.631-.299-2.631 15.94 0 15.802.094 16.614 1.969 17.003 1.678.349 2.231.797 2.231 1.811v.956H91l-.124-1.072c-.112-.974.033-1.102 1.6-1.407 2.984-.58 3.123-1.203 3.123-14.045.001-11.491-.093-11.976-1.659-8.552-.471 1.032-1.348 2.956-1.948 4.276-.599 1.32-1.544 3.39-2.099 4.6-.556 1.21-2.399 5.26-4.098 9-3.695 8.138-3.504 7.871-5.531 7.72-1.796-.134-1.369.616-5.537-9.72-.887-2.2-1.849-4.54-2.139-5.2-.289-.66-1.46-3.45-2.602-6.2l-2.494-6c-.753-1.807-1.044 1.517-1.069 12.211-.026 11.318.016 11.501 2.762 11.94 1.469.235 1.615.367 1.615 1.454v1.195H57.6v-1.153c0-1.027.19-1.2 1.748-1.592 2.448-.617 2.519-.948 3.024-14.055.735-19.077.742-19.012-1.993-19.45-1.808-.289-2.139-.616-1.778-1.754.238-.748.613-.796 6.17-.796h5.917l2.112 5.1m54.322-3.849c.107.924-.053 1.085-1.322 1.323-3.106.582-3-.011-3 16.75 0 16.47-.089 15.897 2.6 16.764 1.301.419 1.6.702 1.6 1.514v.998h-15.6l-.125-1.086c-.105-.91.056-1.125 1-1.324 3.388-.716 3.35-.514 3.229-17.229-.115-15.969-.025-15.44-2.751-16.174-1.231-.331-1.553-.608-1.553-1.336 0-1.45.14-1.474 8.175-1.359l7.625.108.122 1.051m54.8 0c.107.927-.052 1.084-1.345 1.327-3.018.566-3.377 1.412-3.377 7.96v5.774l4.4.15c2.42.083 6.399.082 8.842-.001l4.443-.152-.145-5.943c-.165-6.774-.226-6.914-3.381-7.718-1.672-.427-1.959-.643-1.959-1.474v-.974h16.8l.121 1.047c.109.939-.064 1.094-1.687 1.503-2.681.675-2.634.374-2.634 16.735 0 15.819.086 16.515 2.049 16.515 1.937 0 3.258 1.966 1.718 2.557-.825.317-15.109.317-15.934 0-1.628-.625-.195-2.557 1.896-2.557 2.529 0 2.858-.889 3.004-8.107l.134-6.58-1.284-.256c-1.62-.324-14.277-.328-15.483-.005-.884.237-.9.352-.9 6.376 0 6.619.323 8.066 1.869 8.382 3.081.63 2.987.573 2.856 1.704l-.125 1.086h-7.995c-7.47 0-8.003-.049-8.137-.742-.188-.979.366-1.484 1.991-1.817 2.287-.467 2.329-.76 2.335-16.515.007-16.137.01-16.114-2.584-16.808-1.427-.382-1.81-.664-1.81-1.334 0-1.375.196-1.405 8.375-1.292l7.825.108.122 1.051m43.278-.134c0 .984-.212 1.174-1.782 1.594-2.638.705-2.687 1.043-2.542 17.548.138 15.685.082 15.381 2.95 15.92 1.2.225 1.374.408 1.374 1.448v1.19l-7.9-.109-7.9-.108v-.956c0-.997.396-1.312 2.4-1.906 2.113-.627 2.267-1.857 2.118-16.938-.151-15.259-.151-15.262-2.966-15.97-1.439-.363-1.752-.607-1.752-1.369 0-1.447.081-1.461 8.267-1.461h7.733v1.117m55.477 9.764c-2.997 8.427-4.199 12.122-4.029 12.396.219.355 9.487.455 9.836.106.306-.306-4.353-13.939-4.816-14.094-.209-.069-.655.647-.991 1.592" fill="#04244c"/></g></svg>