<svg xmlns="http://www.w3.org/2000/svg" width="400" height="424.684" viewBox="0 0 400 424.684">
  <g fill-rule="evenodd">
    <path d="M57.697 86.3L57.8 115l10.7.107 10.7.106v88.374l-10.7.106-10.7.107-.103 28.7-.102 28.7h107.21l-.102-28.7-.103-28.7-11.5-.106-11.5-.106v-28.194c0-15.507.147-28.194.327-28.194.329 0 1.097 1.016 8.012 10.6a834.51 834.51 0 0 0 5.093 7c.738.99 10.981 15.03 22.761 31.2s21.551 29.438 21.713 29.484c.162.047 1.907-2.113 3.878-4.8 1.972-2.686 5.586-7.584 8.033-10.884 2.446-3.3 11.254-15.27 19.574-26.6 8.32-11.33 15.505-21.082 15.968-21.67.463-.589 2.101-2.8 3.641-4.914a567.7 567.7 0 0 1 5.1-6.878l2.3-3.035V203.6h-11.151c-8.916 0-11.242.109-11.603.544-.328.396-.423 8.234-.349 28.7L235 261l53.703.101 53.702.102-.102-28.702-.103-28.701-10.7-.107-10.7-.106v-88.374l10.7-.106 10.7-.107.103-28.7.102-28.7-42.302.016-42.303.016-4 5.65a977.712 977.712 0 0 1-5.63 7.884 38774.51 38774.51 0 0 0-24.742 34.087c-.895 1.239-2.452 3.399-3.458 4.8-9.532 13.267-19.684 27.171-19.968 27.346-.281.173-9.014-11.577-19.173-25.799-.864-1.21-5.482-7.6-10.262-14.2-4.781-6.6-11.603-16.05-15.162-21a6900.982 6900.982 0 0 0-10.018-13.9l-3.547-4.9H57.595l.102 28.7" fill="#fbcb04"/>
    <path d="M0 212.2v212.2h400V0H0v212.2M145.387 62.5c1.951 2.695 6.459 8.95 10.018 13.9 3.559 4.95 10.381 14.4 15.162 21 4.78 6.6 9.398 12.99 10.262 14.2 10.159 14.222 18.892 25.972 19.173 25.799.284-.175 10.436-14.079 19.968-27.346 1.006-1.401 2.563-3.561 3.458-4.8a38774.51 38774.51 0 0 1 24.742-34.087c.897-1.229 3.43-4.777 5.63-7.884l4-5.65 42.303-.016 42.302-.016-.102 28.7-.103 28.7-10.7.107-10.7.106v88.374l10.7.106 10.7.107.103 28.701.102 28.702-53.702-.102L235 261l-.103-28.156c-.074-20.466.021-28.304.349-28.7.361-.435 2.687-.544 11.603-.544H258V146.703l-2.3 3.035a567.7 567.7 0 0 0-5.1 6.878c-1.54 2.114-3.178 4.325-3.641 4.914-.463.588-7.648 10.34-15.968 21.67-8.32 11.33-17.128 23.3-19.574 26.6-2.447 3.3-6.061 8.198-8.033 10.884-1.971 2.687-3.716 4.847-3.878 4.8-.162-.046-9.933-13.314-21.713-29.484-11.78-16.17-22.023-30.21-22.761-31.2-.738-.99-3.03-4.14-5.093-7-6.915-9.584-7.683-10.6-8.012-10.6-.18 0-.327 12.687-.327 28.194v28.194l11.5.106 11.5.106.103 28.7.102 28.7H57.595l.102-28.7.103-28.7 10.7-.107 10.7-.106v-88.374l-10.7-.106L57.8 115l-.103-28.7-.102-28.7h84.245l3.547 4.9" fill="#04244c"/>
  </g>
</svg>
