<?xml version="1.0" encoding="UTF-8"?>
<svg xmlns="http://www.w3.org/2000/svg" xmlns:xlink="http://www.w3.org/1999/xlink" width="120px" height="120px" viewBox="0 0 120 119" version="1.1">
<rect width="100%" height="100%" fill="white"/>
<g id="surface1">
<path style=" stroke:none;fill-rule:nonzero;fill:rgb(92.941177%,44.705883%,12.941177%);fill-opacity:1;" d="M 103.433594 75.210938 L 105.957031 76.214844 L 110.027344 75.992188 L 109.757812 76.648438 L 107.632812 76.742188 C 107.230469 76.757812 106.839844 76.769531 106.457031 76.765625 C 106.714844 77.011719 107.003906 77.304688 107.320312 77.632812 L 108.75 79.132812 L 108.496094 79.765625 L 105.738281 76.757812 L 103.21875 75.753906 Z M 107.050781 72.035156 L 107.769531 72.246094 L 107.246094 74.039062 L 104.960938 73.386719 C 104.726562 73.019531 104.5625 72.660156 104.496094 72.320312 C 104.421875 71.976562 104.429688 71.65625 104.519531 71.34375 C 104.640625 70.933594 104.875 70.585938 105.234375 70.320312 C 105.601562 70.054688 106.046875 69.90625 106.585938 69.875 C 107.121094 69.835938 107.703125 69.910156 108.308594 70.085938 C 108.902344 70.257812 109.433594 70.507812 109.90625 70.828125 C 110.371094 71.148438 110.6875 71.515625 110.847656 71.90625 C 111 72.300781 111.011719 72.710938 110.890625 73.136719 C 110.800781 73.449219 110.652344 73.699219 110.425781 73.90625 C 110.21875 74.109375 109.953125 74.25 109.660156 74.316406 C 109.355469 74.382812 108.988281 74.390625 108.554688 74.351562 L 108.507812 73.78125 C 108.828125 73.808594 109.105469 73.800781 109.308594 73.753906 C 109.519531 73.714844 109.699219 73.625 109.859375 73.480469 C 110.015625 73.328125 110.136719 73.152344 110.195312 72.941406 C 110.265625 72.683594 110.269531 72.445312 110.21875 72.226562 C 110.164062 72 110.054688 71.804688 109.902344 71.640625 C 109.75 71.472656 109.570312 71.324219 109.367188 71.199219 C 109.023438 70.984375 108.625 70.808594 108.179688 70.675781 C 107.632812 70.523438 107.148438 70.453125 106.738281 70.472656 C 106.332031 70.496094 106 70.609375 105.75 70.808594 C 105.5 71.007812 105.328125 71.25 105.246094 71.523438 C 105.175781 71.765625 105.175781 72.023438 105.242188 72.292969 C 105.3125 72.566406 105.40625 72.78125 105.527344 72.945312 L 106.679688 73.273438 Z M 108.957031 65.308594 C 108.191406 65.21875 107.570312 65.289062 107.101562 65.523438 C 106.621094 65.753906 106.355469 66.089844 106.300781 66.515625 C 106.253906 66.953125 106.429688 67.339844 106.839844 67.679688 C 107.25 68.011719 107.867188 68.230469 108.6875 68.328125 C 109.195312 68.386719 109.660156 68.382812 110.0625 68.304688 C 110.457031 68.230469 110.777344 68.085938 111.019531 67.878906 C 111.257812 67.679688 111.394531 67.429688 111.429688 67.136719 C 111.488281 66.726562 111.320312 66.351562 110.949219 66.003906 C 110.578125 65.660156 109.90625 65.433594 108.957031 65.308594 M 109.046875 64.714844 C 110.097656 64.839844 110.902344 65.132812 111.453125 65.59375 C 112 66.054688 112.234375 66.601562 112.15625 67.222656 C 112.113281 67.625 111.925781 67.976562 111.605469 68.269531 C 111.289062 68.558594 110.867188 68.761719 110.34375 68.867188 C 109.820312 68.984375 109.246094 69.003906 108.609375 68.921875 C 107.964844 68.847656 107.402344 68.6875 106.910156 68.445312 C 106.421875 68.210938 106.066406 67.90625 105.847656 67.550781 C 105.628906 67.1875 105.53125 66.8125 105.582031 66.4375 C 105.636719 66.019531 105.828125 65.664062 106.152344 65.375 C 106.476562 65.078125 106.910156 64.882812 107.429688 64.777344 C 107.945312 64.667969 108.484375 64.640625 109.046875 64.714844 M 106.207031 61.007812 L 112.601562 61.488281 L 112.554688 62.066406 L 106.921875 61.648438 L 106.746094 63.820312 L 106 63.761719 Z M 109.226562 56.488281 C 108.457031 56.507812 107.851562 56.667969 107.414062 56.96875 C 106.984375 57.269531 106.777344 57.640625 106.789062 58.066406 C 106.808594 58.507812 107.046875 58.867188 107.5 59.132812 C 107.953125 59.40625 108.601562 59.523438 109.421875 59.503906 C 109.941406 59.484375 110.394531 59.40625 110.773438 59.273438 C 111.160156 59.132812 111.453125 58.953125 111.660156 58.707031 C 111.867188 58.472656 111.96875 58.207031 111.953125 57.914062 C 111.941406 57.5 111.722656 57.152344 111.300781 56.867188 C 110.878906 56.578125 110.195312 56.453125 109.226562 56.488281 M 109.226562 55.875 C 110.285156 55.839844 111.125 56.011719 111.738281 56.390625 C 112.351562 56.769531 112.664062 57.265625 112.691406 57.886719 C 112.703125 58.296875 112.570312 58.667969 112.304688 59.007812 C 112.027344 59.34375 111.644531 59.605469 111.140625 59.796875 C 110.652344 59.980469 110.070312 60.085938 109.433594 60.105469 C 108.789062 60.125 108.207031 60.058594 107.683594 59.890625 C 107.171875 59.726562 106.765625 59.484375 106.496094 59.164062 C 106.222656 58.835938 106.078125 58.476562 106.066406 58.097656 C 106.058594 57.679688 106.195312 57.304688 106.472656 56.964844 C 106.746094 56.628906 107.140625 56.363281 107.636719 56.175781 C 108.132812 55.996094 108.660156 55.898438 109.226562 55.875 M 105.574219 51.652344 L 111.941406 50.890625 L 112.015625 51.484375 L 107.300781 54.390625 L 112.292969 53.789062 L 112.363281 54.347656 L 106 55.109375 L 105.925781 54.511719 L 110.644531 51.613281 L 105.640625 52.207031 Z M 104.5625 47.261719 L 110.804688 45.832031 L 110.941406 46.40625 L 108.363281 46.992188 L 108.882812 49.226562 L 111.457031 48.636719 L 111.589844 49.203125 L 105.339844 50.632812 L 105.207031 50.0625 L 108.152344 49.390625 L 107.632812 47.164062 L 104.695312 47.832031 Z M 106.269531 45.183594 L 106.265625 45.8125 C 105.566406 45.921875 104.988281 45.890625 104.539062 45.710938 C 104.082031 45.523438 103.785156 45.21875 103.628906 44.789062 C 103.472656 44.335938 103.476562 43.921875 103.644531 43.546875 C 103.808594 43.175781 104.121094 42.828125 104.570312 42.507812 C 105.023438 42.1875 105.53125 41.921875 106.117188 41.726562 C 106.746094 41.507812 107.320312 41.398438 107.851562 41.402344 C 108.382812 41.410156 108.816406 41.523438 109.167969 41.746094 C 109.519531 41.96875 109.757812 42.261719 109.886719 42.628906 C 110.035156 43.050781 110.007812 43.457031 109.796875 43.839844 C 109.59375 44.230469 109.226562 44.582031 108.710938 44.886719 L 108.332031 44.40625 C 108.742188 44.160156 109.003906 43.910156 109.144531 43.65625 C 109.289062 43.402344 109.296875 43.132812 109.203125 42.859375 C 109.089844 42.539062 108.882812 42.308594 108.585938 42.167969 C 108.289062 42.03125 107.929688 41.984375 107.53125 42.027344 C 107.121094 42.070312 106.714844 42.15625 106.316406 42.292969 C 105.804688 42.476562 105.378906 42.683594 105.027344 42.917969 C 104.683594 43.152344 104.449219 43.410156 104.332031 43.691406 C 104.21875 43.976562 104.207031 44.246094 104.300781 44.503906 C 104.40625 44.8125 104.628906 45.023438 104.960938 45.152344 C 105.304688 45.273438 105.734375 45.289062 106.269531 45.183594 M 101.398438 39.121094 L 107.242188 36.507812 L 108.570312 39.414062 L 107.882812 39.722656 L 106.800781 37.347656 L 105.003906 38.152344 L 106.019531 40.371094 L 105.328125 40.679688 L 104.320312 38.457031 L 102.324219 39.347656 L 103.460938 41.824219 L 102.769531 42.128906 Z M 100.089844 36.722656 L 104.980469 33.894531 L 104.238281 32.636719 L 104.886719 32.261719 L 106.667969 35.289062 L 106.015625 35.667969 L 105.273438 34.402344 L 100.386719 37.234375 Z M 96.039062 29.667969 L 96.640625 30.402344 C 96.816406 30.628906 96.996094 30.785156 97.160156 30.867188 C 97.328125 30.945312 97.496094 30.980469 97.671875 30.96875 C 97.914062 30.953125 98.191406 30.875 98.515625 30.71875 C 98.828125 30.566406 99.171875 30.34375 99.550781 30.042969 C 100.078125 29.628906 100.425781 29.25 100.609375 28.910156 C 100.808594 28.566406 100.878906 28.277344 100.832031 28.027344 C 100.808594 27.851562 100.675781 27.625 100.457031 27.355469 L 99.878906 26.628906 Z M 95.085938 29.671875 L 100.089844 25.707031 L 101.054688 26.898438 C 101.277344 27.167969 101.414062 27.390625 101.476562 27.566406 C 101.570312 27.820312 101.585938 28.085938 101.523438 28.359375 C 101.453125 28.71875 101.277344 29.082031 101.003906 29.445312 C 100.730469 29.816406 100.371094 30.171875 99.925781 30.53125 C 99.546875 30.828125 99.179688 31.066406 98.839844 31.234375 C 98.496094 31.40625 98.1875 31.527344 97.914062 31.578125 C 97.644531 31.632812 97.410156 31.648438 97.210938 31.621094 C 97.007812 31.597656 96.816406 31.527344 96.628906 31.40625 C 96.4375 31.292969 96.261719 31.128906 96.089844 30.917969 Z M 91.960938 26.363281 L 96.609375 22 L 97.035156 22.433594 L 94.976562 27.550781 L 98.640625 24.125 L 99.027344 24.53125 L 94.371094 28.898438 L 93.953125 28.464844 L 96.003906 23.347656 L 92.34375 26.773438 Z M 91.105469 22.160156 L 92.25 23.148438 L 93.058594 21.515625 C 93.308594 21.027344 93.523438 20.617188 93.695312 20.308594 C 93.378906 20.585938 93.050781 20.832031 92.703125 21.070312 Z M 88.402344 23.292969 L 93.90625 19.617188 L 94.386719 20.035156 L 91.5625 26.011719 L 91.054688 25.578125 L 91.933594 23.789062 L 90.519531 22.5625 L 88.875 23.703125 Z M 83.007812 19.707031 L 86.492188 14.375 L 89.199219 16.113281 L 88.789062 16.742188 L 86.585938 15.320312 L 85.511719 16.957031 L 87.578125 18.289062 L 87.167969 18.910156 L 85.101562 17.585938 L 83.917969 19.402344 L 86.210938 20.875 L 85.800781 21.5 Z M 82.769531 17.085938 L 83.199219 17.542969 C 82.773438 18.101562 82.34375 18.46875 81.886719 18.652344 C 81.433594 18.832031 81.003906 18.820312 80.59375 18.613281 C 80.160156 18.398438 79.875 18.097656 79.730469 17.714844 C 79.585938 17.328125 79.566406 16.875 79.664062 16.332031 C 79.769531 15.785156 79.953125 15.242188 80.226562 14.703125 C 80.527344 14.113281 80.878906 13.636719 81.257812 13.277344 C 81.636719 12.917969 82.035156 12.695312 82.445312 12.613281 C 82.847656 12.53125 83.234375 12.582031 83.582031 12.75 C 83.976562 12.953125 84.242188 13.265625 84.371094 13.6875 C 84.484375 14.113281 84.46875 14.613281 84.308594 15.191406 L 83.703125 15.105469 C 83.828125 14.648438 83.84375 14.28125 83.765625 14 C 83.679688 13.726562 83.507812 13.519531 83.238281 13.386719 C 82.949219 13.238281 82.628906 13.210938 82.324219 13.320312 C 82.007812 13.425781 81.71875 13.632812 81.457031 13.945312 C 81.1875 14.253906 80.96875 14.59375 80.785156 14.972656 C 80.527344 15.453125 80.367188 15.902344 80.289062 16.308594 C 80.199219 16.714844 80.21875 17.058594 80.335938 17.339844 C 80.449219 17.628906 80.628906 17.828125 80.871094 17.949219 C 81.164062 18.097656 81.476562 18.097656 81.800781 17.957031 C 82.132812 17.816406 82.460938 17.527344 82.769531 17.085938 M 74.664062 15.984375 L 77.050781 10.085938 L 77.617188 10.3125 L 77.910156 15.804688 L 79.785156 11.175781 L 80.3125 11.382812 L 77.921875 17.285156 L 77.355469 17.054688 L 77.058594 11.566406 L 75.183594 16.191406 Z M 70.601562 14.894531 L 72.324219 8.773438 L 75.429688 9.628906 L 75.222656 10.347656 L 72.691406 9.648438 L 72.160156 11.523438 L 74.539062 12.183594 L 74.328125 12.902344 L 71.960938 12.25 L 71.378906 14.328125 L 74.007812 15.0625 L 73.808594 15.78125 Z M 68.921875 14.566406 L 70.085938 8.320312 L 70.667969 8.425781 L 69.5 14.675781 Z M 67.730469 12.058594 L 68.289062 12.335938 C 68.085938 13.011719 67.804688 13.5 67.441406 13.824219 C 67.082031 14.140625 66.667969 14.28125 66.203125 14.222656 C 65.726562 14.171875 65.351562 13.980469 65.09375 13.671875 C 64.824219 13.355469 64.648438 12.933594 64.554688 12.390625 C 64.460938 11.84375 64.453125 11.273438 64.519531 10.671875 C 64.605469 10.015625 64.765625 9.453125 64.996094 8.984375 C 65.234375 8.511719 65.527344 8.175781 65.886719 7.957031 C 66.242188 7.742188 66.621094 7.660156 67.007812 7.707031 C 67.449219 7.757812 67.804688 7.964844 68.0625 8.320312 C 68.328125 8.679688 68.480469 9.15625 68.53125 9.753906 L 67.933594 9.878906 C 67.886719 9.410156 67.777344 9.050781 67.609375 8.824219 C 67.4375 8.589844 67.207031 8.457031 66.90625 8.417969 C 66.566406 8.378906 66.269531 8.457031 66.019531 8.664062 C 65.757812 8.871094 65.558594 9.164062 65.410156 9.539062 C 65.28125 9.921875 65.183594 10.316406 65.132812 10.734375 C 65.0625 11.277344 65.0625 11.746094 65.125 12.160156 C 65.183594 12.574219 65.324219 12.894531 65.527344 13.121094 C 65.734375 13.347656 65.976562 13.476562 66.242188 13.507812 C 66.566406 13.542969 66.867188 13.441406 67.121094 13.203125 C 67.382812 12.960938 67.582031 12.582031 67.730469 12.058594 M 59.957031 11.648438 L 60.515625 11.59375 C 60.527344 11.910156 60.585938 12.175781 60.675781 12.382812 C 60.765625 12.589844 60.910156 12.761719 61.105469 12.894531 C 61.300781 13.027344 61.53125 13.097656 61.785156 13.105469 C 62.011719 13.117188 62.207031 13.070312 62.382812 12.984375 C 62.5625 12.890625 62.6875 12.761719 62.78125 12.601562 C 62.875 12.433594 62.921875 12.253906 62.925781 12.0625 C 62.929688 11.859375 62.898438 11.6875 62.820312 11.539062 C 62.746094 11.382812 62.613281 11.257812 62.433594 11.148438 C 62.3125 11.078125 62.054688 10.964844 61.644531 10.8125 C 61.242188 10.660156 60.957031 10.519531 60.796875 10.390625 C 60.589844 10.222656 60.4375 10.019531 60.347656 9.785156 C 60.238281 9.546875 60.203125 9.277344 60.207031 8.984375 C 60.222656 8.664062 60.296875 8.363281 60.429688 8.089844 C 60.566406 7.820312 60.765625 7.609375 61.015625 7.472656 C 61.265625 7.335938 61.542969 7.273438 61.839844 7.28125 C 62.164062 7.289062 62.460938 7.378906 62.707031 7.535156 C 62.953125 7.691406 63.144531 7.921875 63.265625 8.222656 C 63.390625 8.523438 63.449219 8.859375 63.449219 9.234375 L 62.882812 9.277344 C 62.859375 8.875 62.769531 8.570312 62.605469 8.359375 C 62.4375 8.152344 62.183594 8.039062 61.835938 8.027344 C 61.480469 8.019531 61.214844 8.097656 61.046875 8.28125 C 60.878906 8.464844 60.785156 8.683594 60.777344 8.949219 C 60.777344 9.175781 60.828125 9.367188 60.933594 9.519531 C 61.042969 9.667969 61.339844 9.828125 61.808594 10 C 62.28125 10.167969 62.613281 10.316406 62.789062 10.4375 C 63.039062 10.613281 63.222656 10.835938 63.339844 11.105469 C 63.449219 11.363281 63.507812 11.664062 63.488281 12.007812 C 63.488281 12.347656 63.40625 12.65625 63.261719 12.953125 C 63.121094 13.25 62.914062 13.476562 62.648438 13.632812 C 62.390625 13.792969 62.105469 13.867188 61.785156 13.855469 C 61.382812 13.84375 61.046875 13.746094 60.777344 13.570312 C 60.515625 13.394531 60.3125 13.136719 60.167969 12.792969 C 60.023438 12.449219 59.953125 12.070312 59.957031 11.648438 M 53.148438 14.203125 L 52.378906 7.894531 L 55.375 7.53125 L 55.464844 8.273438 L 53.058594 8.558594 L 53.296875 10.523438 L 55.378906 10.273438 L 55.46875 11.015625 L 53.386719 11.265625 L 53.734375 14.128906 Z M 48.03125 12.09375 C 48.199219 12.839844 48.476562 13.394531 48.859375 13.753906 C 49.234375 14.117188 49.648438 14.253906 50.066406 14.15625 C 50.503906 14.054688 50.800781 13.761719 50.992188 13.265625 C 51.160156 12.765625 51.160156 12.121094 50.976562 11.324219 C 50.863281 10.824219 50.695312 10.394531 50.492188 10.046875 C 50.28125 9.703125 50.039062 9.449219 49.761719 9.296875 C 49.488281 9.140625 49.207031 9.09375 48.917969 9.164062 C 48.507812 9.257812 48.199219 9.535156 48.003906 10 C 47.804688 10.460938 47.808594 11.160156 48.03125 12.09375 M 47.433594 12.210938 C 47.191406 11.1875 47.195312 10.339844 47.449219 9.667969 C 47.703125 9 48.136719 8.597656 48.746094 8.457031 C 49.148438 8.363281 49.542969 8.414062 49.933594 8.617188 C 50.3125 8.816406 50.648438 9.140625 50.933594 9.585938 C 51.214844 10.035156 51.433594 10.570312 51.574219 11.1875 C 51.71875 11.8125 51.757812 12.398438 51.699219 12.933594 C 51.640625 13.46875 51.472656 13.902344 51.203125 14.234375 C 50.933594 14.558594 50.613281 14.769531 50.238281 14.855469 C 49.824219 14.949219 49.429688 14.894531 49.039062 14.683594 C 48.648438 14.476562 48.3125 14.148438 48.042969 13.699219 C 47.761719 13.25 47.558594 12.757812 47.433594 12.210938 M 42.652344 17.066406 L 41.636719 14.566406 L 38.667969 11.804688 L 39.324219 11.539062 L 40.863281 12.996094 C 41.152344 13.269531 41.429688 13.539062 41.691406 13.824219 C 41.691406 13.46875 41.707031 13.058594 41.726562 12.601562 L 41.824219 10.546875 L 42.464844 10.292969 L 42.191406 14.347656 L 43.199219 16.851562 Z M 39.015625 18.710938 L 36.492188 13.6875 L 35.175781 14.335938 L 34.835938 13.671875 L 37.996094 12.109375 L 38.339844 12.777344 L 37.027344 13.425781 L 39.546875 18.449219 Z M 36.523438 20.046875 L 33.347656 14.53125 L 33.855469 14.234375 L 37.042969 19.757812 Z M 31.605469 20.746094 L 32.019531 20.386719 C 32.222656 20.636719 32.414062 20.828125 32.609375 20.945312 C 32.808594 21.0625 33.015625 21.121094 33.265625 21.121094 C 33.492188 21.117188 33.722656 21.046875 33.9375 20.910156 C 34.125 20.785156 34.265625 20.640625 34.355469 20.46875 C 34.453125 20.292969 34.492188 20.113281 34.464844 19.925781 C 34.441406 19.738281 34.375 19.566406 34.277344 19.402344 C 34.164062 19.234375 34.03125 19.113281 33.886719 19.027344 C 33.730469 18.953125 33.558594 18.917969 33.347656 18.9375 C 33.210938 18.945312 32.929688 19 32.507812 19.101562 C 32.082031 19.207031 31.769531 19.253906 31.5625 19.234375 C 31.300781 19.214844 31.0625 19.136719 30.839844 19 C 30.625 18.855469 30.433594 18.65625 30.273438 18.417969 C 30.105469 18.144531 29.988281 17.859375 29.941406 17.554688 C 29.902344 17.253906 29.9375 16.972656 30.0625 16.71875 C 30.1875 16.464844 30.375 16.257812 30.628906 16.089844 C 30.90625 15.917969 31.195312 15.824219 31.492188 15.8125 C 31.785156 15.804688 32.070312 15.886719 32.347656 16.0625 C 32.621094 16.238281 32.867188 16.480469 33.082031 16.785156 L 32.640625 17.144531 C 32.398438 16.824219 32.136719 16.625 31.882812 16.546875 C 31.617188 16.46875 31.347656 16.523438 31.0625 16.710938 C 30.757812 16.902344 30.59375 17.125 30.5625 17.363281 C 30.519531 17.605469 30.578125 17.839844 30.726562 18.066406 C 30.847656 18.257812 30.996094 18.382812 31.175781 18.445312 C 31.355469 18.5 31.6875 18.46875 32.175781 18.347656 C 32.664062 18.21875 33.007812 18.148438 33.222656 18.148438 C 33.535156 18.148438 33.8125 18.230469 34.0625 18.382812 C 34.3125 18.53125 34.527344 18.753906 34.714844 19.035156 C 34.890625 19.328125 35.011719 19.621094 35.0625 19.949219 C 35.113281 20.269531 35.078125 20.574219 34.953125 20.851562 C 34.832031 21.121094 34.632812 21.351562 34.367188 21.519531 C 34.03125 21.738281 33.703125 21.847656 33.382812 21.859375 C 33.0625 21.863281 32.742188 21.765625 32.429688 21.566406 C 32.117188 21.367188 31.835938 21.09375 31.605469 20.746094 M 27.558594 22.050781 L 28.554688 21.269531 C 28.765625 21.097656 28.902344 20.941406 28.972656 20.78125 C 29.039062 20.625 29.046875 20.457031 29.003906 20.269531 C 28.945312 20.082031 28.867188 19.910156 28.734375 19.75 C 28.546875 19.515625 28.332031 19.371094 28.09375 19.3125 C 27.84375 19.257812 27.597656 19.332031 27.339844 19.539062 L 26.238281 20.410156 Z M 29.332031 25.195312 L 25.335938 20.226562 L 26.878906 19.003906 C 27.195312 18.753906 27.464844 18.613281 27.695312 18.574219 C 27.933594 18.535156 28.1875 18.589844 28.464844 18.738281 C 28.742188 18.886719 28.992188 19.097656 29.210938 19.371094 C 29.496094 19.722656 29.65625 20.082031 29.6875 20.453125 C 29.722656 20.828125 29.601562 21.171875 29.316406 21.5 C 29.507812 21.488281 29.667969 21.5 29.796875 21.53125 C 30.074219 21.601562 30.371094 21.71875 30.710938 21.890625 L 32.402344 22.761719 L 31.824219 23.222656 L 30.53125 22.550781 C 30.15625 22.359375 29.863281 22.214844 29.648438 22.128906 C 29.4375 22.035156 29.265625 21.992188 29.144531 21.980469 C 29.027344 21.972656 28.921875 21.988281 28.828125 22.019531 C 28.765625 22.039062 28.675781 22.101562 28.554688 22.195312 L 28.019531 22.621094 L 29.796875 24.824219 Z M 26.300781 28.113281 L 21.859375 23.523438 L 24.191406 21.316406 L 24.710938 21.851562 L 22.816406 23.660156 L 24.171875 25.066406 L 25.949219 23.375 L 26.476562 23.914062 L 24.695312 25.609375 L 26.210938 27.167969 L 28.179688 25.292969 L 28.703125 25.832031 Z M 24.371094 30.347656 L 18.40625 27.464844 L 18.816406 26.992188 L 23.097656 29.152344 C 23.441406 29.328125 23.757812 29.496094 24.042969 29.660156 C 23.824219 29.382812 23.609375 29.09375 23.410156 28.800781 L 20.683594 24.871094 L 21.078125 24.417969 L 24.773438 29.890625 Z M 22.574219 32.691406 L 17.375 28.964844 L 17.722656 28.492188 L 22.921875 32.21875 Z M 19.984375 36.546875 L 14.589844 33.121094 L 14.917969 32.613281 L 20.410156 33.347656 L 16.175781 30.660156 L 16.480469 30.1875 L 21.875 33.613281 L 21.554688 34.121094 L 16.050781 33.382812 L 20.292969 36.070312 Z M 13.496094 35.121094 L 13.765625 34.597656 L 17.066406 36.246094 C 17.640625 36.542969 18.074219 36.8125 18.367188 37.074219 C 18.660156 37.332031 18.855469 37.632812 18.949219 37.96875 C 19.046875 38.3125 18.992188 38.667969 18.796875 39.046875 C 18.609375 39.421875 18.359375 39.679688 18.054688 39.816406 C 17.753906 39.957031 17.402344 39.996094 16.996094 39.917969 C 16.601562 39.851562 16.09375 39.65625 15.488281 39.351562 L 12.183594 37.699219 L 12.449219 37.175781 L 15.753906 38.828125 C 16.253906 39.078125 16.636719 39.230469 16.902344 39.285156 C 17.175781 39.335938 17.410156 39.320312 17.613281 39.230469 C 17.816406 39.140625 17.984375 38.980469 18.09375 38.757812 C 18.289062 38.375 18.304688 38.042969 18.132812 37.75 C 17.960938 37.460938 17.515625 37.136719 16.800781 36.773438 Z M 15.363281 47.765625 L 9.191406 46.070312 L 9.351562 45.492188 L 14.820312 44.582031 L 9.972656 43.253906 L 10.128906 42.714844 L 16.300781 44.40625 L 16.136719 44.988281 L 10.664062 45.894531 L 15.515625 47.226562 Z M 10.992188 50.949219 L 11.21875 49.710938 C 11.273438 49.449219 11.273438 49.242188 11.21875 49.078125 C 11.171875 48.914062 11.0625 48.78125 10.90625 48.671875 C 10.746094 48.5625 10.566406 48.492188 10.363281 48.453125 C 10.058594 48.398438 9.804688 48.429688 9.585938 48.539062 C 9.359375 48.652344 9.230469 48.867188 9.164062 49.191406 L 8.902344 50.566406 Z M 14.410156 52.179688 L 8.105469 51.019531 L 8.464844 49.085938 C 8.535156 48.703125 8.652344 48.417969 8.800781 48.230469 C 8.953125 48.054688 9.179688 47.929688 9.488281 47.859375 C 9.796875 47.796875 10.128906 47.796875 10.46875 47.851562 C 10.917969 47.941406 11.273438 48.105469 11.550781 48.367188 C 11.816406 48.621094 11.953125 48.960938 11.957031 49.398438 C 12.09375 49.257812 12.21875 49.167969 12.335938 49.109375 C 12.59375 48.984375 12.898438 48.867188 13.265625 48.785156 L 15.121094 48.351562 L 14.988281 49.0625 L 13.566406 49.398438 C 13.15625 49.496094 12.839844 49.582031 12.621094 49.65625 C 12.398438 49.726562 12.238281 49.800781 12.140625 49.867188 C 12.046875 49.945312 11.984375 50.015625 11.925781 50.101562 C 11.898438 50.160156 11.863281 50.265625 11.839844 50.417969 L 11.71875 51.085938 L 14.511719 51.601562 Z M 13.878906 56.332031 L 7.515625 55.570312 L 7.898438 52.398438 L 8.648438 52.488281 L 8.332031 55.078125 L 10.285156 55.308594 L 10.578125 52.882812 L 11.328125 52.972656 L 11.03125 55.398438 L 13.199219 55.660156 L 13.535156 52.964844 L 14.269531 53.054688 Z M 13.757812 60.851562 L 7.351562 60.644531 L 7.371094 60.0625 L 10.015625 60.144531 L 10.085938 57.855469 L 7.445312 57.773438 L 7.464844 57.1875 L 13.875 57.394531 L 13.851562 57.976562 L 10.832031 57.875 L 10.761719 60.167969 L 13.773438 60.265625 Z M 14.007812 63.589844 L 8.371094 64.011719 L 8.480469 65.464844 L 7.726562 65.519531 L 7.464844 62.027344 L 8.214844 61.96875 L 8.324219 63.425781 L 13.96875 63 Z M 8.007812 67.484375 L 7.898438 66.914062 L 11.535156 66.238281 C 12.167969 66.121094 12.683594 66.082031 13.078125 66.109375 C 13.464844 66.140625 13.796875 66.257812 14.082031 66.476562 C 14.363281 66.691406 14.542969 67.003906 14.625 67.429688 C 14.699219 67.832031 14.660156 68.1875 14.503906 68.480469 C 14.347656 68.777344 14.09375 69.011719 13.726562 69.195312 C 13.355469 69.375 12.839844 69.523438 12.175781 69.65625 L 8.535156 70.320312 L 8.425781 69.746094 L 12.066406 69.078125 C 12.617188 68.972656 13.007812 68.867188 13.257812 68.75 C 13.503906 68.632812 13.683594 68.476562 13.789062 68.277344 C 13.898438 68.082031 13.929688 67.859375 13.882812 67.617188 C 13.804688 67.1875 13.605469 66.917969 13.296875 66.792969 C 12.988281 66.65625 12.433594 66.667969 11.644531 66.8125 Z M 13.003906 74.3125 C 13.75 74.101562 14.285156 73.800781 14.640625 73.410156 C 14.988281 73.011719 15.105469 72.605469 14.980469 72.183594 C 14.863281 71.765625 14.550781 71.472656 14.042969 71.324219 C 13.535156 71.167969 12.882812 71.207031 12.085938 71.429688 C 11.585938 71.570312 11.164062 71.746094 10.828125 71.976562 C 10.488281 72.191406 10.242188 72.445312 10.097656 72.722656 C 9.960938 73.011719 9.933594 73.292969 10.015625 73.574219 C 10.128906 73.972656 10.417969 74.257812 10.902344 74.4375 C 11.375 74.617188 12.082031 74.570312 13.003906 74.3125 M 13.15625 74.898438 C 12.132812 75.183594 11.273438 75.21875 10.589844 75.003906 C 9.902344 74.785156 9.476562 74.371094 9.304688 73.773438 C 9.191406 73.382812 9.230469 72.988281 9.410156 72.59375 C 9.589844 72.207031 9.898438 71.859375 10.339844 71.554688 C 10.777344 71.253906 11.3125 71.015625 11.917969 70.84375 C 12.542969 70.671875 13.128906 70.597656 13.675781 70.636719 C 14.214844 70.671875 14.664062 70.8125 15.003906 71.0625 C 15.347656 71.3125 15.578125 71.621094 15.683594 71.996094 C 15.789062 72.390625 15.753906 72.789062 15.5625 73.183594 C 15.378906 73.574219 15.0625 73.929688 14.625 74.226562 C 14.183594 74.519531 13.703125 74.75 13.15625 74.898438 M 15.785156 78.722656 L 15.519531 78.238281 C 15.808594 78.097656 16.03125 77.945312 16.1875 77.777344 C 16.34375 77.613281 16.445312 77.414062 16.484375 77.179688 C 16.535156 76.949219 16.503906 76.710938 16.414062 76.480469 C 16.332031 76.269531 16.207031 76.101562 16.0625 75.980469 C 15.910156 75.859375 15.734375 75.789062 15.546875 75.773438 C 15.359375 75.757812 15.167969 75.785156 14.988281 75.859375 C 14.804688 75.933594 14.652344 76.035156 14.550781 76.164062 C 14.433594 76.296875 14.371094 76.460938 14.34375 76.671875 C 14.328125 76.808594 14.328125 77.089844 14.347656 77.519531 C 14.367188 77.949219 14.347656 78.261719 14.292969 78.457031 C 14.222656 78.710938 14.09375 78.933594 13.914062 79.117188 C 13.734375 79.304688 13.503906 79.449219 13.238281 79.558594 C 12.921875 79.667969 12.625 79.722656 12.316406 79.707031 C 12.007812 79.695312 11.738281 79.605469 11.511719 79.429688 C 11.285156 79.257812 11.117188 79.027344 11.007812 78.753906 C 10.878906 78.445312 10.847656 78.152344 10.890625 77.863281 C 10.941406 77.574219 11.082031 77.3125 11.3125 77.082031 C 11.535156 76.84375 11.820312 76.65625 12.167969 76.507812 L 12.433594 77.003906 C 12.070312 77.179688 11.828125 77.382812 11.699219 77.625 C 11.5625 77.863281 11.5625 78.140625 11.695312 78.457031 C 11.832031 78.785156 12.011719 78.992188 12.246094 79.074219 C 12.480469 79.152344 12.722656 79.148438 12.964844 79.050781 C 13.183594 78.972656 13.339844 78.84375 13.4375 78.679688 C 13.535156 78.523438 13.566406 78.195312 13.535156 77.695312 C 13.503906 77.191406 13.503906 76.84375 13.542969 76.636719 C 13.605469 76.335938 13.734375 76.074219 13.941406 75.859375 C 14.136719 75.660156 14.394531 75.488281 14.710938 75.359375 C 15.03125 75.234375 15.351562 75.183594 15.683594 75.199219 C 16.015625 75.214844 16.300781 75.304688 16.554688 75.480469 C 16.800781 75.660156 16.988281 75.882812 17.101562 76.179688 C 17.25 76.550781 17.296875 76.890625 17.242188 77.203125 C 17.1875 77.519531 17.027344 77.808594 16.765625 78.074219 C 16.503906 78.339844 16.1875 78.554688 15.785156 78.722656 "/>
<path style=" stroke:none;fill-rule:nonzero;fill:rgb(92.941177%,44.705883%,12.941177%);fill-opacity:1;" d="M 88.699219 31.050781 C 81.023438 23.449219 70.835938 19.257812 60 19.257812 C 49.164062 19.257812 38.96875 23.449219 31.304688 31.050781 C 23.640625 38.648438 19.414062 48.753906 19.414062 59.503906 C 19.414062 70.25 23.640625 80.359375 31.304688 87.960938 C 38.96875 95.558594 49.164062 99.742188 60 99.742188 C 70.835938 99.742188 81.023438 95.558594 88.699219 87.960938 C 96.359375 80.359375 100.585938 70.25 100.585938 59.503906 C 100.585938 48.753906 96.359375 38.648438 88.699219 31.050781 M 88.09375 87.363281 C 80.59375 94.804688 70.613281 98.902344 60 98.902344 C 49.386719 98.902344 39.40625 94.804688 31.902344 87.363281 C 24.394531 79.925781 20.269531 70.027344 20.269531 59.503906 C 20.269531 48.980469 24.394531 39.085938 31.902344 31.640625 C 39.40625 24.199219 49.386719 20.097656 60 20.097656 C 70.613281 20.097656 80.59375 24.199219 88.09375 31.640625 C 95.597656 39.085938 99.730469 48.980469 99.730469 59.503906 C 99.730469 70.027344 95.597656 79.925781 88.09375 87.363281 "/>
<path style=" stroke:none;fill-rule:nonzero;fill:rgb(92.941177%,44.705883%,12.941177%);fill-opacity:1;" d="M 102.425781 17.429688 C 91.097656 6.1875 76.023438 0 60 0 C 43.972656 0 28.90625 6.195312 17.574219 17.429688 C 6.242188 28.667969 0 43.609375 0 59.503906 C 0 75.398438 6.242188 90.335938 17.574219 101.574219 C 28.90625 112.8125 43.972656 119 60 119 C 76.023438 119 91.097656 112.8125 102.425781 101.574219 C 113.757812 90.335938 120 75.398438 120 59.503906 C 120 43.609375 113.757812 28.667969 102.425781 17.429688 M 101.355469 100.515625 C 90.3125 111.472656 75.625 117.503906 60 117.503906 C 44.375 117.503906 29.6875 111.472656 18.644531 100.515625 C 7.597656 89.5625 1.515625 74.996094 1.515625 59.503906 C 1.515625 44.011719 7.597656 29.441406 18.644531 18.492188 C 29.6875 7.535156 44.375 1.496094 60 1.496094 C 75.625 1.496094 90.3125 7.535156 101.355469 18.492188 C 112.402344 29.445312 118.480469 44.011719 118.480469 59.503906 C 118.480469 74.992188 112.402344 89.5625 101.355469 100.515625 "/>
<path style=" stroke:none;fill-rule:evenodd;fill:rgb(92.941177%,44.705883%,12.941177%);fill-opacity:1;" d="M 22.660156 96.28125 L 22.40625 96.132812 L 22.503906 95.804688 C 22.546875 95.671875 22.578125 95.648438 22.535156 95.5 C 22.453125 95.253906 22.277344 95.1875 22.164062 95.003906 C 22.320312 94.699219 22.636719 94.554688 22.929688 94.355469 C 23.101562 94.25 23.117188 94.242188 23.296875 94.101562 C 23.542969 93.910156 23.554688 93.972656 23.726562 93.796875 C 23.78125 93.421875 23.53125 93.363281 23.726562 92.90625 C 23.941406 92.816406 23.941406 92.859375 24.15625 92.832031 L 25.414062 92.703125 C 25.289062 93.238281 24.488281 94.128906 24.105469 94.53125 C 23.855469 94.800781 23.058594 96.128906 22.660156 96.28125 M 21.84375 92.140625 L 22.253906 91.496094 L 23.289062 91.402344 C 23.554688 91.386719 24.109375 91.300781 24.347656 91.519531 C 24.207031 91.910156 24.15625 91.71875 23.78125 91.875 C 23.457031 92.007812 23.511719 92.050781 23.128906 92.082031 C 22.789062 92.113281 22.195312 92.59375 21.84375 92.140625 M 19.0625 93.953125 C 19.371094 93.941406 19.773438 93.972656 20.253906 93.972656 C 20.480469 93.972656 20.648438 93.984375 20.886719 93.984375 C 21.160156 93.984375 21.269531 93.984375 21.519531 94.210938 C 21.386719 94.449219 21.371094 94.511719 21.136719 94.558594 L 21.035156 94.566406 C 20.574219 94.601562 19.207031 94.25 19.0625 93.953125 M 20.648438 92.316406 C 20.386719 92.769531 20.253906 92.546875 19.863281 92.582031 C 19.582031 92.609375 19.320312 92.742188 18.992188 92.6875 C 18.882812 92.671875 18.679688 92.640625 18.566406 92.621094 C 18.390625 92.570312 18.304688 92.492188 18.121094 92.492188 C 17.742188 92.492188 17.421875 92.925781 17.679688 93.539062 C 18.035156 94.390625 17.691406 94.300781 18.484375 94.621094 C 19.003906 94.835938 20.046875 95.105469 20.316406 95.550781 C 20.269531 95.714844 19.964844 96.050781 19.644531 95.964844 C 19.515625 95.917969 19.597656 95.929688 19.464844 95.875 L 19.289062 95.808594 C 19.023438 96.257812 19.390625 96.035156 19.003906 96.757812 L 19.621094 97.363281 C 20.695312 96.933594 20.316406 95.628906 21.429688 96 C 21.808594 96.121094 21.851562 96.027344 22.179688 96.074219 C 22.585938 96.851562 21.992188 96.675781 21.765625 97.441406 C 21.601562 98.023438 22.28125 98.664062 22.28125 98.664062 C 22.84375 98.71875 23.226562 97.921875 23.589844 97.441406 L 24.8125 95.902344 C 25.003906 95.65625 25.496094 95.1875 25.996094 94.523438 C 26.210938 94.25 26.386719 94.175781 26.675781 93.875 C 26.957031 93.578125 27.066406 93.40625 27.324219 93.050781 C 27.503906 92.796875 27.734375 92.628906 27.945312 92.34375 C 28.316406 91.839844 28.25 91.769531 28.105469 91.53125 C 27.6875 90.855469 27.6875 90.441406 26.929688 90.359375 C 26.621094 90.335938 26.484375 90.464844 26.21875 90.457031 L 24.644531 90.40625 C 24.304688 90.410156 24.121094 90.476562 23.839844 90.304688 C 24.109375 90.027344 24.15625 90 24.507812 89.945312 C 24.855469 89.894531 24.894531 89.792969 25.210938 89.765625 C 26.464844 89.640625 25.386719 89.621094 26.726562 89.773438 C 27.054688 89.816406 27.226562 89.710938 27.417969 89.378906 C 27.769531 88.765625 27.269531 89.128906 27.503906 88.195312 C 27.574219 87.910156 27.550781 88 27.707031 87.863281 C 28.046875 87.558594 28.105469 87.574219 28.355469 87.109375 C 27.964844 86.078125 27.574219 86.324219 27.574219 86.324219 C 27.585938 86.347656 27.535156 86.351562 27.53125 86.355469 L 25.789062 87.574219 C 25.046875 88.039062 23.425781 87.570312 22.648438 87.257812 C 22.253906 87.09375 22.46875 87.292969 22.101562 87.113281 L 20.425781 86.40625 C 20.085938 86.320312 20.171875 86.300781 19.890625 86.386719 C 19.675781 86.4375 19.613281 86.5 19.464844 86.746094 C 19.625 87.132812 19.613281 87.242188 20.085938 87.542969 C 20.800781 88 22.742188 88.53125 23.074219 88.921875 C 23.058594 89.066406 23.160156 88.941406 22.96875 89.136719 C 22.8125 89.316406 21.726562 89.703125 21.53125 89.664062 C 21.082031 89.589844 21.21875 89.292969 20.632812 89.578125 C 20.257812 89.765625 20.171875 90 19.820312 90.054688 C 19.597656 90.089844 19.613281 90.0625 19.40625 90.125 C 19.132812 90.210938 19.265625 90.199219 18.957031 90.210938 C 17.960938 90.257812 18.457031 90.410156 17.675781 90.386719 C 17.332031 90.371094 17.066406 90.484375 16.808594 90.476562 C 16.539062 90.464844 16.472656 90.386719 16.304688 90.355469 C 15.886719 90.292969 14.976562 91.089844 15.824219 91.6875 C 16.589844 92.230469 16.398438 91.085938 19.324219 91.183594 C 19.625 91.203125 19.992188 91.25 20.164062 91.53125 C 20.246094 91.652344 20.253906 91.769531 20.332031 91.914062 C 20.449219 92.121094 20.53125 92.15625 20.648438 92.316406 "/>
<path style=" stroke:none;fill-rule:evenodd;fill:rgb(92.941177%,44.705883%,12.941177%);fill-opacity:1;" d="M 97.746094 90.257812 C 97.890625 89.574219 97.613281 89.789062 98.28125 89.484375 C 98.425781 89.902344 98.21875 90.015625 98.054688 90.355469 C 97.871094 90.757812 98.058594 90.921875 97.601562 91.164062 L 97.589844 90.671875 C 97.636719 90.398438 97.675781 90.554688 97.746094 90.257812 M 95.488281 88.984375 C 95.347656 88.730469 95.433594 88.433594 95.648438 88.191406 C 95.789062 88.515625 95.785156 88.765625 95.488281 88.984375 M 95.75 95.398438 C 95.75 95.378906 95.75 95.351562 95.757812 95.335938 C 95.761719 95.324219 95.761719 95.292969 95.769531 95.277344 L 95.988281 93.894531 C 96.105469 92.886719 96.199219 93.304688 96.328125 92.5 C 96.519531 91.335938 96.746094 91.554688 96.769531 91.046875 C 96.816406 90.507812 96.976562 90.824219 97.152344 90.347656 C 97.320312 89.882812 97.023438 90.15625 97.566406 89.714844 C 97.753906 90.792969 97.007812 90.988281 97.601562 91.578125 C 97.4375 91.789062 97.144531 92.636719 97.066406 92.90625 C 96.925781 93.363281 96.847656 93.6875 96.53125 94.175781 C 96.050781 94.929688 96.015625 94.679688 96.207031 95.011719 C 96.8125 95 97.15625 94.234375 97.4375 93.863281 C 97.4375 93.785156 98.003906 92.796875 98.089844 92.613281 C 98.273438 92.199219 98.363281 91.664062 98.804688 91.289062 C 99.0625 92.175781 98.257812 93.179688 98.347656 93.507812 C 98.476562 93.972656 98.832031 93.921875 98.816406 94.195312 C 98.859375 94.5 98.890625 94.257812 98.664062 94.558594 L 97.84375 95.578125 C 97.589844 95.964844 96.628906 96.640625 96.554688 96.859375 C 97.246094 97.691406 99.53125 94.570312 100.160156 94.570312 C 100.304688 94.605469 100.191406 94.492188 100.410156 94.734375 C 100.476562 94.804688 100.523438 94.886719 100.554688 94.960938 C 100.746094 95.382812 100.636719 95.917969 100.304688 96.273438 C 100.59375 96.519531 100.296875 96.203125 100.527344 96.40625 C 100.785156 96.625 100.578125 96.675781 100.933594 97.085938 C 101.839844 97.082031 102.738281 96.832031 102.429688 95.738281 C 102.359375 95.488281 102.367188 95.363281 102.269531 95.125 C 102.046875 94.625 101.445312 94 101.414062 93.417969 C 102.738281 92.253906 104.179688 91.875 103.242188 90.96875 C 103.015625 90.761719 103 90.867188 102.871094 90.59375 C 102.835938 90.511719 102.898438 90.125 102.496094 90.292969 C 102.121094 90.453125 101.78125 90.996094 101.460938 91.273438 C 100.878906 91.769531 100.410156 92.34375 100.328125 92.40625 C 99.949219 92.308594 99.839844 92.214844 99.828125 91.761719 L 99.6875 89.917969 C 99.691406 89.621094 99.53125 89.226562 99.210938 89.113281 C 98.792969 88.96875 98.730469 89.351562 98.355469 89.371094 C 98.167969 89.046875 98.40625 88.863281 98.566406 88.597656 C 98.691406 88.390625 98.921875 88.109375 99.070312 87.863281 C 99.199219 87.652344 99.121094 87.671875 99.210938 87.449219 C 99.292969 87.273438 99.34375 87.265625 99.375 87.09375 C 99.421875 86.917969 99.324219 86.125 98.71875 86.519531 C 98.640625 86.570312 98.5 86.691406 98.417969 86.75 C 98.222656 86.902344 98.007812 87.035156 97.835938 87.222656 C 97.644531 87.433594 97.128906 89.539062 96.542969 90.105469 C 96.300781 89.75 96.472656 90.101562 96.46875 89.832031 L 96.640625 89.097656 C 97.019531 87.609375 96.804688 88.121094 96.933594 87.101562 C 96.996094 86.636719 97.34375 86.550781 97.035156 86.109375 C 96.582031 85.960938 96.390625 86.1875 96.015625 86.222656 C 95.722656 85.664062 96.78125 85.238281 95.675781 84.988281 L 95.199219 84.992188 C 94.984375 84.566406 95.078125 84.457031 94.546875 84.367188 C 93.710938 84.820312 94.371094 85.542969 94.484375 86.15625 C 94.558594 86.5 94.449219 86.320312 94.429688 86.621094 C 94.394531 87.023438 94.546875 86.515625 94.34375 87.257812 C 94.328125 87.316406 94.320312 87.398438 94.292969 87.460938 C 94.230469 87.644531 94.171875 87.714844 93.984375 87.828125 C 93.746094 87.683594 93.84375 87.558594 93.457031 87.519531 C 92.703125 87.449219 92.683594 88.273438 92.742188 88.761719 C 92.511719 88.921875 92.40625 88.898438 92.195312 88.96875 L 92.082031 89.324219 C 91.914062 89.949219 92.6875 90.859375 93.066406 91.335938 C 93.332031 91.664062 93.359375 91.96875 93.511719 92.089844 C 93.648438 92.183594 94.015625 92.242188 94.253906 92.183594 C 94.746094 92.070312 94.730469 92.003906 94.902344 91.671875 C 95.199219 91.09375 95.394531 91.417969 95.265625 90.957031 C 95.214844 90.757812 94.882812 90.476562 95.402344 90.40625 L 95.386719 90.71875 L 95.386719 90.765625 C 95.347656 91.992188 95.070312 92.308594 95.097656 92.609375 C 95.15625 93.324219 94.566406 94.210938 94.398438 94.714844 C 94.125 95.574219 94.792969 95.863281 95.003906 96 C 95.320312 95.769531 95.5625 95.609375 95.75 95.398438 "/>
<path style=" stroke:none;fill-rule:nonzero;fill:rgb(92.941177%,44.705883%,12.941177%);fill-opacity:1;" d="M 58.355469 84.410156 L 58.355469 73.785156 C 58.308594 73.050781 57.679688 72.464844 56.933594 72.464844 L 56.96875 72.445312 C 52.808594 72.351562 49 71.933594 45.925781 71.300781 C 45.644531 71.246094 45.257812 71.257812 45.09375 71.539062 C 44.914062 71.839844 44.992188 72.066406 45.09375 72.421875 C 45.191406 72.78125 45.644531 74.28125 45.644531 74.28125 C 45.933594 75.550781 47.636719 75.855469 48.722656 76.082031 L 53.570312 77.121094 C 55.894531 77.625 56.535156 79.421875 56.535156 81.792969 L 56.535156 83.90625 C 56.535156 85.757812 56.222656 86.953125 54.988281 87.003906 C 53.414062 87.078125 52.269531 85.523438 51.660156 84.171875 C 51.640625 84.144531 51.628906 84.113281 51.621094 84.089844 L 51.597656 84.042969 C 51.546875 83.921875 51.496094 83.804688 51.453125 83.695312 C 51.039062 82.675781 50.113281 80.441406 50.113281 80.441406 C 50.113281 80.441406 49.992188 80.042969 49.796875 79.914062 C 49.605469 79.773438 49.429688 79.730469 49.1875 79.730469 L 47.546875 79.730469 L 49.664062 86.992188 C 50.09375 88.476562 50.625 90.191406 51.808594 91.289062 C 53.261719 92.644531 55.636719 93.382812 58.785156 93.382812 C 61.9375 93.382812 64.3125 92.644531 65.769531 91.289062 C 66.949219 90.191406 67.480469 88.476562 67.917969 86.992188 L 70.027344 79.730469 L 68.382812 79.730469 C 68.148438 79.730469 67.972656 79.773438 67.773438 79.914062 C 67.582031 80.042969 67.457031 80.441406 67.457031 80.441406 C 67.457031 80.441406 66.539062 82.675781 66.121094 83.695312 C 66.074219 83.804688 66.027344 83.921875 65.976562 84.042969 L 65.960938 84.089844 C 65.945312 84.113281 65.9375 84.144531 65.921875 84.171875 C 65.300781 85.523438 64.15625 87.078125 62.582031 87.003906 C 61.34375 86.953125 61.035156 85.757812 61.035156 83.90625 L 61.035156 81.792969 C 61.035156 79.421875 61.671875 77.625 64.011719 77.121094 L 68.847656 76.082031 C 69.933594 75.855469 71.636719 75.550781 71.929688 74.28125 C 71.929688 74.28125 72.378906 72.78125 72.480469 72.421875 C 72.582031 72.066406 72.664062 71.839844 72.480469 71.539062 C 72.316406 71.257812 71.9375 71.246094 71.644531 71.300781 C 68.570312 71.933594 64.773438 72.351562 60.609375 72.445312 L 60.640625 72.464844 C 59.886719 72.464844 59.265625 73.050781 59.214844 73.785156 L 59.214844 84.410156 C 59.214844 84.644531 59.023438 84.839844 58.785156 84.839844 C 58.554688 84.839844 58.355469 84.644531 58.355469 84.410156 "/>
<path style=" stroke:none;fill-rule:nonzero;fill:rgb(92.941177%,44.705883%,12.941177%);fill-opacity:1;" d="M 59.035156 29.988281 C 59.035156 29.988281 55.75 31.808594 54.5625 34.265625 C 54.066406 35.304688 54.351562 35.976562 56.257812 34.808594 C 58.964844 33.15625 61.40625 31.90625 64.304688 30.882812 C 67.507812 29.761719 73.375 28.402344 73.792969 28.601562 C 73.96875 28.6875 73.980469 29.011719 73.636719 29.320312 C 65.335938 36.886719 64.441406 42.523438 66.707031 43.410156 C 67.820312 43.855469 69.707031 43.601562 71.390625 43.050781 C 73.074219 42.507812 74.714844 41.800781 76.605469 41.746094 C 81.035156 41.609375 82.894531 49.945312 78.101562 57.839844 C 75.417969 62.277344 68.273438 67.90625 67.761719 67.699219 C 67.535156 67.605469 67.453125 67.359375 67.554688 66.949219 C 67.621094 66.675781 70.1875 61.082031 68.15625 60.191406 C 67.835938 60.050781 67.042969 60.277344 66.289062 62.050781 C 65.316406 64.351562 64.578125 64.773438 64.179688 64.675781 C 63.78125 64.582031 63.917969 63.949219 63.988281 63.519531 C 64.046875 63.089844 64.140625 62.726562 63.894531 62.886719 C 63.664062 63.042969 61.375 65.585938 60.660156 65.535156 C 60.394531 65.507812 60.238281 65.234375 60.40625 64.855469 C 60.558594 64.476562 60.738281 63.964844 60.738281 63.964844 C 60.738281 63.964844 56.800781 67.757812 51.988281 68.667969 C 51.628906 68.738281 50.679688 68.96875 50.371094 68.808594 C 50.203125 68.726562 50.09375 68.328125 50.394531 68.121094 C 50.710938 67.914062 55.804688 65.300781 58.011719 61.617188 C 58.679688 60.5 58.691406 59.933594 58.515625 59.632812 C 58.070312 58.878906 55.894531 59.625 54.476562 60.230469 C 53.050781 60.828125 50.914062 62.0625 48.199219 62.515625 C 44.832031 63.089844 40.820312 62.074219 38.746094 59.511719 C 36.351562 56.558594 36.207031 53.648438 36.550781 50.703125 C 37.609375 41.457031 46.519531 35.597656 49.613281 33.710938 C 53.339844 31.429688 58.875 29.058594 59.300781 29.234375 C 59.515625 29.320312 59.613281 29.644531 59.035156 29.988281 "/>
<path style=" stroke:none;fill-rule:evenodd;fill:rgb(92.941177%,44.705883%,12.941177%);fill-opacity:1;" d="M 86.414062 95.933594 C 86.605469 96.371094 86.8125 96.386719 87.027344 96.761719 C 86.945312 97.039062 86.78125 97.347656 86.675781 97.640625 C 86.519531 98.109375 86.617188 98.175781 86.199219 98.5 C 85.65625 97.808594 85.777344 96.585938 85.511719 95.859375 C 85.019531 94.5 83.605469 94.753906 83.507812 95.632812 C 83.449219 96.292969 84.28125 96.871094 84.808594 98.304688 C 85.101562 99.117188 85.234375 99.96875 84.933594 100.785156 C 84.449219 102.125 82.894531 103.242188 81.78125 104.121094 C 80.496094 105.132812 81.777344 105.90625 82.574219 105.597656 C 83.089844 105.394531 83.476562 105.042969 83.855469 104.640625 C 84.429688 104.054688 85.421875 102.253906 85.753906 102.601562 C 86.128906 102.984375 85.597656 102.292969 85.832031 102.691406 C 85.9375 102.855469 85.875 103.070312 85.882812 103.277344 C 85.890625 103.703125 85.714844 104.359375 85.445312 104.707031 L 82.933594 107.355469 C 82.628906 107.605469 82.332031 107.726562 82.300781 107.996094 C 82.429688 107.980469 82.296875 108.023438 82.464844 107.929688 C 82.492188 107.914062 82.566406 107.867188 82.589844 107.84375 C 83.332031 107.363281 83.132812 107.46875 84.023438 107.332031 C 85.042969 107.179688 85.742188 106.574219 86.421875 105.648438 C 87.773438 103.792969 87.324219 103.226562 87.082031 101.558594 C 87.035156 101.242188 86.957031 100.710938 87.050781 100.453125 L 88.464844 97.550781 C 88.855469 96.683594 89.464844 96.210938 88.507812 95.632812 C 88.175781 95.433594 87.839844 95.390625 87.492188 95.46875 C 87.273438 95.515625 86.488281 95.878906 86.414062 95.933594 "/>
<path style=" stroke:none;fill-rule:evenodd;fill:rgb(92.941177%,44.705883%,12.941177%);fill-opacity:1;" d="M 88.773438 100.792969 C 88.617188 100.847656 88.898438 100.671875 88.539062 100.871094 C 88.453125 100.925781 88.417969 100.949219 88.34375 101.011719 C 88.207031 101.125 88.097656 101.265625 87.988281 101.378906 C 86.121094 103.488281 89.257812 102.761719 90.597656 102.90625 C 90.75 102.921875 90.84375 102.90625 91.003906 102.914062 C 92.515625 103.03125 92.550781 103.425781 92.863281 102.210938 C 93.054688 101.476562 92.167969 100.820312 92.015625 100.6875 C 91.304688 100.0625 91.59375 99.738281 90.464844 99.988281 C 90.050781 100.089844 90.003906 100.214844 89.605469 100.355469 C 88.746094 100.660156 89.164062 100.660156 88.773438 100.792969 "/>
<path style=" stroke:none;fill-rule:nonzero;fill:rgb(92.941177%,44.705883%,12.941177%);fill-opacity:1;" d="M 65.347656 111.429688 C 65.347656 111.4375 65.316406 111.738281 65.324219 111.738281 C 64.878906 111.480469 64.488281 111.386719 64.484375 111.386719 C 64.472656 111.363281 65.113281 110.230469 65.125 110.203125 C 65.132812 110.191406 65.136719 110.183594 65.136719 110.179688 C 65.144531 110.175781 65.15625 110.175781 65.167969 110.171875 C 65.167969 110.179688 65.359375 111.363281 65.347656 111.429688 M 66.488281 108.691406 L 66.488281 108.683594 C 66.542969 108.613281 66.605469 108.539062 66.632812 108.464844 C 66.769531 108.039062 67.347656 107.71875 67.652344 107.050781 C 67.675781 107 67.769531 106.882812 67.703125 106.890625 C 67.640625 106.898438 66.613281 107.863281 66.550781 107.910156 C 66.503906 107.953125 66.464844 107.976562 66.4375 107.996094 C 66.425781 107.605469 66.335938 107.160156 66.335938 107.144531 L 66.335938 106.96875 C 66.324219 106.90625 66.335938 106.882812 66.398438 106.855469 C 66.410156 106.851562 66.4375 106.839844 66.4375 106.832031 C 66.441406 106.796875 66.46875 106.785156 66.488281 106.769531 C 66.53125 106.726562 66.582031 106.683594 66.636719 106.660156 C 66.691406 106.632812 66.742188 106.601562 66.792969 106.574219 C 66.851562 106.542969 66.917969 106.515625 66.980469 106.488281 C 67.050781 106.460938 67.128906 106.429688 67.199219 106.398438 C 67.207031 106.394531 67.210938 106.390625 67.21875 106.390625 C 68.164062 105.746094 67.375 105.566406 67.363281 105.566406 C 67.316406 105.558594 67.046875 105.476562 66.308594 105.703125 C 66.261719 105.710938 66.183594 105.59375 66.183594 105.539062 C 66.179688 105.5 66.160156 105.460938 66.167969 105.425781 C 66.167969 105.421875 66.128906 104.652344 66.113281 104.578125 C 66.113281 104.550781 66.105469 104.523438 66.105469 104.488281 C 66.101562 104.445312 66.101562 104.402344 66.105469 104.359375 C 66.105469 104.355469 66.105469 104.347656 66.101562 104.34375 C 66.105469 104.308594 66.109375 104.277344 66.113281 104.242188 C 66.128906 104.214844 66.128906 104.1875 66.121094 104.164062 C 66.160156 103.800781 66.15625 103.648438 65.761719 103.460938 C 65.261719 103.226562 64.496094 103.234375 64.167969 103.476562 C 63.902344 103.664062 63.90625 103.835938 64.03125 104.125 C 64.046875 104.152344 64.054688 104.179688 64.070312 104.199219 C 64.085938 104.238281 64.105469 104.28125 64.128906 104.324219 C 64.128906 104.339844 64.136719 104.351562 64.140625 104.363281 C 64.160156 104.410156 64.53125 106.140625 64.542969 106.1875 C 64.542969 106.210938 64.546875 106.230469 64.550781 106.253906 C 64.554688 106.308594 64.554688 106.363281 64.5625 106.417969 C 64.570312 106.507812 64.574219 106.59375 64.582031 106.683594 C 64.582031 106.707031 64.582031 106.722656 64.554688 106.734375 C 64.550781 106.738281 64.542969 106.753906 64.539062 106.761719 C 64.539062 106.804688 64.515625 106.832031 64.492188 106.863281 C 64.480469 106.898438 64.0625 107.171875 63.625 107.460938 C 63.445312 107.585938 63.332031 107.777344 63.167969 107.894531 C 62.910156 108.0625 62.632812 108.125 62.617188 108.144531 C 62.613281 108.152344 62.601562 108.15625 62.589844 108.164062 C 62.535156 108.1875 62.480469 108.214844 62.441406 108.253906 C 62.410156 108.28125 62.382812 108.308594 62.355469 108.339844 C 62.324219 108.378906 62.308594 108.457031 62.355469 108.46875 C 62.574219 108.503906 62.554688 109.09375 62.863281 109.050781 C 62.871094 109.058594 62.875 109.0625 62.882812 109.066406 C 62.960938 109.09375 63.039062 109.128906 63.125 109.148438 C 63.148438 109.152344 63.269531 109.128906 63.300781 109.117188 C 63.316406 109.105469 63.597656 108.917969 63.882812 108.640625 C 64.1875 108.339844 64.605469 108.15625 64.621094 108.140625 C 64.625 108.128906 64.648438 108.121094 64.65625 108.121094 C 64.679688 108.121094 64.703125 108.109375 64.714844 108.09375 C 64.746094 108.074219 64.773438 108.054688 64.800781 108.035156 C 64.808594 108.027344 64.820312 108.027344 64.828125 108.027344 C 64.832031 108.039062 64.839844 108.046875 64.839844 108.0625 C 64.839844 108.128906 64.84375 108.199219 64.84375 108.265625 C 64.839844 108.347656 64.980469 109.238281 64.972656 109.320312 C 64.960938 109.367188 64.960938 109.40625 64.953125 109.449219 C 64.953125 109.480469 64.9375 109.507812 64.910156 109.53125 C 64.886719 109.554688 64.871094 109.585938 64.84375 109.605469 C 64.796875 109.65625 63.226562 111.417969 63.203125 111.441406 C 63.175781 111.476562 63.148438 111.5 63.105469 111.515625 C 63.097656 111.515625 63.089844 111.527344 63.082031 111.535156 C 63.046875 111.566406 63.023438 111.621094 62.984375 111.648438 C 62.980469 111.648438 62.980469 111.652344 62.972656 111.652344 C 62.96875 111.691406 62.941406 111.707031 62.902344 111.714844 C 62.871094 111.722656 62.652344 112.082031 62.648438 112.273438 C 62.648438 112.464844 62.863281 112.589844 62.910156 112.792969 C 62.96875 113.0625 63.242188 113.152344 63.417969 113.132812 C 63.65625 113.105469 63.820312 112.925781 63.835938 112.917969 C 63.855469 112.902344 64.34375 111.667969 64.355469 111.636719 C 64.363281 111.589844 64.886719 112 65.113281 112.316406 C 65.203125 112.449219 65.371094 112.695312 65.3125 113.011719 C 65.25 113.363281 65.542969 113.730469 65.914062 113.726562 C 66.46875 113.714844 67.015625 112.921875 66.894531 112.015625 C 66.800781 111.335938 66.824219 111.175781 66.824219 111.140625 C 66.820312 111.0625 66.796875 110.984375 66.785156 110.910156 L 66.785156 110.816406 C 66.785156 110.726562 66.777344 110.640625 66.757812 110.550781 C 66.746094 110.503906 66.527344 108.816406 66.519531 108.792969 C 66.515625 108.757812 66.5 108.71875 66.488281 108.691406 "/>
<path style=" stroke:none;fill-rule:nonzero;fill:rgb(92.941177%,44.705883%,12.941177%);fill-opacity:1;" d="M 70.976562 109.613281 C 70.976562 109.613281 71.347656 110.773438 71.359375 110.757812 C 71.367188 110.75 71.757812 110.957031 71.765625 110.957031 C 71.800781 110.984375 71.839844 110.996094 71.882812 111 C 71.894531 111 71.914062 111.011719 71.917969 111.015625 C 71.949219 111.039062 71.972656 111.050781 72.007812 111.058594 C 72.023438 111.0625 72.035156 111.070312 72.046875 111.074219 C 72.078125 111.082031 72.101562 111.101562 72.125 111.105469 C 72.15625 111.109375 73.105469 111.511719 73.765625 111.691406 C 74.425781 111.878906 74.800781 111.835938 74.832031 111.855469 C 74.835938 111.859375 74.839844 111.863281 74.84375 111.859375 C 74.898438 111.855469 74.945312 111.847656 74.996094 111.835938 C 75.027344 111.824219 75.0625 111.816406 75.097656 111.835938 C 75.113281 111.847656 75.128906 111.847656 75.140625 111.847656 C 75.199219 111.847656 75.644531 111.8125 75.675781 111.546875 C 75.71875 111.527344 75.726562 111.480469 75.746094 111.445312 C 75.769531 111.410156 75.789062 110.972656 76.4375 110.578125 C 76.746094 110.398438 77.15625 110.277344 77.121094 110.140625 C 76.933594 109.492188 74.898438 109.648438 74.820312 109.648438 C 74.773438 109.648438 72.109375 109.453125 72.011719 109.441406 C 72.015625 109.429688 70.976562 109.613281 70.976562 109.613281 "/>
<path style=" stroke:none;fill-rule:nonzero;fill:rgb(92.941177%,44.705883%,12.941177%);fill-opacity:1;" d="M 70.945312 108.929688 L 70.675781 109.269531 C 70.484375 109.328125 69.976562 109.234375 69.972656 109.222656 C 69.984375 109.222656 69.566406 109.152344 69.660156 109.0625 C 69.6875 109.035156 71.074219 108.199219 71.28125 108.167969 C 71.367188 108.160156 71.222656 108.53125 70.945312 108.929688 M 73.511719 109.867188 L 74.136719 109.761719 C 73.398438 109.699219 72.691406 109.566406 72.316406 109.464844 C 72.335938 109.4375 73.363281 107.464844 73.363281 107.460938 C 73.46875 107.234375 73.441406 107.160156 73.351562 106.917969 C 73.335938 106.929688 73.183594 106.410156 72.609375 106.515625 C 72.578125 106.519531 71.691406 106.914062 71.625 106.949219 C 71.613281 106.957031 71.488281 106.984375 71.433594 107 C 71.410156 107.007812 71.394531 107.015625 71.378906 107.027344 C 71.363281 107.035156 71.347656 107.042969 71.316406 107.058594 C 71.324219 107.027344 71.324219 107.007812 71.332031 106.984375 C 71.335938 106.949219 71.25 106.355469 71.242188 106.296875 C 71.234375 106.257812 71.175781 105.964844 71.289062 105.773438 C 71.410156 105.558594 73.464844 104.699219 73.527344 104.628906 C 74.101562 104.027344 73.703125 103.882812 73.417969 103.402344 C 73.308594 103.207031 72.957031 103.257812 72.328125 103.441406 C 72.226562 103.46875 71.234375 103.9375 71.214844 103.945312 C 71.203125 103.949219 71.207031 103.992188 71.203125 103.980469 C 71.195312 103.976562 71.195312 103.960938 71.195312 103.949219 L 71.195312 103.878906 C 71.195312 103.84375 71.007812 102.722656 70.980469 102.699219 C 70.957031 102.679688 70.824219 102.371094 70.285156 102.34375 C 70.175781 102.339844 69.925781 102.359375 69.8125 102.382812 C 69.703125 102.402344 69.46875 102.539062 69.375 102.558594 C 69.199219 102.59375 69.132812 102.796875 69.125 102.800781 C 69.113281 102.808594 69.109375 102.832031 69.097656 102.835938 C 69.070312 102.851562 69.078125 102.878906 69.070312 102.898438 C 69.0625 102.9375 69.089844 102.941406 69.109375 102.957031 C 69.121094 102.960938 69.125 102.960938 69.136719 102.964844 C 69.214844 103.011719 69.261719 103.070312 69.253906 103.160156 C 69.253906 103.25 69.519531 104.964844 69.519531 105.03125 C 69.519531 105.117188 69.527344 105.199219 69.496094 105.277344 C 69.488281 105.296875 69.480469 105.316406 69.476562 105.339844 C 69.464844 105.382812 69.457031 105.425781 69.453125 105.472656 C 69.449219 105.503906 69.441406 105.535156 69.417969 105.558594 C 69.398438 105.578125 69.382812 105.59375 69.363281 105.613281 C 69.328125 105.652344 68.289062 106.660156 68.238281 106.699219 C 68.210938 106.71875 68.191406 106.738281 68.160156 106.753906 C 68.121094 106.765625 68.070312 106.765625 68.023438 106.785156 C 67.800781 106.835938 67.75 107.136719 67.734375 107.15625 C 67.722656 107.179688 67.722656 107.207031 67.726562 107.238281 C 67.730469 107.261719 67.726562 107.34375 67.753906 107.351562 C 67.761719 107.355469 67.867188 107.699219 68.09375 107.632812 C 68.496094 107.503906 68.628906 107.78125 68.871094 107.566406 C 68.878906 107.5625 68.890625 107.5625 68.898438 107.550781 C 68.90625 107.542969 68.917969 107.539062 68.929688 107.535156 C 69 107.496094 69.269531 107.128906 69.300781 107.101562 C 69.363281 107.03125 69.523438 106.800781 69.585938 106.734375 C 69.59375 106.730469 69.605469 106.730469 69.605469 106.726562 C 69.605469 106.691406 69.71875 107.664062 69.722656 107.683594 C 69.71875 107.691406 69.734375 107.738281 69.746094 107.980469 C 69.769531 108.675781 68.148438 109.15625 68.066406 109.167969 C 68.050781 109.167969 67.859375 109.222656 68.167969 109.402344 C 68.261719 109.453125 68.660156 109.679688 69.320312 109.824219 C 69.710938 109.90625 70.015625 110.101562 70.042969 110.105469 C 70.046875 110.125 70.109375 110.128906 70.144531 110.152344 C 70.132812 110.167969 70.121094 110.183594 70.113281 110.191406 C 70.105469 110.207031 70.09375 110.21875 70.082031 110.238281 C 70.066406 110.257812 70.050781 110.273438 70.039062 110.296875 C 70.027344 110.316406 70.011719 110.339844 69.996094 110.359375 C 69.972656 110.398438 69.632812 110.859375 69.042969 110.917969 C 69.023438 110.921875 69.003906 110.914062 68.980469 110.917969 C 68.902344 110.929688 66.753906 110.707031 66.710938 110.714844 C 66.703125 110.71875 66.507812 110.664062 66.503906 110.664062 L 66.539062 110.875 C 66.542969 110.875 66.734375 110.929688 66.738281 110.929688 C 66.796875 110.910156 67.695312 111.175781 67.75 111.164062 C 67.753906 111.164062 67.757812 111.171875 67.757812 111.171875 C 67.777344 111.191406 68.878906 111.601562 68.894531 111.617188 C 68.898438 111.617188 68.898438 111.621094 68.898438 111.625 C 68.890625 111.632812 68.882812 111.640625 68.871094 111.648438 C 68.890625 111.683594 68.925781 111.667969 68.949219 111.683594 C 68.917969 111.707031 68.886719 111.722656 68.863281 111.714844 C 68.792969 111.6875 68.71875 111.707031 68.644531 111.6875 C 68.632812 111.6875 68.621094 111.695312 68.613281 111.695312 C 68.640625 111.722656 68.675781 111.726562 68.691406 111.746094 C 68.710938 111.765625 68.742188 111.765625 68.765625 111.777344 C 68.792969 111.789062 69.09375 111.972656 69.144531 112.011719 C 69.152344 112.023438 69.171875 112.027344 69.191406 112.027344 C 69.253906 112.027344 69.328125 112.023438 69.40625 112.023438 C 69.445312 112.023438 69.484375 112.03125 69.519531 112.054688 C 69.550781 112.070312 69.574219 112.101562 69.605469 112.074219 C 69.613281 112.070312 69.617188 112.074219 69.625 112.074219 C 69.640625 112.078125 70.109375 112.300781 70.546875 112.023438 C 70.820312 111.847656 71.105469 111.421875 71.097656 111.410156 C 71.113281 111.40625 71.417969 110.804688 71.449219 110.777344 C 71.453125 110.773438 71.472656 110.773438 71.476562 110.777344 C 71.507812 110.804688 71.546875 110.820312 71.585938 110.824219 C 71.597656 110.824219 71.609375 110.828125 71.613281 110.839844 C 71.625 110.847656 73.789062 110.964844 73.96875 111.003906 C 73.976562 111.011719 73.960938 111.003906 73.96875 111.003906 Z M 73.511719 109.867188 "/>
<path style=" stroke:none;fill-rule:evenodd;fill:rgb(92.941177%,44.705883%,12.941177%);fill-opacity:1;" d="M 51.761719 107.925781 C 51.71875 107.808594 51.683594 107.691406 51.742188 107.535156 C 51.820312 107.347656 51.894531 107.351562 52.117188 107.339844 C 52.035156 107.617188 52.058594 107.90625 51.761719 107.925781 M 55.699219 105.585938 C 55.503906 105.230469 55.074219 105.269531 54.960938 105.601562 C 54.785156 106.109375 55.046875 106.035156 54.53125 106.40625 C 54.324219 106.554688 54.066406 106.84375 53.882812 106.9375 C 53.3125 107.230469 53.054688 107.445312 53.054688 107.445312 C 53.007812 107.03125 53.195312 106.152344 53.351562 105.949219 C 53.953125 105.171875 53.617188 105.804688 54.089844 104.800781 C 54.367188 104.199219 54.597656 103.546875 54.652344 102.847656 C 54.679688 102.378906 54.800781 102.027344 54.8125 101.667969 C 54.832031 101.097656 54.351562 100.011719 53.902344 99.886719 C 53.769531 100.425781 53.816406 101.207031 53.777344 101.78125 C 53.726562 102.535156 53.554688 102.871094 53.464844 103.523438 C 53.378906 104.082031 52.738281 105.761719 52.539062 106.046875 C 52.375 106.28125 52.414062 106.230469 52.25 106.269531 C 51.941406 105.667969 52.460938 105.566406 52.6875 105.269531 C 52.824219 104.800781 52.695312 104.464844 52.285156 104.371094 C 51.8125 104.257812 51.585938 104.484375 51.394531 104.753906 C 51.152344 105.101562 50.957031 105.1875 50.707031 105.402344 C 50.382812 105.664062 50.371094 105.984375 49.933594 105.984375 C 49.800781 105.722656 49.929688 105.828125 49.707031 105.34375 C 49.582031 105.058594 49.667969 104.996094 49.796875 104.675781 C 49.964844 104.269531 49.84375 104.386719 49.796875 104.03125 C 49.761719 103.746094 49.847656 103.449219 49.796875 103.183594 L 49.6875 102.855469 C 49.386719 102.011719 48.324219 102.132812 47.917969 102.464844 L 47.753906 102.601562 C 47.621094 102.710938 47.703125 102.625 47.585938 102.730469 C 46.894531 103.363281 46.804688 103.808594 46.34375 104.171875 C 45.980469 104.457031 45.894531 104.695312 44.925781 105.425781 C 44.640625 105.644531 44.058594 106.023438 43.953125 106.3125 C 44.230469 106.285156 44.121094 106.238281 44.367188 106.21875 C 44.871094 106.167969 44.570312 106.277344 44.726562 106.359375 L 45.65625 106.453125 C 46.175781 106.402344 46.765625 106.039062 47.117188 106.046875 C 47.183594 106.046875 47.210938 106.039062 47.21875 106.027344 C 47.144531 105.972656 47.246094 106.007812 47.21875 106.027344 C 47.242188 106.046875 47.265625 106.0625 47.3125 106.089844 C 46.410156 106.65625 47.144531 106.550781 46.253906 107.023438 C 45.828125 107.242188 45.902344 107.136719 45.523438 107.105469 C 45.324219 107.09375 44.445312 107.585938 44.191406 107.707031 C 43.90625 107.839844 43.019531 108.199219 42.746094 108.21875 C 42.257812 108.265625 42.210938 108.136719 41.882812 108.027344 C 41.007812 108.703125 41.550781 109.34375 41.871094 109.421875 C 42.710938 109.613281 44.539062 108.664062 45.253906 108.359375 C 45.515625 108.25 45.773438 108.082031 45.988281 107.992188 C 46.554688 107.753906 46.554688 107.789062 46.714844 107.90625 C 46.601562 108.160156 45.96875 109.003906 45.742188 109.140625 C 45.433594 109.320312 45.359375 109.3125 45.175781 109.699219 C 45.042969 110.007812 44.898438 110.230469 44.945312 110.601562 C 45.167969 110.84375 45.394531 111.046875 45.71875 111.078125 C 46.238281 111.125 46.175781 110.777344 46.5625 110.667969 C 46.726562 111 46.703125 111.429688 46.886719 111.683594 C 47.09375 111.980469 47.695312 112.027344 47.921875 111.78125 L 49.148438 108.488281 C 49.28125 108.28125 49.171875 108.605469 49.277344 108.21875 C 49.484375 107.453125 49.710938 107.507812 50.425781 106.75 C 50.589844 106.570312 50.976562 106.183594 51.328125 106.21875 C 51.3125 106.957031 50.828125 107.203125 50.617188 107.933594 C 50.378906 108.75 49.796875 108.34375 49.890625 109.601562 C 50.445312 109.824219 50.417969 109.96875 50.875 109.570312 C 51.097656 109.375 51.523438 109.070312 51.894531 109.152344 C 52.058594 109.691406 51.472656 111.335938 51.285156 112.011719 C 50.96875 113.164062 51.464844 112.214844 50.664062 113.867188 C 50.207031 114.800781 50.117188 115.082031 50.671875 115.425781 C 51.011719 115.632812 51.859375 115.800781 51.988281 114.640625 L 52.152344 112.277344 C 52.195312 111.914062 53.023438 110.730469 52.917969 109.152344 C 52.859375 108.285156 53.476562 108.175781 54.484375 107.625 C 55.3125 107.175781 56.230469 106.539062 55.699219 105.585938 "/>
<path style=" stroke:none;fill-rule:evenodd;fill:rgb(92.941177%,44.705883%,12.941177%);fill-opacity:1;" d="M 35.4375 102.957031 L 35.148438 103.132812 C 34.859375 103.316406 35.089844 103.230469 34.742188 103.328125 C 34.722656 103.332031 34.695312 103.335938 34.675781 103.339844 C 34.148438 103.476562 34.300781 103.65625 33.480469 103.636719 C 33.21875 103.632812 33.15625 103.609375 32.78125 103.328125 L 32.660156 103.210938 C 33.078125 102.738281 32.875 103.292969 34.257812 103.074219 C 34.660156 103.015625 34.609375 102.929688 34.984375 102.804688 C 35.761719 102.542969 35.273438 102.496094 35.730469 102.554688 C 35.75 102.839844 35.652344 102.835938 35.4375 102.957031 M 39.96875 102.230469 C 39.460938 101.175781 38.414062 101.054688 37.441406 100.578125 C 36.980469 100.347656 37.152344 100.257812 36.765625 100.148438 C 36.59375 100.097656 36.292969 100.164062 36.074219 100.164062 C 35.128906 100.148438 32.992188 99.375 31.964844 99.101562 C 31.242188 98.90625 29.621094 98.445312 29.015625 98.460938 C 29.015625 98.460938 28.621094 98.535156 28.519531 98.621094 C 28.332031 98.773438 28.472656 99.292969 28.472656 99.292969 C 28.855469 99.59375 30.382812 100.183594 30.933594 100.1875 L 33.390625 100.699219 C 33.804688 100.816406 33.824219 100.703125 34.144531 100.707031 C 34.367188 100.710938 34.738281 100.796875 34.953125 100.839844 C 34.71875 101.207031 34.519531 101.152344 34.171875 101.253906 C 33.792969 101.367188 33.640625 101.460938 33.3125 101.5625 L 31.929688 101.683594 C 31.792969 101.671875 31.769531 101.648438 31.644531 101.632812 C 31.320312 101.578125 31.582031 101.605469 31.367188 101.605469 C 30.816406 101.601562 30.144531 101.6875 29.476562 101.632812 C 28.21875 101.546875 28.382812 101.183594 27.941406 102.433594 C 29.882812 104.375 29.96875 103.105469 30.777344 103.65625 C 30.855469 104.125 30.496094 103.886719 30.988281 104.871094 C 31.578125 106.058594 32.234375 105.613281 33.429688 105.460938 C 33.980469 105.394531 34.171875 105.25 34.660156 105.046875 C 35.890625 104.535156 37.097656 104.558594 37.4375 103.457031 C 37.5625 103.046875 37.574219 103.140625 37.398438 102.796875 C 37.25 102.503906 36.898438 101.859375 36.984375 101.582031 C 38.523438 101.894531 39.339844 103.734375 39.96875 102.230469 "/>
<path style=" stroke:none;fill-rule:evenodd;fill:rgb(92.941177%,44.705883%,12.941177%);fill-opacity:1;" d="M 34.945312 97.226562 C 34.960938 97.839844 34.96875 97.988281 35.511719 98.46875 C 36.292969 99.164062 37.152344 100.480469 37.890625 100.359375 C 38.496094 100.261719 38.753906 99.777344 38.800781 99.214844 C 38.839844 98.707031 38.597656 98.386719 38.4375 97.910156 C 38.265625 97.378906 37.875 97.207031 37.445312 96.796875 C 36.660156 96.046875 36.085938 95.863281 35.328125 96.453125 Z M 34.945312 97.226562 "/>
</g>
</svg>
