<?xml version="1.0" encoding="UTF-8"?>
<svg xmlns="http://www.w3.org/2000/svg" xmlns:xlink="http://www.w3.org/1999/xlink" width="24px" height="24px" viewBox="0 0 24 23" version="1.1">
<g id="surface1">
<path style=" stroke:none;fill-rule:nonzero;fill:currentColor;fill-opacity:1;" d="M 14.242188 0.171875 L 15.136719 0.363281 L 15.863281 0.613281 L 16.449219 0.902344 L 16.898438 1.207031 L 17.234375 1.535156 L 17.484375 1.859375 L 17.644531 2.175781 L 17.742188 2.464844 L 17.78125 2.710938 L 17.804688 2.902344 L 17.792969 3.027344 L 17.792969 8.148438 L 17.742188 8.75 L 17.613281 9.277344 L 17.40625 9.71875 L 17.144531 10.082031 L 16.847656 10.378906 L 16.519531 10.621094 L 16.171875 10.800781 L 15.824219 10.9375 L 15.496094 11.03125 L 15.195312 11.097656 L 14.9375 11.136719 L 14.726562 11.15625 L 8.785156 11.15625 L 8.101562 11.203125 L 7.511719 11.339844 L 7.015625 11.550781 L 6.609375 11.808594 L 6.28125 12.113281 L 6.011719 12.449219 L 5.8125 12.796875 L 5.664062 13.148438 L 5.5625 13.484375 L 5.492188 13.792969 L 5.453125 14.050781 L 5.433594 14.253906 L 5.433594 17.183594 L 3.214844 17.183594 L 3.003906 17.15625 L 2.726562 17.089844 L 2.410156 16.972656 L 2.058594 16.800781 L 1.703125 16.554688 L 1.34375 16.207031 L 0.996094 15.765625 L 0.675781 15.203125 L 0.398438 14.5 L 0.1875 13.660156 L 0.0507812 12.652344 L 0 11.472656 L 0.0585938 10.304688 L 0.21875 9.308594 L 0.457031 8.472656 L 0.777344 7.792969 L 1.132812 7.246094 L 1.53125 6.824219 L 1.949219 6.507812 L 2.367188 6.277344 L 2.765625 6.125 L 3.125 6.027344 L 3.441406 5.980469 L 3.683594 5.972656 L 3.839844 5.972656 L 3.902344 5.980469 L 12.019531 5.980469 L 12.019531 5.183594 L 6.210938 5.183594 L 6.199219 2.550781 L 6.179688 2.195312 L 6.230469 1.867188 L 6.339844 1.570312 L 6.507812 1.304688 L 6.757812 1.054688 L 7.066406 0.832031 L 7.445312 0.640625 L 7.882812 0.46875 L 8.390625 0.324219 L 8.964844 0.210938 L 9.601562 0.113281 L 10.308594 0.0585938 L 11.074219 0.0195312 L 11.910156 0 L 13.175781 0.046875 Z M 7.972656 2.070312 L 7.742188 2.386719 L 7.664062 2.78125 L 7.742188 3.171875 L 7.972656 3.5 L 8.300781 3.710938 L 8.707031 3.796875 L 9.117188 3.710938 L 9.445312 3.5 L 9.671875 3.171875 L 9.753906 2.78125 L 9.671875 2.386719 L 9.445312 2.070312 L 9.117188 1.859375 L 8.707031 1.773438 L 8.300781 1.859375 Z M 7.972656 2.070312 "/>
<path style=" stroke:none;fill-rule:nonzero;fill:currentColor;fill-opacity:1;" d="M 20.996094 5.855469 L 21.277344 5.914062 L 21.59375 6.027344 L 21.941406 6.203125 L 22.300781 6.460938 L 22.660156 6.796875 L 23.007812 7.246094 L 23.324219 7.8125 L 23.605469 8.511719 L 23.8125 9.355469 L 23.953125 10.351562 L 24.003906 11.53125 L 23.941406 12.710938 L 23.785156 13.707031 L 23.546875 14.53125 L 23.226562 15.210938 L 22.867188 15.757812 L 22.46875 16.1875 L 22.050781 16.503906 L 21.632812 16.734375 L 21.234375 16.886719 L 20.878906 16.972656 L 20.558594 17.023438 L 20.320312 17.042969 L 20.160156 17.03125 L 11.980469 17.03125 L 11.980469 17.816406 L 17.792969 17.816406 L 17.804688 20.464844 L 17.824219 20.808594 L 17.773438 21.132812 L 17.664062 21.429688 L 17.496094 21.710938 L 17.246094 21.949219 L 16.9375 22.179688 L 16.558594 22.371094 L 16.121094 22.535156 L 15.613281 22.675781 L 15.035156 22.800781 L 14.398438 22.886719 L 13.691406 22.957031 L 12.925781 22.992188 L 12.089844 23.003906 L 10.828125 22.964844 L 9.761719 22.832031 L 8.867188 22.640625 L 8.140625 22.398438 L 7.554688 22.113281 L 7.105469 21.796875 L 6.765625 21.46875 L 6.519531 21.144531 L 6.359375 20.828125 L 6.257812 20.539062 L 6.21875 20.300781 L 6.199219 20.109375 L 6.210938 19.984375 L 6.210938 14.867188 L 6.257812 14.253906 L 6.390625 13.734375 L 6.597656 13.292969 L 6.855469 12.929688 L 7.15625 12.625 L 7.484375 12.394531 L 7.832031 12.203125 L 8.179688 12.066406 L 8.507812 11.972656 L 8.808594 11.914062 L 9.066406 11.875 L 9.273438 11.855469 L 9.402344 11.847656 L 15.214844 11.847656 L 15.902344 11.800781 L 16.488281 11.664062 L 16.988281 11.464844 L 17.394531 11.195312 L 17.722656 10.886719 L 17.992188 10.554688 L 18.191406 10.207031 L 18.339844 9.863281 L 18.441406 9.527344 L 18.507812 9.21875 L 18.550781 8.953125 L 18.570312 8.75 L 18.570312 5.816406 L 20.648438 5.816406 L 20.789062 5.828125 Z M 14.558594 19.515625 L 14.328125 19.832031 L 14.25 20.222656 L 14.328125 20.617188 L 14.558594 20.933594 L 14.886719 21.152344 L 15.296875 21.230469 L 15.703125 21.152344 L 16.03125 20.933594 L 16.261719 20.617188 L 16.339844 20.222656 L 16.261719 19.832031 L 16.03125 19.515625 L 15.703125 19.292969 L 15.296875 19.21875 L 14.886719 19.292969 Z M 14.558594 19.515625 "/>
</g>
</svg>
