<svg class="icon" width="200" height="199.03" viewBox="0 0 1029 1024" xmlns="http://www.w3.org/2000/svg"><path d="m610.56 7.68 38.4 8.533 31.147 11.094 25.173 12.8 19.2 13.653 14.507 14.507 10.666 14.506 6.827 14.08 4.267 12.8 1.706 11.094.854 8.533-.427 5.547v227.84l-2.133 26.88-5.547 23.466-8.96 19.627-11.093 16.213-12.8 13.227-14.08 10.667-14.934 8.106-14.933 5.974-14.08 4.266-12.8 2.987-11.093 1.707-8.96.853h-254.72l-29.44 2.133-25.174 5.974-21.333 9.386-17.493 11.52-14.08 13.654-11.52 14.933-8.534 15.36-6.4 15.787-4.266 14.933-2.987 13.653-1.707 11.52-.853 8.96v130.56h-95.147l-8.96-1.28-11.946-2.986-13.654-5.12-14.933-7.68-15.36-11.094-15.36-15.36-14.933-19.626-13.654-25.174-11.946-31.146L8.107 608l-5.974-44.8L0 510.72l2.56-52.053 6.827-44.374 10.24-37.12L33.28 346.88l15.36-24.32 17.067-18.773 17.92-14.08 17.92-10.24 17.066-6.827 15.36-4.267 13.654-2.133 10.24-.427h6.826l2.56.427h348.16v-35.413H266.24l-.427-117.334-.853-15.786 2.133-14.507 4.694-13.227 7.253-11.946 10.667-11.094 13.226-9.813 16.214-8.533 18.773-7.68 21.76-6.4 24.747-5.12 27.306-4.267 30.294-2.56L474.88.853 510.72 0l54.187 2.133L610.56 7.68zm-268.8 84.48-9.813 14.08-3.414 17.493 3.414 17.494 9.813 14.506 14.08 9.387 17.493 3.84 17.494-3.84 14.08-9.387 9.813-14.506 3.413-17.494-3.413-17.493-9.813-14.08-14.08-9.387-17.494-3.84-17.493 3.84-14.08 9.387z"/><path d="m900.267 260.693 11.946 2.56 13.654 5.12 14.933 7.68 15.36 11.52 15.36 14.934 14.933 20.053 13.654 25.173 11.946 31.147 8.96 37.547 5.974 44.373 2.133 52.48-2.56 52.48-6.827 44.373-10.24 36.694-13.653 30.293-15.36 24.32-17.067 19.2-17.92 14.08-17.92 10.24-17.066 6.827-15.36 3.84-13.654 2.133-10.24.853-6.826-.426h-350.72v34.986H762.88l.427 117.76.853 15.36-2.133 14.507-4.694 13.227-7.253 12.373-10.667 10.667-13.226 10.24-16.214 8.533-18.773 7.253-21.76 6.4-24.747 5.547-27.306 3.84-30.294 2.987-32.853 1.706-35.84.427-54.187-1.707-45.653-5.973-38.4-8.533-31.147-10.667-25.173-12.8-19.2-14.08-14.507-14.507-10.666-14.506-6.827-14.08-4.267-12.8-1.706-10.667-.854-8.533.427-5.547V661.76l2.133-27.307 5.547-23.04 8.96-19.626 11.093-16.214 12.8-13.653 14.08-10.24 14.934-8.533 14.933-5.974 14.08-4.266 12.8-2.56 11.093-1.707 8.96-.853 5.547-.427h249.173l29.44-2.133 25.174-5.974 21.333-8.96 17.493-11.946 14.08-13.654 11.52-14.933 8.534-15.36 6.4-15.36 4.266-14.933 2.987-13.654 1.707-11.946.853-8.96v-130.56h89.173l5.974.426 8.96 1.28zm-276.054 608-9.813 14.08-3.413 17.494 3.413 17.493 9.813 14.08 14.08 9.813 17.494 3.414 17.493-3.414 14.08-9.813 9.813-14.08 3.414-17.493-3.414-17.494-9.813-14.08-14.08-9.813-17.493-3.413-17.494 3.413-14.08 9.813z"/></svg>