<?xml version="1.0" encoding="UTF-8"?>
<svg xmlns="http://www.w3.org/2000/svg" xmlns:xlink="http://www.w3.org/1999/xlink" width="24px" height="24px" viewBox="0 0 24 21" version="1.1">
<g id="surface1">
<path style=" stroke:none;fill-rule:nonzero;fill:currentColor;fill-opacity:1;" d="M 24 9.308594 C 24 4.890625 18.625 1.316406 12 1.316406 C 5.375 1.316406 0 4.890625 0 9.308594 C 0 13.242188 4.265625 16.511719 9.890625 17.171875 L 9.890625 19.714844 L 13.984375 19.714844 L 13.984375 17.1875 C 14.988281 17.078125 15.949219 16.886719 16.847656 16.617188 L 18.507812 19.714844 L 23.132812 19.714844 L 20.347656 15.046875 C 22.601562 13.589844 24 11.558594 24 9.308594 Z M 4.71875 9.902344 C 4.71875 6.882812 8.804688 4.441406 13.839844 4.441406 C 18.875 4.441406 22.589844 6.113281 22.589844 9.902344 C 22.589844 11.960938 21.496094 13.394531 19.6875 14.273438 C 19.589844 14.207031 19.492188 14.152344 19.421875 14.121094 C 19 13.90625 18.273438 13.691406 18.273438 13.691406 C 18.273438 13.691406 21.851562 13.425781 21.851562 9.882812 C 21.851562 6.335938 18.109375 6.273438 18.109375 6.273438 L 9.890625 6.273438 L 9.890625 14.828125 C 6.828125 13.945312 4.71875 12.070312 4.71875 9.902344 Z M 14.015625 11.476562 L 14.015625 9.191406 C 16.402344 9.191406 17.644531 8.914062 17.644531 10.3125 C 17.644531 11.8125 16.066406 11.476562 14.015625 11.476562 Z M 13.980469 14.453125 L 15.078125 14.453125 C 15.523438 14.453125 15.859375 14.933594 16.070312 15.242188 C 15.402344 15.320312 14.707031 15.359375 13.980469 15.363281 Z M 13.980469 14.453125 "/>
</g>
</svg>
